<svg width="320" height="310" viewBox="0 0 320 310" fill="none" xmlns="http://www.w3.org/2000/svg">
<path d="M161.941 48C141.214 47.9976 121.046 54.7176 104.463 67.1513C87.8794 79.5851 75.7761 97.0618 69.9692 116.959C64.1624 136.855 64.9652 158.099 72.2572 177.5C79.5493 196.902 92.9371 213.416 110.411 224.562C108.547 231.687 105.005 239.721 98.2675 245.303C98.2675 245.303 129.399 254.551 145.668 238.214C158.745 240.469 172.148 239.983 185.027 236.786C197.906 233.589 209.98 227.751 220.485 219.643C230.989 211.535 239.695 201.333 246.05 189.683C252.405 178.034 256.27 165.192 257.401 151.97C258.532 138.748 256.905 125.436 252.621 112.877C248.337 100.317 241.491 88.7846 232.516 79.0099C223.541 69.2352 212.634 61.4314 200.485 56.0934C188.336 50.7553 175.211 47.9993 161.941 48Z" fill="url(#paint0_linear_2184_44)"/>
<g style="mix-blend-mode:soft-light">
<path d="M147.132 132.682C142.783 154.179 125.486 168.82 108.492 165.387C91.4994 161.955 81.2466 141.741 85.5911 120.245C89.9357 98.7483 107.234 84.1051 124.23 87.5408C141.226 90.9765 151.476 111.187 147.132 132.682Z" fill="white"/>
</g>
<g style="mix-blend-mode:multiply">
<path d="M204.652 115.293H129.217C128.34 115.292 127.471 115.465 126.66 115.8C125.849 116.135 125.112 116.627 124.491 117.247C123.87 117.867 123.377 118.604 123.041 119.414C122.705 120.225 122.532 121.094 122.531 121.971V176.07C122.532 176.947 122.705 177.816 123.041 178.627C123.377 179.437 123.87 180.174 124.491 180.794C125.111 181.414 125.848 181.906 126.659 182.242C127.47 182.577 128.339 182.75 129.217 182.749H204.652C205.529 182.749 206.397 182.576 207.207 182.24C208.017 181.904 208.753 181.412 209.373 180.792C209.993 180.172 210.485 179.435 210.82 178.625C211.155 177.815 211.327 176.946 211.327 176.07V121.971C211.327 120.201 210.624 118.502 209.372 117.25C208.121 115.997 206.423 115.294 204.652 115.293ZM203.674 168.924C203.672 170.391 203.088 171.797 202.05 172.834C201.012 173.871 199.605 174.454 198.138 174.454H135.716C134.25 174.453 132.844 173.871 131.807 172.834C130.77 171.797 130.188 170.39 130.188 168.924V129.122C130.187 127.656 130.77 126.249 131.807 125.212C132.843 124.174 134.25 123.591 135.716 123.591H198.138C199.605 123.591 201.011 124.174 202.049 125.212C203.087 126.249 203.67 127.655 203.672 129.122L203.674 168.924Z" fill="#8C8B8B" fill-opacity="0.26"/>
<path d="M156.617 130.111V167.932L185.596 149.019L156.617 130.111Z" fill="#8C8B8B" fill-opacity="0.26"/>
</g>
<path d="M200.322 112.158H124.889C124.011 112.158 123.142 112.33 122.331 112.665C121.52 113.001 120.783 113.493 120.162 114.113C119.542 114.733 119.049 115.47 118.713 116.28C118.377 117.091 118.203 117.96 118.203 118.838V172.936C118.203 173.814 118.376 174.683 118.712 175.494C119.048 176.304 119.541 177.041 120.162 177.662C120.783 178.282 121.52 178.774 122.331 179.109C123.142 179.445 124.011 179.617 124.889 179.616H200.322C201.199 179.616 202.067 179.444 202.878 179.108C203.688 178.772 204.424 178.28 205.045 177.66C205.665 177.039 206.157 176.303 206.492 175.492C206.828 174.682 207 173.813 207 172.936V118.838C207 117.961 206.827 117.092 206.492 116.282C206.156 115.471 205.664 114.735 205.044 114.115C204.424 113.494 203.688 113.002 202.877 112.667C202.067 112.331 201.199 112.158 200.322 112.158ZM199.343 165.79C199.342 167.257 198.759 168.663 197.721 169.7C196.684 170.736 195.277 171.319 193.811 171.319H131.391C130.665 171.319 129.946 171.176 129.275 170.898C128.604 170.62 127.995 170.213 127.481 169.7C126.968 169.187 126.56 168.577 126.282 167.906C126.004 167.235 125.861 166.516 125.861 165.79V125.988C125.861 124.521 126.444 123.114 127.481 122.077C128.518 121.04 129.925 120.458 131.391 120.458H193.811C195.277 120.458 196.684 121.041 197.721 122.078C198.759 123.114 199.342 124.521 199.343 125.988V165.79Z" fill="white"/>
<path d="M152.289 126.979V164.801L181.267 145.889L152.289 126.979Z" fill="white"/>
<path d="M81.2949 275.31C42.0958 262.075 8.09809 229.182 1.13549 188.343C-5.82711 147.505 19.885 101.474 60.3018 92.6194C79.4094 88.4334 100.032 92.1721 118.288 85.142C152.718 71.8837 164.425 27.0282 196.236 8.32221C226.882 -9.70229 268.9 3.29653 291.73 30.5748C314.56 57.8532 321.223 95.493 319.822 131.059C317.766 183.312 295.596 239.666 248.273 261.76C208.393 280.378 124.075 285.654 81.3054 275.31" fill="#9E9E9E" fill-opacity="0.07"/>
<path d="M258.371 271.995C252.684 271.995 247.125 270.309 242.397 267.15C237.668 263.99 233.982 259.5 231.806 254.246C229.63 248.992 229.06 243.21 230.17 237.633C231.279 232.055 234.017 226.931 238.039 222.91C242.06 218.889 247.183 216.15 252.761 215.041C258.339 213.931 264.12 214.501 269.374 216.677C274.628 218.853 279.119 222.539 282.278 227.267C285.438 231.996 287.124 237.555 287.124 243.242C287.115 250.865 284.083 258.173 278.693 263.564C273.303 268.954 265.994 271.986 258.371 271.995ZM258.371 220.484C253.87 220.483 249.47 221.818 245.727 224.319C241.984 226.82 239.067 230.374 237.344 234.533C235.622 238.691 235.171 243.267 236.049 247.682C236.927 252.097 239.095 256.152 242.278 259.335C245.461 262.518 249.516 264.686 253.931 265.564C258.346 266.442 262.922 265.991 267.08 264.269C271.239 262.546 274.793 259.629 277.294 255.886C279.795 252.143 281.129 247.743 281.129 243.242C281.123 237.208 278.724 231.422 274.457 227.155C270.19 222.889 264.405 220.488 258.371 220.482V220.484Z" fill="white"/>
<path d="M190.295 256.634C187.333 256.634 184.438 255.756 181.975 254.11C179.513 252.464 177.593 250.126 176.46 247.389C175.327 244.653 175.03 241.642 175.608 238.737C176.186 235.832 177.612 233.164 179.707 231.07C181.801 228.975 184.469 227.549 187.374 226.971C190.279 226.394 193.29 226.69 196.027 227.824C198.763 228.957 201.102 230.876 202.747 233.339C204.393 235.802 205.271 238.697 205.271 241.659C205.266 245.629 203.687 249.436 200.879 252.243C198.072 255.051 194.265 256.63 190.295 256.634ZM190.295 230.879C188.163 230.879 186.079 231.512 184.307 232.696C182.534 233.881 181.153 235.564 180.337 237.534C179.521 239.503 179.308 241.67 179.724 243.761C180.14 245.852 181.166 247.773 182.674 249.28C184.181 250.788 186.102 251.814 188.193 252.23C190.283 252.646 192.451 252.433 194.42 251.617C196.39 250.801 198.073 249.42 199.258 247.647C200.442 245.875 201.074 243.791 201.075 241.659C201.072 238.801 199.935 236.061 197.914 234.04C195.893 232.019 193.153 230.882 190.295 230.879Z" fill="#E8E8E8"/>
<path d="M182.876 64.7603C179.914 64.7606 177.018 63.8825 174.555 62.2371C172.092 60.5917 170.173 58.2529 169.039 55.5165C167.905 52.78 167.608 49.7689 168.186 46.8638C168.764 43.9587 170.19 41.2901 172.284 39.1956C174.378 37.101 177.047 35.6745 179.952 35.0965C182.857 34.5185 185.868 34.8149 188.605 35.9483C191.341 37.0816 193.68 39.001 195.326 41.4638C196.972 43.9265 197.85 46.8219 197.85 49.7839C197.846 53.7542 196.267 57.5607 193.459 60.3683C190.652 63.1759 186.846 64.7554 182.876 64.7603ZM182.876 39.0049C180.743 39.0046 178.659 39.6367 176.886 40.821C175.113 42.0054 173.732 43.6889 172.916 45.6586C172.1 47.6283 171.886 49.7958 172.302 51.887C172.718 53.9781 173.744 55.8989 175.252 57.4066C176.759 58.9142 178.68 59.941 180.771 60.3569C182.862 60.7729 185.03 60.5594 187 59.7435C188.969 58.9275 190.653 57.5458 191.837 55.773C193.022 54.0002 193.654 51.916 193.654 49.7839C193.651 46.9261 192.514 44.1863 190.494 42.1655C188.473 40.1447 185.733 39.008 182.876 39.0049Z" fill="white"/>
<path d="M41.7806 196.905C38.8186 196.905 35.9232 196.027 33.4604 194.381C30.9976 192.735 29.0782 190.397 27.9447 187.66C26.8112 184.924 26.5146 181.912 27.0925 179.007C27.6703 176.102 29.0966 173.434 31.191 171.339C33.2854 169.245 35.9539 167.819 38.8589 167.241C41.764 166.663 44.7751 166.96 47.5116 168.093C50.2481 169.227 52.587 171.146 54.2326 173.609C55.8781 176.072 56.7564 178.967 56.7564 181.929C56.752 185.899 55.1728 189.706 52.3652 192.514C49.5576 195.321 45.7511 196.9 41.7806 196.905ZM41.7806 171.149C39.6486 171.149 37.5644 171.782 35.7917 172.966C34.019 174.151 32.6374 175.834 31.8215 177.804C31.0056 179.774 30.7922 181.941 31.2081 184.032C31.624 186.123 32.6507 188.044 34.1582 189.551C35.6658 191.059 37.5865 192.086 39.6776 192.501C41.7686 192.917 43.936 192.704 45.9057 191.888C47.8755 191.072 49.559 189.691 50.7435 187.918C51.928 186.145 52.5602 184.061 52.5602 181.929C52.5573 179.071 51.4207 176.331 49.3998 174.31C47.3788 172.289 44.6386 171.152 41.7806 171.149Z" fill="white"/>
<path d="M262.109 159.612C259.147 159.612 256.252 158.734 253.789 157.088C251.326 155.443 249.407 153.104 248.273 150.367C247.139 147.631 246.843 144.62 247.421 141.715C247.998 138.81 249.425 136.141 251.519 134.047C253.613 131.952 256.282 130.526 259.187 129.948C262.092 129.37 265.103 129.667 267.84 130.8C270.576 131.934 272.915 133.853 274.561 136.316C276.206 138.779 277.085 141.674 277.085 144.636C277.08 148.606 275.501 152.413 272.693 155.22C269.886 158.028 266.08 159.607 262.109 159.612ZM262.109 133.856C259.977 133.856 257.893 134.488 256.12 135.673C254.348 136.857 252.966 138.541 252.15 140.51C251.334 142.48 251.12 144.648 251.536 146.739C251.952 148.83 252.979 150.751 254.486 152.258C255.994 153.766 257.914 154.792 260.005 155.208C262.097 155.624 264.264 155.411 266.234 154.595C268.203 153.779 269.887 152.398 271.072 150.625C272.256 148.852 272.888 146.768 272.888 144.636C272.885 141.778 271.748 139.039 269.727 137.018C267.707 134.998 264.967 133.861 262.109 133.858V133.856Z" fill="#E8E8E8"/>
<path d="M66.8395 77.3435L61.1386 79.4458C61.0443 79.4807 60.96 79.538 60.8928 79.6128C60.8257 79.6875 60.7777 79.7776 60.7531 79.875L58.8396 87.4457C58.8052 87.5785 58.7277 87.6961 58.6192 87.7801C58.5107 87.8641 58.3774 87.9096 58.2402 87.9096C58.103 87.9096 57.9697 87.8641 57.8612 87.7801C57.7527 87.6961 57.6751 87.5785 57.6407 87.4457L55.7182 79.8744C55.6934 79.777 55.6453 79.6872 55.578 79.6125C55.5108 79.5378 55.4264 79.4806 55.3322 79.4458L49.6312 77.3435C49.5125 77.2996 49.4101 77.2204 49.3377 77.1165C49.2654 77.0127 49.2266 76.8891 49.2266 76.7626C49.2266 76.636 49.2654 76.5125 49.3377 76.4086C49.4101 76.3047 49.5125 76.2255 49.6312 76.1817L55.6487 73.9637C55.743 73.9289 55.8274 73.8717 55.8947 73.7971C55.9619 73.7224 56.01 73.6325 56.0347 73.535L57.6389 67.2101C57.6733 67.0773 57.7508 66.9596 57.8593 66.8756C57.9679 66.7917 58.1012 66.7461 58.2384 66.7461C58.3756 66.7461 58.5089 66.7917 58.6174 66.8756C58.7259 66.9596 58.8034 67.0773 58.8378 67.2101L60.4348 73.5368C60.4593 73.6345 60.5073 73.7247 60.5745 73.7996C60.6418 73.8745 60.7264 73.9319 60.8209 73.9667L66.8377 76.1817C66.9565 76.2254 67.0591 76.3044 67.1316 76.4081C67.2041 76.5119 67.2431 76.6354 67.2433 76.7619C67.2435 76.8885 67.2049 77.0121 67.1327 77.1161C67.0605 77.2201 66.9582 77.2994 66.8395 77.3435Z" fill="#D67AEA" fill-opacity="0.5"/>
<path d="M78.124 41.6756L74.6399 42.8386C74.5839 42.8561 74.5331 42.8871 74.492 42.9289C74.4509 42.9708 74.4207 43.0221 74.4043 43.0784L73.2347 47.2657C73.2078 47.3414 73.1581 47.4069 73.0925 47.4532C73.0268 47.4995 72.9485 47.5244 72.8681 47.5244C72.7878 47.5244 72.7094 47.4995 72.6438 47.4532C72.5782 47.4069 72.5285 47.3414 72.5016 47.2657L71.3272 43.0772C71.31 43.0216 71.2796 42.971 71.2386 42.9298C71.1975 42.8885 71.1471 42.8579 71.0916 42.8404L67.6075 41.6774C67.5364 41.6589 67.4735 41.6172 67.4286 41.5591C67.3837 41.501 67.3594 41.4296 67.3594 41.3561C67.3594 41.2827 67.3837 41.2113 67.4286 41.1531C67.4735 41.095 67.5364 41.0534 67.6075 41.0348L71.2846 39.8095C71.3406 39.7918 71.3913 39.7607 71.4325 39.7189C71.4737 39.6771 71.504 39.6259 71.5208 39.5697L72.5016 36.0712C72.5285 35.9955 72.5782 35.93 72.6438 35.8837C72.7094 35.8374 72.7878 35.8125 72.8681 35.8125C72.9485 35.8125 73.0268 35.8374 73.0925 35.8837C73.1581 35.93 73.2078 35.9955 73.2347 36.0712L74.2106 39.5697C74.2275 39.6259 74.2578 39.6771 74.299 39.7189C74.3401 39.7607 74.3909 39.7918 74.4468 39.8095L78.124 41.0348C78.1943 41.054 78.2563 41.0957 78.3005 41.1536C78.3448 41.2115 78.3687 41.2824 78.3687 41.3552C78.3687 41.4281 78.3448 41.4989 78.3005 41.5568C78.2563 41.6147 78.1943 41.6565 78.124 41.6756Z" fill="#D67AEA" fill-opacity="0.5"/>
<path d="M42.8873 109.286L40.7969 109.984C40.7635 109.994 40.7331 110.012 40.7084 110.037C40.6837 110.062 40.6655 110.092 40.6555 110.126L39.9535 112.638C39.9372 112.684 39.9073 112.723 39.868 112.75C39.8286 112.778 39.7816 112.793 39.7335 112.793C39.6854 112.793 39.6384 112.778 39.599 112.75C39.5596 112.723 39.5298 112.684 39.5135 112.638L38.8091 110.125C38.799 110.092 38.7808 110.061 38.7561 110.037C38.7314 110.012 38.7011 109.993 38.6676 109.983L36.5773 109.285C36.5349 109.274 36.4975 109.249 36.4708 109.214C36.4441 109.179 36.4297 109.137 36.4297 109.093C36.4297 109.049 36.4441 109.006 36.4708 108.971C36.4975 108.936 36.5349 108.911 36.5773 108.9L38.7833 108.164C38.8168 108.154 38.8473 108.136 38.872 108.111C38.8968 108.086 38.9151 108.056 38.9254 108.022L39.5135 105.924C39.5298 105.879 39.5596 105.84 39.599 105.812C39.6384 105.784 39.6854 105.77 39.7335 105.77C39.7816 105.77 39.8286 105.784 39.868 105.812C39.9073 105.84 39.9372 105.879 39.9535 105.924L40.5392 108.022C40.5493 108.056 40.5675 108.086 40.5922 108.111C40.6168 108.136 40.6472 108.155 40.6806 108.165L42.8867 108.901C42.9294 108.912 42.9674 108.936 42.9945 108.971C43.0215 109.006 43.0363 109.049 43.0364 109.093C43.0364 109.137 43.0218 109.18 42.9948 109.215C42.9678 109.25 42.93 109.275 42.8873 109.286Z" fill="#D67AEA" fill-opacity="0.5"/>
<path d="M255.128 233.435L260.829 231.333C260.923 231.298 261.008 231.241 261.075 231.166C261.142 231.091 261.19 231.001 261.215 230.904L263.129 223.333C263.163 223.2 263.24 223.082 263.348 222.997C263.457 222.913 263.591 222.867 263.728 222.867C263.865 222.867 263.999 222.913 264.108 222.997C264.216 223.082 264.293 223.2 264.327 223.333L266.249 230.905C266.274 231.002 266.322 231.092 266.389 231.167C266.456 231.241 266.541 231.299 266.635 231.333L272.336 233.436C272.454 233.48 272.557 233.559 272.629 233.663C272.702 233.767 272.74 233.89 272.74 234.017C272.74 234.143 272.702 234.267 272.629 234.371C272.557 234.475 272.454 234.554 272.336 234.598L266.319 236.816C266.224 236.85 266.14 236.907 266.073 236.982C266.005 237.057 265.957 237.147 265.932 237.244L264.328 243.569C264.294 243.702 264.216 243.82 264.108 243.904C263.999 243.988 263.866 244.033 263.729 244.033C263.591 244.033 263.458 243.988 263.35 243.904C263.241 243.82 263.164 243.702 263.129 243.569L261.532 237.245C261.507 237.148 261.459 237.058 261.392 236.983C261.325 236.908 261.24 236.85 261.145 236.816L255.129 234.601C255.009 234.557 254.905 234.478 254.832 234.374C254.758 234.27 254.719 234.146 254.719 234.018C254.719 233.891 254.758 233.766 254.831 233.662C254.904 233.558 255.008 233.478 255.128 233.435Z" fill="#D67AEA" fill-opacity="0.5"/>
<path d="M53.8994 219.179L59.6003 217.077C59.6946 217.042 59.779 216.985 59.8463 216.91C59.9135 216.835 59.9616 216.745 59.9864 216.648L61.8999 209.077C61.9343 208.944 62.0118 208.827 62.1203 208.743C62.2288 208.659 62.3621 208.613 62.4993 208.613C62.6365 208.613 62.7699 208.659 62.8784 208.743C62.9869 208.827 63.0644 208.944 63.0988 209.077L65.0171 216.649C65.0418 216.746 65.0899 216.836 65.1572 216.911C65.2244 216.985 65.3089 217.042 65.4032 217.077L71.1047 219.179C71.2234 219.223 71.3259 219.303 71.3982 219.406C71.4706 219.51 71.5093 219.634 71.5093 219.76C71.5093 219.887 71.4706 220.01 71.3982 220.114C71.3259 220.218 71.2234 220.297 71.1047 220.341L65.0878 222.559C64.9935 222.594 64.9089 222.651 64.8417 222.726C64.7744 222.8 64.7264 222.89 64.7018 222.988L63.097 229.313C63.0626 229.446 62.9851 229.564 62.8766 229.648C62.7681 229.732 62.6347 229.777 62.4975 229.777C62.3603 229.777 62.227 229.732 62.1185 229.648C62.01 229.564 61.9325 229.446 61.8981 229.313L60.3011 222.989C60.2763 222.892 60.2281 222.802 60.1608 222.727C60.0934 222.652 60.0089 222.595 59.9144 222.56L53.8976 220.342C53.7785 220.298 53.6758 220.219 53.6033 220.115C53.5308 220.01 53.492 219.887 53.4922 219.76C53.4924 219.633 53.5315 219.509 53.6044 219.405C53.6772 219.301 53.7802 219.222 53.8994 219.179Z" fill="#D67AEA" fill-opacity="0.5"/>
<path d="M235.879 217.735L239.364 216.572C239.419 216.554 239.469 216.523 239.511 216.482C239.552 216.441 239.582 216.39 239.599 216.335L240.771 212.149C240.797 212.074 240.847 212.008 240.913 211.962C240.978 211.916 241.057 211.891 241.137 211.891C241.217 211.891 241.296 211.916 241.361 211.962C241.427 212.008 241.477 212.074 241.504 212.149L242.678 216.338C242.695 216.393 242.726 216.444 242.767 216.485C242.808 216.526 242.858 216.557 242.914 216.575L246.398 217.738C246.469 217.756 246.532 217.798 246.577 217.856C246.621 217.914 246.646 217.985 246.646 218.059C246.646 218.132 246.621 218.204 246.577 218.262C246.532 218.32 246.469 218.362 246.398 218.38L242.721 219.606C242.665 219.623 242.614 219.654 242.573 219.696C242.532 219.738 242.501 219.789 242.484 219.845L241.504 223.344C241.477 223.419 241.427 223.485 241.361 223.531C241.296 223.578 241.217 223.603 241.137 223.603C241.057 223.603 240.978 223.578 240.913 223.531C240.847 223.485 240.797 223.419 240.771 223.344L239.795 219.846C239.778 219.79 239.747 219.738 239.706 219.697C239.665 219.655 239.614 219.624 239.558 219.606L235.881 218.381C235.808 218.364 235.744 218.323 235.697 218.264C235.651 218.206 235.625 218.133 235.625 218.058C235.625 217.984 235.65 217.911 235.696 217.852C235.742 217.794 235.807 217.752 235.879 217.735Z" fill="#D67AEA" fill-opacity="0.5"/>
<path d="M154.538 30.6911L158.022 29.5282C158.078 29.5104 158.129 29.4793 158.17 29.4375C158.211 29.3957 158.241 29.3445 158.258 29.2884L159.428 25.1005C159.455 25.0248 159.504 24.9593 159.57 24.913C159.635 24.8667 159.714 24.8418 159.794 24.8418C159.875 24.8418 159.953 24.8667 160.019 24.913C160.084 24.9593 160.134 25.0248 160.161 25.1005L161.335 29.2884C161.352 29.3447 161.382 29.396 161.423 29.4378C161.464 29.4797 161.515 29.5107 161.571 29.5282L165.055 30.6911C165.126 30.7099 165.188 30.7516 165.233 30.8096C165.278 30.8677 165.302 30.9389 165.302 31.0122C165.302 31.0854 165.278 31.1566 165.233 31.2147C165.188 31.2727 165.126 31.3144 165.055 31.3332L161.378 32.5591C161.322 32.5768 161.271 32.6078 161.23 32.6496C161.189 32.6914 161.158 32.7427 161.141 32.7989L160.161 36.298C160.134 36.3737 160.084 36.4392 160.019 36.4855C159.953 36.5318 159.875 36.5567 159.794 36.5567C159.714 36.5567 159.635 36.5318 159.57 36.4855C159.504 36.4392 159.455 36.3737 159.428 36.298L158.452 32.8001C158.435 32.7439 158.405 32.6926 158.363 32.6508C158.322 32.609 158.271 32.578 158.215 32.5603L154.538 31.3344C154.467 31.316 154.404 31.2744 154.359 31.2162C154.314 31.158 154.289 31.0864 154.289 31.0128C154.289 30.9391 154.314 30.8675 154.359 30.8093C154.404 30.7511 154.467 30.7095 154.538 30.6911Z" fill="#D67AEA" fill-opacity="0.5"/>
<path d="M57.7368 162.915L61.2209 161.752C61.2768 161.735 61.3276 161.704 61.3687 161.662C61.4098 161.62 61.44 161.569 61.4565 161.512L62.626 157.325C62.6529 157.249 62.7026 157.184 62.7682 157.138C62.8339 157.091 62.9123 157.066 62.9926 157.066C63.0729 157.066 63.1513 157.091 63.2169 157.138C63.2826 157.184 63.3322 157.249 63.3592 157.325L64.5335 161.514C64.5503 161.57 64.5805 161.621 64.6216 161.663C64.6626 161.705 64.7133 161.736 64.7691 161.753L68.2532 162.916C68.3243 162.935 68.3872 162.977 68.4321 163.035C68.477 163.093 68.5013 163.164 68.5013 163.238C68.5013 163.311 68.477 163.383 68.4321 163.441C68.3872 163.499 68.3243 163.54 68.2532 163.559L64.5761 164.784C64.52 164.802 64.4691 164.833 64.4279 164.875C64.3867 164.916 64.3564 164.968 64.3399 165.024L63.3592 168.523C63.3322 168.598 63.2826 168.664 63.2169 168.71C63.1513 168.756 63.0729 168.781 62.9926 168.781C62.9123 168.781 62.8339 168.756 62.7682 168.71C62.7026 168.664 62.6529 168.598 62.626 168.523L61.6483 165.02C61.6315 164.964 61.6011 164.913 61.56 164.871C61.5188 164.829 61.468 164.798 61.4121 164.781L57.735 163.555C57.665 163.536 57.6033 163.494 57.5595 163.436C57.5156 163.378 57.492 163.307 57.4922 163.235C57.4924 163.162 57.5164 163.091 57.5606 163.034C57.6048 162.976 57.6667 162.934 57.7368 162.915Z" fill="#D67AEA" fill-opacity="0.5"/>
<path d="M271.118 203.882L273.209 203.184C273.242 203.174 273.272 203.155 273.297 203.131C273.322 203.106 273.34 203.075 273.35 203.042L274.052 200.53C274.068 200.484 274.098 200.445 274.137 200.418C274.177 200.39 274.223 200.375 274.272 200.375C274.32 200.375 274.367 200.39 274.406 200.418C274.445 200.445 274.475 200.484 274.492 200.53L275.196 203.043C275.206 203.076 275.224 203.107 275.249 203.131C275.274 203.156 275.304 203.174 275.337 203.185L277.428 203.883C277.471 203.894 277.508 203.918 277.535 203.953C277.562 203.988 277.577 204.031 277.577 204.075C277.577 204.119 277.562 204.162 277.535 204.197C277.508 204.232 277.471 204.257 277.428 204.268L275.222 205.004C275.188 205.014 275.158 205.032 275.133 205.057C275.109 205.082 275.09 205.112 275.08 205.146L274.492 207.244C274.475 207.289 274.445 207.328 274.406 207.356C274.367 207.384 274.32 207.398 274.272 207.398C274.223 207.398 274.177 207.384 274.137 207.356C274.098 207.328 274.068 207.289 274.052 207.244L273.466 205.146C273.456 205.112 273.438 205.081 273.413 205.057C273.388 205.032 273.358 205.013 273.324 205.003L271.118 204.267C271.076 204.256 271.038 204.232 271.011 204.197C270.984 204.162 270.969 204.119 270.969 204.075C270.969 204.031 270.983 203.988 271.01 203.953C271.037 203.918 271.075 203.893 271.118 203.882Z" fill="#D67AEA" fill-opacity="0.5"/>
<path d="M236.374 38.6964L239.858 37.5334C239.914 37.516 239.965 37.4849 240.006 37.4431C240.047 37.4013 240.078 37.3499 240.094 37.2937L241.264 33.1064C241.291 33.0307 241.34 32.9652 241.406 32.9189C241.471 32.8725 241.55 32.8477 241.63 32.8477C241.711 32.8477 241.789 32.8725 241.855 32.9189C241.92 32.9652 241.97 33.0307 241.997 33.1064L243.171 37.2949C243.188 37.351 243.218 37.4022 243.259 37.444C243.3 37.4858 243.351 37.5169 243.407 37.5346L246.891 38.6976C246.962 38.7162 247.025 38.7578 247.07 38.8159C247.115 38.8741 247.139 38.9455 247.139 39.0189C247.139 39.0924 247.115 39.1638 247.07 39.2219C247.025 39.28 246.962 39.3217 246.891 39.3402L243.214 40.5655C243.158 40.5829 243.107 40.6139 243.065 40.6558C243.024 40.6976 242.994 40.749 242.977 40.8053L241.997 44.299C241.97 44.3747 241.92 44.4402 241.855 44.4865C241.789 44.5329 241.711 44.5577 241.63 44.5577C241.55 44.5577 241.471 44.5329 241.406 44.4865C241.34 44.4402 241.291 44.3747 241.264 44.299L240.288 40.8005C240.271 40.7443 240.241 40.6931 240.199 40.6513C240.158 40.6095 240.107 40.5784 240.051 40.5607L236.374 39.3354C236.305 39.3157 236.244 39.2739 236.2 39.2162C236.156 39.1585 236.133 39.0882 236.133 39.0159C236.133 38.9436 236.156 38.8733 236.2 38.8157C236.244 38.758 236.305 38.7161 236.374 38.6964Z" fill="#D67AEA" fill-opacity="0.5"/>
<path d="M271.618 24.8415L273.709 24.1437C273.742 24.1334 273.773 24.1151 273.797 24.0903C273.822 24.0656 273.841 24.0351 273.851 24.0016L274.552 21.4887C274.568 21.4434 274.598 21.4042 274.638 21.3765C274.677 21.3488 274.724 21.334 274.772 21.334C274.82 21.334 274.867 21.3488 274.907 21.3765C274.946 21.4042 274.976 21.4434 274.992 21.4887L275.697 24.0016C275.707 24.035 275.725 24.0655 275.75 24.0902C275.774 24.115 275.805 24.1333 275.838 24.1437L277.928 24.8415C277.971 24.8525 278.009 24.8774 278.036 24.9123C278.063 24.9472 278.078 24.9901 278.078 25.0342C278.078 25.0784 278.063 25.1213 278.036 25.1561C278.009 25.191 277.971 25.2159 277.928 25.227L275.721 25.9625C275.688 25.9728 275.657 25.9911 275.633 26.0159C275.608 26.0407 275.59 26.0711 275.58 26.1046L274.991 28.2027C274.975 28.248 274.945 28.2872 274.905 28.3149C274.866 28.3425 274.819 28.3574 274.771 28.3574C274.723 28.3574 274.676 28.3425 274.637 28.3149C274.597 28.2872 274.567 28.248 274.551 28.2027L273.965 26.1046C273.955 26.0712 273.937 26.0408 273.912 26.016C273.888 25.9912 273.857 25.9729 273.824 25.9625L271.618 25.227C271.575 25.2159 271.537 25.1909 271.51 25.156C271.483 25.121 271.469 25.0781 271.469 25.034C271.469 24.9898 271.484 24.947 271.511 24.9121C271.538 24.8773 271.576 24.8524 271.618 24.8415Z" fill="#D67AEA" fill-opacity="0.5"/>
<path d="M286.928 137.773L289.019 137.075C289.052 137.065 289.082 137.046 289.107 137.022C289.132 136.997 289.15 136.966 289.16 136.933L289.861 134.42C289.878 134.375 289.908 134.336 289.947 134.308C289.986 134.28 290.033 134.266 290.081 134.266C290.13 134.266 290.177 134.28 290.216 134.308C290.255 134.336 290.285 134.375 290.301 134.42L291.006 136.933C291.016 136.966 291.034 136.997 291.059 137.022C291.083 137.046 291.114 137.065 291.147 137.075L293.238 137.773C293.281 137.785 293.318 137.81 293.345 137.844C293.371 137.879 293.386 137.922 293.386 137.966C293.386 138.01 293.371 138.052 293.345 138.087C293.318 138.122 293.281 138.147 293.238 138.159L291.029 138.892C290.995 138.903 290.965 138.921 290.94 138.946C290.915 138.971 290.897 139.001 290.887 139.035L290.298 141.133C290.282 141.178 290.252 141.218 290.213 141.245C290.174 141.273 290.127 141.288 290.078 141.288C290.03 141.288 289.983 141.273 289.944 141.245C289.905 141.218 289.875 141.178 289.858 141.133L289.273 139.035C289.263 139.001 289.245 138.971 289.22 138.946C289.195 138.921 289.165 138.903 289.131 138.892L286.925 138.157C286.883 138.145 286.847 138.12 286.821 138.085C286.795 138.05 286.781 138.008 286.781 137.964C286.782 137.921 286.796 137.878 286.823 137.844C286.849 137.809 286.886 137.785 286.928 137.773Z" fill="#D67AEA" fill-opacity="0.5"/>
<path d="M25.7492 241.031L27.8395 240.333C27.8729 240.323 27.9033 240.304 27.928 240.279C27.9526 240.255 27.9709 240.224 27.981 240.191L28.6824 237.678C28.6988 237.633 28.7288 237.593 28.7682 237.566C28.8076 237.538 28.8545 237.523 28.9027 237.523C28.9508 237.523 28.9978 237.538 29.0372 237.566C29.0766 237.593 29.1065 237.633 29.123 237.678L29.8273 240.191C29.8375 240.224 29.8557 240.255 29.8804 240.279C29.905 240.304 29.9354 240.323 29.9688 240.333L32.0592 241.031C32.1015 241.042 32.139 241.067 32.1656 241.102C32.1923 241.137 32.2068 241.179 32.2068 241.223C32.2068 241.267 32.1923 241.31 32.1656 241.345C32.139 241.38 32.1015 241.405 32.0592 241.416L29.8525 242.152C29.8192 242.162 29.7889 242.18 29.7642 242.205C29.7396 242.23 29.7213 242.26 29.7111 242.294L29.123 244.392C29.1067 244.437 29.0768 244.476 29.0374 244.504C28.9981 244.532 28.9511 244.547 28.903 244.547C28.8548 244.547 28.8079 244.532 28.7685 244.504C28.7291 244.476 28.6993 244.437 28.683 244.392L28.0973 242.294C28.087 242.26 28.0687 242.23 28.0439 242.205C28.0191 242.18 27.9887 242.162 27.9552 242.152L25.7492 241.416C25.7068 241.405 25.6694 241.38 25.6427 241.345C25.616 241.31 25.6016 241.267 25.6016 241.223C25.6016 241.179 25.616 241.137 25.6427 241.102C25.6694 241.067 25.7068 241.042 25.7492 241.031Z" fill="#D67AEA" fill-opacity="0.5"/>
<defs>
<linearGradient id="paint0_linear_2184_44" x1="61.8661" y1="150.933" x2="258.133" y2="148.267" gradientUnits="userSpaceOnUse">
<stop stop-color="#FC4E87"/>
<stop offset="1" stop-color="#D779E8"/>
</linearGradient>
</defs>
</svg>
