<svg width="242" height="228" viewBox="0 0 242 228" fill="none" xmlns="http://www.w3.org/2000/svg">
<path d="M189.486 16.7041C189.288 15.3812 188.031 14.5214 186.708 14.7198C185.385 14.9182 184.525 16.175 184.724 17.4978C184.922 18.8207 186.179 19.6805 187.502 19.4821C188.758 19.2175 189.684 18.027 189.486 16.7041Z" fill="#D964CB"/>
<path d="M28.7516 62.626C28.5532 61.3031 27.2965 60.4433 25.9736 60.6417C24.6508 60.8401 23.7909 62.0968 23.9894 63.4197C24.1878 64.7425 25.4445 65.6024 26.7674 65.404C28.0241 65.1394 28.9501 63.9488 28.7516 62.626Z" fill="#585556" fill-opacity="0.45"/>
<path d="M191.322 224.274C191.124 222.952 189.867 222.092 188.544 222.29C187.221 222.489 186.361 223.745 186.56 225.068C186.758 226.391 188.015 227.251 189.338 227.052C190.594 226.788 191.52 225.597 191.322 224.274Z" fill="#DDDDDD"/>
<path d="M24.6044 211.766H20.4374C19.3791 211.766 18.4531 210.906 18.4531 209.781V205.879C18.4531 204.821 19.313 203.895 20.4374 203.895H24.6044C25.6627 203.895 26.5887 204.754 26.5887 205.879V209.781C26.5226 210.906 25.6627 211.766 24.6044 211.766Z" fill="#D773E0" fill-opacity="0.5"/>
<path d="M234.933 175.945H230.766C229.707 175.945 228.781 175.085 228.781 173.961V170.058C228.781 169 229.641 168.074 230.766 168.074H234.933C235.991 168.074 236.917 168.934 236.917 170.058V173.961C236.851 175.085 235.991 175.945 234.933 175.945Z" fill="#E41E66" fill-opacity="0.5"/>
<path d="M205.82 60.6133H241.008" stroke="#818181" stroke-width="0.9676" stroke-miterlimit="10" stroke-linecap="round" stroke-linejoin="round"/>
<path d="M69.6044 7.80484H65.4374C64.3791 7.80484 63.4531 6.94498 63.4531 5.82056V1.98428C63.4531 0.925998 64.313 0 65.4374 0H69.6044C70.6627 0 71.5887 0.859855 71.5887 1.98428V5.8867C71.5887 6.94498 70.7288 7.80484 69.6044 7.80484Z" fill="#DD49A3" fill-opacity="0.5"/>
<path d="M1 132.258H25.1681" stroke="#818181" stroke-width="0.9676" stroke-miterlimit="10" stroke-linecap="round" stroke-linejoin="round"/>
<path d="M186.382 202.162L52.7365 203.957C51.0398 203.985 49.6797 202.625 49.6797 200.942V171.678C49.6797 169.981 51.0539 168.607 52.7365 168.593L186.382 167.695C187.981 167.681 189.285 169.014 189.285 170.654V199.147C189.285 200.788 187.981 202.134 186.382 202.162Z" fill="url(#paint0_linear_2184_111)"/>
<path d="M172.88 90.4853C172.88 119.862 149.519 143.671 120.395 143.686C90.9479 143.686 66.8438 119.399 66.8438 89.4196C66.8438 59.4401 90.9479 35.6444 120.395 36.2334C149.519 36.8223 172.88 61.1087 172.88 90.4853Z" fill="white"/>
<path d="M142.049 74.0202C142.049 86.1213 132.387 95.8387 120.427 95.7266C108.424 95.6144 98.6641 85.6446 98.6641 73.4593C98.6641 61.274 108.424 51.5566 120.427 51.7529C132.373 51.9633 142.049 61.919 142.049 74.0202Z" fill="url(#paint1_linear_2184_111)"/>
<path d="M120.396 143.669C133.268 143.669 145.005 139.014 154.091 131.302C150.992 115.302 137.138 103.131 120.396 103.005C103.555 102.879 89.4346 114.98 86.2656 131.147C95.5623 138.986 107.467 143.669 120.396 143.669Z" fill="url(#paint2_linear_2184_111)"/>
<path d="M138.795 189.711L65.8511 190.511C63.3692 190.539 61.3359 188.52 61.3359 186.038C61.3359 183.542 63.3692 181.494 65.8511 181.466L138.795 180.793C141.206 180.765 143.184 182.756 143.184 185.21C143.184 187.664 141.206 189.683 138.795 189.711Z" fill="white"/>
<path d="M120.396 144.974C105.798 144.974 92.0426 139.197 81.6662 128.694C71.2758 118.178 65.5547 104.225 65.5547 89.404C65.5547 74.4564 71.3599 60.5323 81.9046 50.1979C92.267 40.0459 105.939 34.6193 120.438 34.9137C134.852 35.2082 148.37 41.1536 158.508 51.6422C168.618 62.1168 174.199 75.9006 174.199 90.4697C174.199 105.039 168.618 118.724 158.508 129.003C148.342 139.295 134.824 144.974 120.396 144.974ZM119.316 37.5219C105.925 37.5219 93.3187 42.668 83.7275 52.0769C73.6876 61.9065 68.1628 75.1715 68.1628 89.418C68.1628 103.552 73.6175 116.859 83.5171 126.871C93.4028 136.869 106.5 142.38 120.396 142.38C120.396 142.38 120.396 142.38 120.41 142.38C148.622 142.38 171.591 119.103 171.591 90.4837C171.591 61.8644 148.622 38.1108 120.382 37.5359C120.017 37.5219 119.666 37.5219 119.316 37.5219Z" fill="url(#paint3_linear_2184_111)"/>
<defs>
<linearGradient id="paint0_linear_2184_111" x1="201.225" y1="181.396" x2="52.4351" y2="185.529" gradientUnits="userSpaceOnUse">
<stop stop-color="white"/>
<stop offset="1" stop-color="#D67AEA"/>
</linearGradient>
<linearGradient id="paint1_linear_2184_111" x1="97.698" y1="74.3938" x2="142.135" y2="73.7724" gradientUnits="userSpaceOnUse">
<stop stop-color="#FC4E87"/>
<stop offset="1" stop-color="#D779E8"/>
</linearGradient>
<linearGradient id="paint2_linear_2184_111" x1="84.7554" y1="123.942" x2="154.201" y2="122.3" gradientUnits="userSpaceOnUse">
<stop stop-color="#FC4E87"/>
<stop offset="1" stop-color="#D779E8"/>
</linearGradient>
<linearGradient id="paint3_linear_2184_111" x1="119.877" y1="34.9023" x2="119.877" y2="144.974" gradientUnits="userSpaceOnUse">
<stop stop-color="white"/>
<stop offset="1" stop-color="white" stop-opacity="0"/>
</linearGradient>
</defs>
</svg>
