<svg width="786" height="69" viewBox="0 0 786 69" fill="none" xmlns="http://www.w3.org/2000/svg">
<g clip-path="url(#clip0_2047_2)">
<path d="M65.0157 19.7662C62.4975 19.9538 62.4281 20.0327 63.5788 21.109C63.832 21.3454 64.2605 21.5749 63.8149 21.872C63.6373 21.9668 63.4182 22.0226 63.1891 22.0313C62.9601 22.0401 62.7326 22.0015 62.5392 21.9209C61.1994 21.5575 60.0519 20.9269 58.4878 20.8648C57.4269 20.823 56.4483 20.6667 55.9162 21.4863C55.8435 21.5979 55.5806 21.6572 55.4065 21.7416C54.4086 20.8488 53.4642 21.3928 52.4866 21.7688C52.3808 21.7893 52.2687 21.7923 52.1607 21.7774C52.0527 21.7626 51.9521 21.7304 51.868 21.6837C51.1874 20.5432 49.6659 20.9813 48.4308 20.8697C47.8828 20.8195 47.2258 20.763 47.1489 20.297C47.089 19.9078 47.745 19.942 48.0602 19.7704C50.0634 18.6837 52.2676 19.5075 54.3702 19.4586C55.3777 19.4356 56.3916 19.5611 57.4045 19.5981C57.8543 19.6149 58.3179 19.6072 58.5562 19.2675C59.0295 18.5916 59.4205 18.8574 59.7507 19.3289C59.8111 19.4522 59.9252 19.5613 60.0791 19.6429C60.233 19.7246 60.4199 19.7752 60.6171 19.7885C61.0327 19.8102 61.4495 19.7809 61.5894 19.4774C61.7593 19.1078 61.3607 18.9515 60.9174 18.826C60.3896 18.6767 59.5605 18.7206 59.6674 18.1284C59.7122 17.8808 60.1374 17.818 60.4804 17.8243C61.2368 17.839 62.3223 17.6269 62.5275 18.2631C62.7807 19.052 63.5382 19.1775 64.4581 19.218C65.7989 19.2766 66.7071 20.0466 68.0842 20.0731C69.3118 20.0975 70.5319 20.3682 71.736 19.9566C71.9215 19.9064 72.1236 19.8878 72.3231 19.9024C72.5227 19.9171 72.7133 19.9645 72.8771 20.0403C73.4925 20.2754 73.7318 20.3193 74.3953 19.8471C75.2874 19.2138 76.8602 19.6421 78.0354 19.8527C78.5704 19.9691 79.1528 19.9497 79.6668 19.7983C81.7726 19.2954 83.8977 19.8283 86.0196 19.8918C88.2932 19.9615 89.9727 21.1773 92.3093 21.1633C94.1384 21.1522 95.992 21.4333 97.678 20.7288C97.9237 20.6256 98.3469 20.4993 98.442 20.6332C99.1557 21.6446 101.027 21.1703 102.275 22.2208C101.962 20.8118 102.916 20.7693 104.151 20.8823C109.807 21.29 115.494 21.4914 121.184 21.4856C126.617 21.5881 132.025 22.0436 137.452 21.9739C140.229 21.939 142.98 22.2592 145.7 22.1566C150.665 21.9704 155.588 22.5891 160.544 22.2843C161.762 22.2096 163.021 22.4628 164.253 22.4321C169.797 22.2926 175.316 22.7035 180.85 22.7112C182.206 22.7112 183.552 22.6414 184.905 22.557C186.957 22.4301 189.006 22.1099 191.102 22.603C192.255 22.8297 193.487 22.816 194.627 22.564C197.026 22.1086 199.562 22.0573 201.999 22.4147C205.952 22.9546 209.831 22.1838 213.757 22.1783C216.409 22.1741 219.057 22.2585 221.698 22.3178C223.496 22.3593 225.297 22.2939 227.078 22.1224C228.485 22.0456 229.9 22.0742 231.296 22.2075C235.677 22.4314 240.082 22.1378 244.466 22.5737C245.817 22.5784 247.153 22.3928 248.383 22.0297C249.628 21.78 250.944 21.7215 252.229 21.8588C255.028 22.0907 257.865 22.0181 260.627 21.644C259.35 21.3516 258.022 21.1641 256.674 21.0859C254.143 21.1396 251.526 20.9555 249.107 21.3224C246.727 21.683 244.59 20.9736 242.314 21.1738C241.192 21.1812 240.086 21.3423 239.066 21.6467C238.615 21.8109 238.105 21.8913 237.59 21.879C237.074 21.8667 236.574 21.7622 236.144 21.577C235.317 21.2486 234.348 21.1081 233.386 21.1773C228.496 21.4905 223.6 21.1138 218.691 21.2603C214.704 21.4534 210.699 21.4254 206.72 21.1766C206.125 21.1285 205.311 21.1927 205.373 20.5998C205.435 20.0069 206.151 19.8611 206.97 19.852C211.971 19.7962 216.987 19.912 221.969 19.7564C226.079 19.6281 230.206 19.7565 234.289 19.4656C235.998 19.3421 237.529 19.0554 239.018 19.9008C239.51 20.1798 240.333 19.9008 240.992 19.8164C244.294 19.3979 247.597 19.0826 250.928 19.6916C252.05 19.7991 253.194 19.7363 254.272 19.5081C256.68 19.2291 259.13 19.3205 261.514 19.1189C265.868 18.7499 270.137 19.1392 274.449 19.248C277.262 19.2474 280.069 19.0974 282.845 18.7995C284.047 18.7011 285.258 19.1754 286.524 18.7297C285.844 18.284 284.067 18.925 284.354 17.7281C283.912 17.6995 283.471 17.6583 283.027 17.6457C279.013 17.5655 275.014 17.7595 270.969 17.5153C268.974 17.3953 266.667 17.0787 264.549 17.5697C264.442 17.5934 264.306 17.6311 264.22 17.6067C262.129 17.0145 260.02 17.8041 257.889 17.5593C256.56 17.44 255.208 17.5037 253.92 17.7462C252.787 17.9688 251.587 18.0062 250.427 17.855C247.598 17.4407 244.821 17.8278 242.007 17.9722C239.69 18.0908 237.322 17.7246 234.989 17.7811C230.793 17.8815 226.61 17.3305 222.44 17.636C217.395 18.0057 212.397 18.2359 207.363 17.5662C205.71 17.3465 204.009 17.772 202.335 17.915C200.718 17.9825 199.094 17.9531 197.485 17.8271C194.949 17.7441 192.357 17.2775 189.817 17.8752C189.29 18.0153 188.723 18.0834 188.154 18.0752C187.584 18.0671 187.023 17.9829 186.505 17.8278C185.812 17.5921 185.052 17.4507 184.273 17.4121C183.493 17.3735 182.71 17.4385 181.97 17.6032C179.147 18.1898 176.452 17.0452 173.636 17.3535C172.652 17.4609 171.606 17.2747 170.661 17.6409C170.543 17.6872 170.41 17.7155 170.273 17.7235C170.135 17.7314 169.997 17.7189 169.868 17.6869C168.471 16.9622 166.808 17.4009 165.291 17.2265C164.746 17.1209 164.167 17.1172 163.619 17.2158C163.072 17.3145 162.577 17.5115 162.193 17.7846C162.069 17.8777 161.917 17.9528 161.746 18.0051C161.575 18.0573 161.389 18.0855 161.2 18.0878C161.011 18.0901 160.824 18.0665 160.65 18.0184C160.476 17.9704 160.319 17.899 160.19 17.809C158.928 16.8569 157.306 16.9238 155.67 16.9468C149.528 17.0361 143.403 16.6971 137.272 16.6476C134.838 16.6674 132.405 16.5606 129.997 16.3281C129.11 16.3236 128.228 16.4098 127.382 16.5834C127.522 17.1282 128.787 16.8129 128.55 17.4281C128.487 17.5527 128.373 17.6639 128.222 17.7499C128.07 17.8358 127.885 17.8934 127.687 17.9164C126.951 18.0426 126.731 17.6527 126.405 17.3584C125.977 16.9411 125.375 16.6127 124.67 16.4121C123.965 16.2114 123.186 16.147 122.427 16.2263C118.722 16.3198 114.996 15.9745 111.276 15.8594C105.344 15.6767 99.41 15.5344 93.4771 15.3711C93.1384 15.3672 92.8011 15.3405 92.4706 15.2916C91.8584 15.1912 91.1586 15.0635 91.228 14.5481C91.305 13.9838 92.0828 14.0877 92.6843 14.041C97.2624 13.6838 101.783 14.4727 106.341 14.3458C110.969 14.2167 115.513 14.8794 120.151 14.8054C123.438 14.7524 126.764 15.4402 130.037 15.33C132.633 15.2435 135.174 16.0275 137.805 15.33C139.504 14.8815 141.387 15.2275 143.171 15.3997C145.305 15.5474 147.449 15.6188 149.595 15.6139C154.323 15.7234 159.062 15.7799 163.779 15.7457C167.236 15.7206 170.653 16.0247 174.054 15.9619C176.91 15.9103 179.777 15.9124 182.636 15.835C182.97 15.8266 183.536 15.805 183.505 15.6076C183.327 14.4748 184.719 14.7524 185.554 14.6311C188.369 14.2251 191.169 14.6136 193.97 14.7852C194.643 14.8264 195.314 14.8836 195.984 14.9408C196.461 14.9819 197.179 14.8961 197.141 15.3635C197.1 15.8664 196.361 15.8287 195.815 15.7931C194.747 15.7234 193.691 15.6076 192.631 15.5079C192.467 15.4664 192.289 15.4563 192.117 15.4788C191.945 15.5013 191.787 15.5554 191.66 15.6348C193.241 16.0874 194.973 16.2673 196.69 16.1573C199.105 15.837 201.573 15.7272 204.031 15.8308C204.785 15.8727 205.634 15.9578 205.82 15.18C205.927 14.7197 206.646 14.7364 207.209 14.7336C209.847 14.721 212.473 14.5244 215.127 14.6506C216.471 14.5946 217.808 14.4781 219.127 14.3018C219.88 14.2656 221.125 14.0179 221.17 14.8061C221.207 15.4639 220.054 15.3642 219.282 15.4011C219.181 15.4056 219.084 15.4273 219 15.4641C218.916 15.5008 218.849 15.5512 218.804 15.6104C223.656 15.4513 228.486 15.7227 233.461 15.7234C233.112 15.4346 232.227 15.3495 232.56 14.8501C232.881 14.366 233.572 14.3214 234.27 14.2879C238.25 14.0989 242.238 14.0549 246.228 14.0612C247.308 14.1601 248.408 14.0703 249.417 13.801C248.277 13.4885 247.011 13.7131 245.816 13.5164C244.33 13.3301 242.803 13.3317 241.318 13.5213C237.046 13.9748 232.699 14.0466 228.398 13.7347C224.96 13.357 221.453 13.337 218.006 13.6755C215.045 14.0556 212.612 13.4146 210.125 12.6292C209.622 12.4701 209.069 12.1807 208.564 12.475C207.882 12.8726 208.809 12.9849 209.006 13.229C209.203 13.4732 209.128 13.6664 208.744 13.7668C208.301 13.8833 207.748 13.9126 207.523 13.6141C206.255 11.94 203.83 11.9875 201.527 11.8668C201.113 11.7958 200.673 11.8232 200.287 11.9441C199.901 12.0649 199.593 12.2714 199.418 12.5266C199.039 13.0847 198.21 12.9626 197.482 12.9019C195.986 12.777 194.501 12.4946 192.98 12.874C192.736 12.9315 192.47 12.9354 192.223 12.885C191.975 12.8346 191.76 12.7328 191.609 12.595C191.496 12.5102 191.432 12.4027 191.427 12.2905C191.421 12.1783 191.475 12.0684 191.579 11.9791C191.929 11.6519 192.444 11.6952 192.961 11.7378C193.471 11.8587 194.034 11.8475 194.532 11.7064C194.01 11.3576 193.357 11.479 192.796 11.4071C192.394 11.3562 191.978 11.2899 191.929 10.9768C191.872 10.6175 192.336 10.5847 192.722 10.5394C193.109 10.4941 193.577 10.3629 193.886 10.4501C195.689 10.9509 197.633 9.99742 199.419 10.7096C199.607 10.7485 199.805 10.7623 200.001 10.7504C200.197 10.7384 200.387 10.7008 200.56 10.6399C201.032 10.5004 201.855 10.4494 201.747 10.0037C201.66 9.64518 200.902 9.76167 200.434 9.66821C197.818 9.25937 195.094 9.2372 192.463 9.60332C189.81 9.85653 187.381 9.49033 184.858 9.34874C184.803 9.34066 184.747 9.3346 184.691 9.3306C183.008 9.36966 181.486 9.8698 179.602 9.19111C178.193 8.68471 176.043 9.14297 174.28 8.94976C171.667 8.69497 169.018 8.64811 166.388 8.81025C162.615 9.00346 158.929 8.41825 155.155 8.70075C152.461 8.78512 149.762 8.70501 147.091 8.46149C146.475 8.39976 145.845 8.43908 145.258 8.57588C145.334 8.63447 145.377 8.70354 145.445 8.71539C146.199 8.8549 147.556 8.50614 147.576 9.20854C147.597 9.95768 146.219 9.54754 145.491 9.69333C144.055 9.9828 142.591 9.60822 141.124 9.61729C139.997 9.62426 139.983 10.0316 139.67 10.4801C139.218 11.1246 140.097 10.9984 140.472 11.1365C140.93 11.3067 141.444 11.4392 141.265 11.8619C141.096 12.2609 140.535 12.3258 140.026 12.2741C137.062 11.97 134.058 11.9903 131.089 11.7998C128.585 11.6394 126.092 11.765 123.595 11.6771C118.842 11.5097 114.124 11.1191 109.377 10.9433C108.563 10.9133 107.78 10.734 107.668 10.0811C107.598 9.671 107.194 9.53776 106.672 9.43871C106.039 9.31944 105.332 9.10601 105.828 8.61077C106.241 8.19714 106.955 7.83581 107.838 8.23619C108.112 8.36104 108.521 8.52495 108.548 8.69236C108.78 10.153 110.578 9.85166 111.939 9.98767C112.84 10.0648 113.751 10.0669 114.653 9.99395C113.059 9.86617 111.549 9.4561 110.286 8.80816C109.997 8.64703 109.466 8.53753 109.67 8.23759C109.721 8.15961 109.798 8.08996 109.895 8.03369C109.992 7.97742 110.107 7.93593 110.232 7.91218C110.356 7.88843 110.487 7.88302 110.616 7.89635C110.744 7.90968 110.866 7.94141 110.973 7.98926C111.905 8.56611 112.79 8.21039 113.767 8.14761C116.134 8.02108 118.517 8.0869 120.859 8.3436C121.981 8.45381 122.069 9.14925 122.445 9.65286C122.953 10.335 123.519 10.6845 124.322 9.86211C124.79 9.3857 125.436 9.44359 126.102 9.42337C128.354 9.35361 130.626 9.55382 132.857 9.2211C133.304 9.189 133.739 9.10415 134.14 8.97068C134.3 8.86512 134.495 8.78506 134.71 8.73672C134.926 8.68838 135.155 8.67304 135.381 8.69193C135.606 8.71082 135.822 8.76341 136.012 8.84562C136.202 8.92783 136.36 9.03746 136.474 9.16599C136.808 9.445 137.36 9.44499 137.863 9.50706C138.005 9.17574 137.244 9.20156 137.393 8.99718C138.48 7.50658 136.308 8.10994 135.897 8.16992C132.573 8.65051 129.403 8.13853 126.141 7.86859C124.244 7.71165 122.188 8.04228 120.174 7.88534C118.496 7.75421 116.797 7.73187 115.11 7.64608C114.469 7.61329 113.546 7.70678 113.563 7.08041C113.58 6.47775 114.433 6.69397 115.018 6.66189C119.544 6.42682 124.024 6.82301 128.526 6.98623C131.253 7.08458 134.012 7.4166 136.781 7.01902C137.842 6.90734 138.923 6.8909 139.991 6.97018C149.855 7.36917 159.73 7.06714 169.597 7.2199C172.017 7.25756 174.431 7.48356 176.851 7.52053C178.873 7.55052 180.899 7.44242 182.922 7.37476C187.237 7.1919 191.565 7.18303 195.882 7.34824C196.863 7.33968 197.841 7.28092 198.808 7.17247C198.614 7.03513 198.359 6.94187 198.078 6.90635C197.797 6.87082 197.506 6.89492 197.248 6.97508C196.552 7.14794 195.78 7.13491 195.099 6.93881C194.75 6.82831 194.371 6.7644 193.985 6.75087C193.598 6.73733 193.211 6.77443 192.846 6.85998C190.984 7.109 189.238 6.38915 187.367 6.44147C187.28 6.4365 187.196 6.42018 187.12 6.39349C187.044 6.36679 186.977 6.33027 186.922 6.28614C186.868 6.24201 186.828 6.19117 186.805 6.1367C186.782 6.08224 186.776 6.02528 186.787 5.96924C186.795 5.89453 186.825 5.82158 186.877 5.75482C186.929 5.68806 187.001 5.62889 187.089 5.58093C187.177 5.53297 187.28 5.49722 187.389 5.47584C187.499 5.45446 187.615 5.4479 187.729 5.45657C188.968 5.39632 190.213 5.39957 191.452 5.46632C193.81 5.64165 196.186 5.68831 198.556 5.60583C200.435 5.56538 202.262 5.81509 204.121 5.8674C204.655 5.88136 205.442 5.89253 205.297 6.41916C205.151 6.94579 204.418 7.03925 203.681 6.92974C203.469 6.88201 203.27 6.81126 203.093 6.72047C202.863 6.62282 202.65 6.45123 202.346 6.58864C202.283 6.62248 202.233 6.6652 202.199 6.71355C202.166 6.7619 202.15 6.8146 202.152 6.86765C202.211 7.15781 202.607 7.18781 202.929 7.17805C204.62 7.12364 206.278 7.45008 207.992 7.2771C210.572 7.11385 213.167 7.08587 215.754 7.1934C216.111 7.1934 216.531 7.36568 216.831 7.08388C216.663 6.7393 216.327 6.73513 215.896 6.85511C215.466 6.97508 215.074 6.97368 215.061 6.58726C215.049 6.26919 215.274 5.93367 215.809 5.97552C216.852 6.05783 218.077 5.92251 218.856 6.46867C219.197 6.71711 219.627 6.9069 220.107 7.02125C220.587 7.1356 221.103 7.171 221.609 7.12434C223.578 6.95205 225.553 7.04414 227.583 6.94509C226.583 6.51438 225.363 6.35708 224.187 6.50703C223.601 6.52446 222.731 6.50704 222.779 5.96716C222.827 5.42727 223.651 5.49284 224.261 5.55841C225.32 5.67062 226.396 5.70198 227.466 5.65188C228.289 5.61561 229.309 5.57095 228.998 6.49796C228.903 6.77697 229.241 6.91648 229.598 6.91648C232.009 6.91648 234.39 7.40057 237.196 7.1104C236.331 6.80749 235.384 6.61792 234.407 6.55237C234.003 6.50633 233.598 6.43868 233.553 6.11712C233.54 6.04238 233.551 5.96671 233.587 5.8951C233.622 5.82349 233.68 5.75754 233.757 5.7016C233.834 5.64567 233.928 5.60102 234.033 5.57056C234.139 5.54011 234.253 5.52456 234.368 5.52493C235.205 5.51825 236.041 5.47162 236.868 5.38541C235.703 5.00218 234.373 4.89068 233.097 5.06944C229.999 5.39448 226.893 5.17616 223.796 5.20895C220.526 5.24173 217.239 5.09735 213.983 5.11618C210.608 5.13501 207.22 5.23615 203.833 5.20895C198.428 5.1664 193.023 5.01294 187.621 5.06944C185.603 5.09036 183.433 4.89297 181.531 5.65954C181.323 5.72096 181.094 5.74629 180.867 5.73309C180.64 5.71989 180.422 5.66861 180.234 5.58421C179.158 5.23717 177.945 5.11352 176.758 5.22987C174.416 5.50888 172.192 5.02062 169.91 4.95087C169.694 4.92537 169.471 4.94137 169.269 4.99691C167.109 6.00274 164.849 5.47609 162.657 5.12942C161.583 4.95922 160.655 5.24453 159.65 5.24871C157.915 5.25569 156.173 4.9697 154.433 5.3352C153.703 5.48795 152.403 5.02411 152.811 6.15688C152.877 6.34033 152.4 6.49658 152.025 6.44915C151.527 6.38707 151.09 6.18198 151.343 5.84229C151.763 5.28009 151.318 5.24244 150.657 5.18594C149.114 5.05271 147.615 4.67186 146.02 5.14617C145.446 5.31706 144.923 5.25708 144.981 5.86532C145.026 6.33545 144.203 6.32289 143.656 6.31522C138.869 6.25104 134.076 6.295 129.302 5.99785C128.35 5.91981 127.39 5.88507 126.431 5.89391C125.382 5.9239 124.508 5.8695 124.326 4.96552C123.489 5.79836 119.592 6.29081 118.678 5.71535C117.716 5.10781 119.186 5.01783 119.366 4.65582C119.291 4.5756 119.259 4.49121 119.177 4.46121C118.58 4.2401 117.348 4.38029 117.483 3.7867C117.638 3.10173 118.805 3.41492 119.495 3.43793C125.867 3.64161 132.245 3.53908 138.604 3.38423C142.675 3.28518 146.724 3.7016 150.766 3.4198C152.949 3.25128 155.157 3.26699 157.334 3.46655C161.185 3.84879 165.065 3.34866 168.901 3.80762C170.127 3.94242 171.38 3.93296 172.6 3.77972C175.799 3.39189 178.966 3.87249 182.127 3.81948C194.948 3.60325 207.761 3.66812 220.578 3.67439C226.948 3.67439 233.318 3.87249 239.687 3.86691C248.487 3.85853 257.283 3.62975 266.087 3.64439C271.759 3.65416 277.433 3.50909 283.105 3.35145C286.411 3.25938 289.729 3.33052 293.042 3.23357C299.861 3.03408 306.687 2.89946 313.511 2.77739C320.501 2.65323 327.492 2.58626 334.482 2.47536C341.919 2.35678 349.361 2.2933 356.791 2.05684C360.887 1.9257 364.987 1.83503 369.078 1.67809C369.19 1.66744 369.304 1.66581 369.417 1.67321C374.224 2.29052 379.078 1.70808 383.892 1.72063C389.961 1.73737 396.072 1.75552 402.162 1.56789C405.329 1.47023 408.573 1.51836 411.778 1.56789C415.04 1.6202 418.307 1.62579 421.578 1.55673C424.551 1.49396 427.541 1.57416 430.525 1.57067C433.337 1.56718 436.149 1.57904 438.96 1.51277C439.922 1.48975 440.883 1.45418 441.837 1.47371C457.359 1.78201 472.885 1.63834 488.408 1.65926C493.087 1.66554 497.758 1.82178 502.424 1.82526C507.659 1.82945 512.894 2.00523 518.129 1.91036C525.095 1.78411 532.063 1.85806 539.034 1.94734C544.682 2.01709 550.347 1.61253 555.992 1.71297C562.134 1.82249 568.279 1.69623 574.412 1.73389C581.227 1.77575 588.069 1.82249 594.893 1.63764C602.205 1.43955 609.515 1.68228 616.824 1.63764C624.724 1.59021 632.583 2.07847 640.463 2.17751C644.914 2.23331 649.357 2.33935 653.792 2.4956C656.669 2.59534 659.542 2.87434 662.397 2.89108C668.38 2.92666 674.28 3.62348 680.233 3.63046C686.952 3.63813 693.649 3.93458 700.347 4.13686C707.719 4.36007 715.106 4.33914 722.484 4.6593C727.633 4.88251 732.848 4.75137 738.036 4.78764C738.898 4.84599 739.77 4.78176 740.591 4.59934C741.411 4.41693 742.162 4.12065 742.79 3.7309C743.544 3.03594 744.138 2.27264 744.552 1.46535C744.897 1.01669 745.43 0.640996 746.089 0.381767C746.747 0.122538 747.505 -0.00963228 748.274 0.000549316C749.576 0.135868 749.883 0.837575 750.228 1.59718C750.596 2.40979 751.045 3.0271 749.8 3.75043C749.137 4.13476 749.822 4.63629 750.671 4.75556C752.221 4.97701 753.814 5.03891 755.393 4.93901C758.933 4.70883 762.465 4.9676 766.001 4.97109C771.512 4.97597 776.898 4.6865 781.787 2.79134C783.283 2.2103 784.863 1.80504 786.495 2.64416C786.758 2.77948 787.125 2.89875 787.236 3.08011C787.809 4.32053 789.07 5.37657 790.774 6.04108C790.819 6.05573 790.841 6.09899 790.872 6.12968C791.639 6.883 790.196 7.2206 790.148 7.78001C790.105 8.28362 791.21 8.96579 789.079 9.01741C789.582 9.22998 790.007 9.51258 790.323 9.84495C790.638 10.1773 790.838 10.5512 790.906 10.9398C791.028 11.2637 790.991 11.6046 790.799 11.9138C790.607 12.223 790.271 12.4848 789.838 12.662C788.945 13.0337 788.946 13.4488 789.638 13.9217C791.004 14.8557 791.609 15.8678 790.565 17.1198C790.476 17.297 790.445 17.4845 790.474 17.6701C790.503 17.8557 790.591 18.0351 790.734 18.1968C791.041 18.7553 791.041 19.3661 790.734 19.9246C790.576 20.1892 790.536 20.4778 790.621 20.7566C790.705 21.0353 790.909 21.2926 791.209 21.4982C791.51 21.7039 791.893 21.8493 792.316 21.9175C792.738 21.9857 793.182 21.9738 793.594 21.8832C793.933 21.8078 794.292 21.7786 794.649 21.7974C795.005 21.8162 795.352 21.8826 795.668 21.9925C795.984 22.1024 796.262 22.2535 796.484 22.4364C796.707 22.6193 796.87 22.8301 796.963 23.0557C798.056 25.2348 798.622 27.4445 796.306 29.4841C795.558 30.1412 795.479 30.6064 796.661 31.1058C798.716 31.975 799.03 33.3784 798.946 34.8208C798.839 35.7386 799.168 36.6556 799.89 37.4463C800.723 38.2286 801.077 39.1862 800.882 40.1304C800.687 41.0747 799.957 41.9369 798.837 42.5473C797.786 43.1855 797.83 43.4701 799.051 43.9632C800.974 44.7452 802.211 45.8305 801.761 47.4606C801.724 47.8647 801.78 48.2701 801.929 48.6631C802.015 48.898 802.023 49.1421 801.953 49.3792C801.884 49.6164 801.738 49.8411 801.525 50.0386C799.43 51.7064 797.528 53.4272 794.665 54.6981C791.227 56.2357 787.579 57.5627 783.767 58.6621C781.007 59.5159 778.021 60.0133 774.972 60.1269C774.117 60.145 773.395 60.1736 773.425 60.9284C773.429 60.9854 773.409 61.0422 773.366 61.0921C773.323 61.142 773.26 61.183 773.183 61.2105C773.106 61.238 773.019 61.2508 772.932 61.2476C772.844 61.2443 772.76 61.2251 772.689 61.192C770.828 60.1151 768.736 60.7847 766.759 60.8572C763.734 60.9956 760.722 61.2375 757.735 61.5819C753.408 62.0416 749.033 62.1874 744.701 62.6575C740.689 63.0569 736.64 63.2748 732.583 63.3097C730.455 63.2548 728.324 63.3371 726.221 63.5552C724.287 63.8342 722.188 63.6166 720.178 63.6027C713.362 63.5552 706.546 63.6243 699.733 63.6027C693.811 63.5824 687.873 63.655 681.951 63.6417C674.584 63.6243 667.212 63.6013 659.853 63.4039C654.606 63.2644 649.383 63.2372 644.138 63.4039C641.62 63.4848 639.065 63.173 636.552 63.2972C632.219 63.5113 627.887 63.3271 623.554 63.4422C620.64 63.5196 617.695 63.5566 614.793 63.6654C611.334 63.7959 607.871 63.5699 604.392 63.9124C602.387 64.0784 600.363 64.1365 598.343 64.086C593.669 64.0309 589.008 64.2737 584.347 64.4746C581.025 64.6141 577.699 64.5757 574.373 64.7431C565.158 65.2077 555.899 65.2049 546.693 65.7936C545.243 65.8863 543.785 65.5292 542.32 65.8368C542.211 65.8642 542.094 65.8735 541.979 65.8637C541.863 65.854 541.753 65.8256 541.659 65.7811C541.565 65.7366 541.489 65.6775 541.438 65.609C541.388 65.5405 541.364 65.4649 541.37 65.389C541.358 65.314 541.371 65.2381 541.408 65.1667C541.445 65.0952 541.506 65.03 541.586 64.9754C541.666 64.9209 541.763 64.8784 541.87 64.8509C541.978 64.8235 542.094 64.8116 542.209 64.8163C543.875 64.8352 545.43 64.3281 547.165 64.5213C549.302 64.7557 551.427 64.3288 553.555 64.1851C555.01 64.0466 556.488 64.0466 557.942 64.1851C559.912 64.3929 561.93 64.2438 563.779 63.754C560.806 63.468 558.089 63.8886 555.355 63.8984C549.495 63.9193 543.627 63.9465 537.78 64.1774C532.915 64.3699 528.043 64.3246 523.17 64.6029C519.6 64.897 515.981 64.8077 512.456 64.3385C510.204 63.9814 507.867 64.4376 505.559 64.4299C502.366 64.4195 499.171 64.5255 495.978 64.5869C495.53 64.5959 494.859 64.5213 494.672 64.6782C493.156 65.9519 491.165 65.2544 489.372 65.2586C488.245 65.2256 487.115 65.2489 485.994 65.3283C484.83 65.429 483.646 65.3406 482.547 65.0709C480.912 64.7222 479.11 64.9977 477.39 65.0898C474.771 65.3342 472.116 65.3731 469.483 65.2056C467.406 64.9963 465.274 65.3576 463.139 65.3611C459.532 65.3667 455.929 65.4755 452.318 65.329C449.317 65.2077 446.354 65.6276 443.359 65.6485C441.102 65.6638 438.833 65.7971 436.662 65.23C436.511 65.1821 436.343 65.1607 436.175 65.1679C430.853 65.7705 425.496 65.599 420.137 65.5543C418.596 65.5418 417.029 65.6736 415.472 65.7252C409.792 65.9128 404.103 65.8752 398.423 65.9889C394.505 66.067 390.583 66.3502 386.629 66.1737C383.369 66.0994 380.105 66.1501 376.854 66.3258C373.089 66.4485 369.32 66.316 365.55 66.5427C358.126 66.9898 350.66 66.6292 343.22 66.9445C337.111 67.204 330.982 67.2974 324.859 67.3735C317.998 67.4579 311.142 67.6643 304.277 67.6901C296.349 67.7208 288.42 67.8959 280.496 68.1086C277.34 68.193 274.193 68.0752 271.048 68.1205C266.487 68.1854 261.931 68.3507 257.373 68.4755C252.311 68.615 247.234 68.5307 242.163 68.5404C235.955 68.5523 229.742 68.4497 223.543 68.6102C219.502 68.7148 215.453 68.7678 211.414 68.9506C209.325 69.0892 207.215 68.9354 205.225 68.4993C204.646 68.3597 203.921 68.2091 204.059 67.6992C204.21 67.137 204.989 67.2305 205.575 67.3176C208.258 67.7152 210.811 66.9291 213.432 66.9612C215.954 66.8737 218.482 66.9315 220.988 67.1342C222.488 67.2966 224.019 67.2954 225.518 67.1307C228.403 66.8831 231.288 66.5804 234.217 67.0916C235.514 67.3183 236.793 66.7792 238.179 66.8008C241.848 66.858 245.505 66.2205 249.209 66.8447C250.149 67.0031 251.296 66.6571 252.343 66.5274C255.301 66.1605 258.253 66.6222 261.21 66.5455C264.48 66.4604 267.743 66.127 270.986 66.1068C274.957 66.0816 278.97 65.562 282.928 66.2393C283.241 66.316 283.579 66.3416 283.911 66.3139C286.5 65.8832 289.191 65.7814 291.838 66.014C292.339 66.0783 292.854 66.0807 293.356 66.021C295.267 65.6879 297.268 65.6402 299.212 65.8815C301.707 66.1605 304.149 65.8117 306.603 65.6464C311.162 65.3367 315.727 65.7573 320.278 65.5641C322.736 65.3494 325.214 65.2542 327.693 65.2795C332.56 65.5522 337.309 64.7173 342.178 64.907C347.449 65.1128 352.748 64.7389 358.034 64.628C361.675 64.552 365.341 64.5583 368.996 64.5248C378.062 64.4376 387.134 64.4808 396.194 64.2765C399.399 64.2067 402.624 64.2255 405.81 64.243C409.032 64.2597 412.147 64.3316 415.29 63.731C416.52 63.6312 417.768 63.6808 418.971 63.8775C421.836 63.9796 424.708 63.9095 427.553 63.6682C429.386 63.5838 431.059 64.1167 432.911 63.9577C436.071 63.6857 439.335 64.2109 442.455 63.4729C442.731 63.4303 443.017 63.4273 443.295 63.4638C447.718 63.7833 452.186 63.6487 456.584 63.8489C460.617 64.0323 464.525 63.5587 468.493 63.671C470.582 63.7576 472.679 63.6453 474.719 63.3376C475.319 63.2318 475.943 63.1964 476.563 63.233C481.77 63.5718 487.014 63.5989 492.229 63.3139C497.219 63.0949 502.217 63.1995 507.201 62.9289C510.687 62.6928 514.203 62.7361 517.672 63.0579C522.447 63.5734 526.953 62.7865 531.57 62.4796C535.131 62.174 538.722 62.0428 542.312 62.0869C544.449 62.1567 546.6 62.0869 548.743 62.0451C549.48 62.0683 550.207 61.929 550.807 61.6496C549.904 61.4539 548.943 61.399 548.001 61.4892C542.837 61.7626 537.637 61.381 532.502 61.7166C526.698 62.096 520.887 61.8658 515.087 62.0053C509.935 62.1288 504.754 62.1672 499.583 62.1448C496.784 62.133 493.98 62.3541 491.215 61.9223C489.933 61.7201 488.769 62.142 487.602 62.2913C484.934 62.5489 482.22 62.5128 479.571 62.1846C478.302 62.0038 476.984 62.0277 475.732 62.2543C474.599 62.487 473.399 62.5446 472.226 62.4224C469.699 62.3315 467.165 62.3993 464.659 62.6247C463.723 62.6645 462.911 62.4371 461.998 62.472C455.95 62.7015 449.889 62.638 443.835 62.7224C437.691 62.8082 431.539 62.7573 425.389 62.9072C420.124 63.0363 414.812 62.9072 409.519 62.7893C409.15 62.8128 408.778 62.7867 408.425 62.7124C408.073 62.6381 407.747 62.5174 407.469 62.3576C406.216 61.2415 404.355 61.3483 402.723 61.3811C400.422 61.4306 398.112 61.4124 395.383 61.4801C396.579 61.9538 398.009 62.1089 399.376 61.9133C400.805 61.6839 402.281 61.6067 403.748 61.6845C404.462 61.7235 405.21 61.9167 405.243 62.4148C405.273 62.9386 404.406 62.8096 403.916 62.8459C401.792 63.0021 399.662 63.2009 397.531 63.219C391.769 63.2686 385.992 63.0795 380.245 63.2678C371.751 63.5468 363.235 63.2399 354.754 63.7784C353.118 63.8307 351.478 63.781 349.856 63.6299C348.904 63.5415 347.935 63.5692 346.998 63.7115C345.247 64.0016 343.416 64.0137 341.656 63.747C340.879 63.6214 340.059 63.6741 339.333 63.8963C338.714 64.0869 338.019 64.1474 337.344 64.0693C334.384 63.8634 331.397 63.8852 328.444 64.1342C326.636 64.2555 324.869 63.9856 323.052 64.1105C316.559 64.5623 310.027 64.7255 303.5 64.5987C296.3 64.4522 289.108 64.529 281.918 64.6329C278.551 64.6817 275.175 64.6078 271.805 64.741C271.016 64.7248 270.234 64.6392 269.48 64.4864C269.38 64.4795 269.283 64.4593 269.195 64.4271C269.108 64.3949 269.031 64.3513 268.97 64.2991C268.909 64.2468 268.865 64.187 268.841 64.1232C268.817 64.0595 268.813 63.9932 268.829 63.9284C268.852 63.7971 268.951 63.6765 269.106 63.5915C269.261 63.5065 269.46 63.4636 269.662 63.4715C270.678 63.4457 271.692 63.4597 272.711 63.4485C279.869 63.3711 287.045 63.4318 294.186 63.159C298.346 63 302.53 63.3111 306.668 62.827C308.526 62.6094 310.372 63.0091 312.242 62.9665C314.156 62.9205 316.069 62.8737 317.983 62.8047C322.693 62.6359 327.414 62.6024 332.131 62.5585C335.4 62.5278 338.728 62.5515 341.919 62.3492C347.507 62.0005 353.071 62.3353 358.629 62.0737C366.504 61.7033 374.4 61.7828 382.28 61.5854C385.387 61.5073 388.42 61.8519 391.494 61.7765C392.105 61.7612 392.713 61.6956 393.631 61.6315C392.11 61.2215 390.48 61.0108 388.834 61.0114C384.336 60.9591 379.835 60.7393 375.343 60.8119C368.656 60.9193 361.971 61.0421 355.28 61.0211C355.055 61.0024 354.825 61.0136 354.606 61.0541C354.387 61.0946 354.183 61.1636 354.006 61.2569C353.634 61.4908 353.168 61.6508 352.662 61.7182C352.156 61.7857 351.631 61.7577 351.149 61.6377C347.788 60.9821 344.418 61.545 341.058 61.5345C338.089 61.5254 335.089 61.6231 332.141 61.7647C327.569 61.9844 323.023 61.7033 318.465 61.8672C312.329 62.1659 306.173 62.2358 300.025 62.0765C296.678 61.9461 293.414 62.5194 290.107 62.1532C288.056 61.9265 286.225 62.7545 284.123 62.6687C275.769 62.3283 267.421 62.9477 259.063 62.8926C257.436 62.773 255.793 62.7869 254.172 62.9337C254.004 62.967 253.824 62.9565 253.668 62.9044C253.512 62.8524 253.394 62.7628 253.337 62.6547C253.176 62.3227 253.585 62.2076 253.951 62.0967C254.753 61.8189 255.647 61.6724 256.555 61.6698C260.062 61.78 263.5 61.3322 266.967 61.1195C268.905 60.9995 270.786 61.2806 272.711 61.2032C277.091 61.0253 281.487 61.1795 285.865 61.086C288.429 61.0309 291.022 60.9646 293.58 60.7651C296.407 60.544 299.214 60.8265 302.034 60.7651C308.164 60.6354 314.294 60.6152 320.427 60.4164C323.627 60.2971 326.835 60.3204 330.03 60.4861C333.128 60.6626 336.203 60.2162 339.302 60.166C343.508 60.0962 347.719 59.9937 351.91 59.7342C354.997 59.5859 358.099 59.6207 361.177 59.8381C362.471 59.9253 363.778 59.8262 365.006 59.548C366.583 59.1811 368.3 59.4475 369.874 59.571C372.559 59.7802 375.156 59.3875 377.803 59.428C385.399 59.5424 393.02 59.149 400.581 59.8939C402.89 60.2276 405.277 60.265 407.608 60.0041C408.583 59.9747 409.54 60.1833 410.293 60.5894C413.319 61.7263 416.332 61.0135 419.325 60.6452C420.18 60.5405 420.89 60.258 421.64 60.747C421.95 60.9493 422.371 60.8691 422.768 60.8614C424.856 60.8209 426.946 60.8 429.034 60.7686C430.127 60.7526 431.299 60.959 432.016 60.1088C432.278 59.7977 432.93 59.8995 433.437 59.9595C434.255 60.0551 435.073 60.1527 435.977 60.2594C435.87 60.1123 435.845 60.023 435.775 60.0021C435.162 59.8165 434.021 59.9686 434.131 59.3045C434.25 58.5931 435.244 58.6809 436.142 58.6886C437.775 58.7019 439.409 58.5938 441.044 58.5568C441.471 58.547 442.068 58.5128 442.135 58.8958C442.193 59.2285 441.592 59.1866 441.281 59.3143C440.179 59.7537 438.915 59.7098 437.694 59.9225C439.333 60.4038 441.182 60.4854 442.905 60.1527C443.348 60.0453 443.826 60.0136 444.294 60.0606C444.761 60.1076 445.202 60.2318 445.576 60.4213C446.617 60.9995 447.74 60.4715 448.824 60.4506C448.984 60.4471 449.203 60.1897 449.269 60.0279C449.376 59.7788 449.044 59.7035 448.759 59.7175C447.755 59.767 446.861 59.2543 445.781 59.5452C445.203 59.7014 444.36 59.5849 444.295 59.1071C444.23 58.6293 445.077 58.6482 445.595 58.6237C449.575 58.5044 453.563 58.6639 457.491 59.0995C458.509 59.1936 458.572 59.3345 458.373 59.9637C458.331 60.0569 458.347 60.1572 458.418 60.2427C458.52 60.3062 458.649 60.3477 458.788 60.3614C458.928 60.3751 459.07 60.3605 459.196 60.3194C462.787 59.5075 466.327 59.9665 469.849 60.5391C470.341 60.6194 470.727 60.6731 471.062 60.4122C471.19 60.3124 471.324 60.1157 471.258 60.0292C471.057 59.7684 470.604 59.7663 470.222 59.7426C468.256 59.6191 466.277 59.6686 464.304 59.5808C463.333 59.4182 462.34 59.3177 461.339 59.2808C462.023 58.8722 462.907 58.6358 463.834 58.614C468.382 58.1257 472.941 58.734 477.493 58.4424C480.562 58.2457 483.672 58.3134 486.765 58.2903C489.588 58.2694 492.411 58.2854 495.237 58.1508C493.919 57.8702 492.525 57.7707 491.144 57.8586C490.586 57.9068 490.023 57.9322 489.459 57.9346C485.584 57.9109 481.712 57.9981 477.841 58.0434C475.276 58.0741 472.667 58.0378 470.08 57.9737C467.492 57.9095 464.917 58.1013 462.311 58.0329C458.779 57.9395 455.228 57.9632 451.682 57.9904C446.507 58.0337 441.33 58.1515 436.158 58.1013C430.353 58.0448 424.549 58.1557 418.743 58.0316C415.148 57.8877 411.542 57.9077 407.952 58.0915C405.813 58.2842 403.635 58.1333 401.607 57.6521C400.634 57.4458 399.599 57.3951 398.59 57.5042C393.869 57.8076 389.132 57.6019 384.408 57.7212C381.417 57.7965 378.438 57.9018 375.447 57.9199C373.833 57.9304 372.096 57.2775 370.606 58.2387C370.545 58.2652 370.476 58.283 370.404 58.2909C370.332 58.2987 370.258 58.2965 370.187 58.2843C370.116 58.2721 370.05 58.2502 369.994 58.2201C369.937 58.19 369.891 58.1524 369.858 58.1097C369.144 57.0571 367.64 57.3487 366.457 57.3319C363.819 57.2458 361.175 57.3011 358.551 57.4973C354.939 57.8156 351.298 57.9747 347.653 57.9737C345.97 57.9827 344.284 58.0546 342.604 58.0197C337.421 57.9116 332.253 58.2032 327.083 58.2429C323.481 58.2701 319.88 58.3433 316.279 58.3824C310.083 58.4556 303.886 58.5345 297.695 58.6977C295.024 58.7674 292.27 58.674 289.602 58.727C286.165 58.7967 282.739 58.6251 279.31 58.6572C274.16 58.7061 268.991 59.1239 263.806 58.5596C262.034 58.3549 260.219 58.37 258.456 58.6042C256.58 58.8491 254.66 58.911 252.756 58.7877C250.284 58.6482 247.826 58.7877 245.361 58.7179C238.737 58.5331 232.112 58.4452 225.488 58.5659C223.104 58.6091 220.756 58.3622 218.382 58.3566C214.662 58.3427 210.952 58.3468 207.231 58.517C203.745 58.6768 200.28 58.2687 196.809 58.095C192.573 57.8858 188.246 57.6368 183.988 58.095C182.421 58.2168 180.836 58.21 179.271 58.0748C174.258 57.8084 169.217 58.1355 164.227 57.7916C157.699 57.3424 151.127 57.7037 144.608 57.2161C143.899 57.1159 143.166 57.1126 142.455 57.2065C141.744 57.3004 141.07 57.4894 140.476 57.7616C140.003 57.9392 139.464 58.0268 138.918 58.0145C138.373 58.0022 137.844 57.8904 137.391 57.6919C134.991 56.7516 132.476 56.8848 129.94 57.2615C129.621 57.3283 129.28 57.3363 128.955 57.2846C128.63 57.2329 128.333 57.1235 128.097 56.9685C127.725 56.7404 127.343 56.4803 127.493 56.1092C127.661 55.6955 128.246 55.6781 128.742 55.7074C131.52 55.8713 134.38 55.6084 137.034 56.4579C137.866 56.7244 138.85 56.9462 139.611 56.2382C139.715 56.1526 139.848 56.0837 139.999 56.0367C140.15 55.9897 140.315 55.9658 140.483 55.9669C142.395 56.1706 144.32 55.9432 146.203 56.0262C150.066 56.1964 153.926 56.3052 157.794 56.3352C162.76 56.3742 167.73 56.2319 172.684 56.6365C174.034 56.7372 175.399 56.6989 176.729 56.5228C179.221 56.2013 181.652 56.7844 184.093 56.6267C186.31 56.4372 188.551 56.3905 190.782 56.4872C195.367 56.7746 199.949 56.2884 204.544 56.2878C207.58 56.2878 210.617 56.368 213.648 56.3191C215.99 56.2808 218.28 55.7807 220.678 56.015C224.565 56.3938 228.478 55.8476 232.381 56.0771C233.283 56.1148 234.189 56.0523 235.06 55.8922C237.787 55.4284 240.493 55.9313 243.207 55.8922C244.168 55.9214 245.13 55.8572 246.063 55.7018C247.356 55.4124 248.759 55.4068 250.058 55.6858C251.367 55.9648 252.704 55.5184 254.053 55.7702C254.547 55.8623 255.58 55.8106 255.505 55.1515C255.441 54.5865 254.63 54.5537 253.955 54.4916C253.391 54.4393 253.029 54.7204 252.579 54.862C250.985 55.3621 249.32 55.0901 248.771 54.0871C248.461 53.5193 248.008 53.4719 247.312 53.4223C243.711 53.2393 240.097 53.2043 236.49 53.3177C233.334 53.3533 230.173 53.2703 227.016 53.211C221.888 53.1147 216.759 52.6781 211.655 52.6809C206.771 52.6809 201.865 52.9313 196.966 53.0219C193.868 53.0791 190.76 53.1084 187.671 52.9982C185.723 52.9285 183.801 52.3558 181.825 52.646C177.475 53.2842 173.072 52.9376 168.696 53.0178C164.472 53.0952 160.238 53.1105 156.016 53.001C150.897 52.8692 145.76 52.7304 140.66 52.7736C136.61 52.7384 132.567 52.5385 128.555 52.1752C123.619 51.8166 118.653 51.8104 113.74 51.4128C108.847 51.0173 103.932 50.8548 99.0349 50.5492C94.6747 50.2751 90.3498 49.782 86.0003 49.399C85.0516 49.3167 84.0858 49.323 83.1306 49.2679C82.5964 49.2372 81.8143 49.316 81.8058 48.8152C81.7972 48.3018 82.575 48.3855 83.1124 48.366C86.1046 48.3223 89.098 48.4132 92.071 48.638C97.7521 48.938 103.436 49.2144 109.123 49.4674C111.042 49.4809 112.948 49.6709 114.785 50.0317C115.922 50.3009 117.012 49.8706 118.136 49.9145C122.696 50.0938 127.259 50.257 131.811 50.4614C135.074 50.6085 138.322 50.8045 141.609 50.7976C143.22 50.7465 144.834 50.7663 146.441 50.8568C149.981 51.1651 153.533 50.7669 157.068 51.034C158.138 51.0001 159.209 51.0964 160.226 51.3179C160.424 51.391 160.656 51.4157 160.88 51.3877C164.354 50.649 167.809 51.3563 171.271 51.4372C173.079 51.4797 174.879 51.3291 176.671 51.3095C180.517 51.2677 184.376 51.4177 188.224 51.5558C189.345 51.5974 190.468 51.5881 191.587 51.5279C196.224 51.2775 200.867 50.9991 205.514 50.9308C208.451 50.9119 211.385 50.791 214.302 50.5688C217.08 50.3358 219.937 50.5897 222.756 50.5534C228.953 50.4732 235.15 50.3316 241.347 50.243C244.026 50.2054 246.707 50.2367 249.402 50.07C249.018 49.8299 248.557 49.6482 248.052 49.5379C247.548 49.4275 247.012 49.3913 246.484 49.4318C241.691 50.2026 236.814 49.8294 231.977 49.9619C230.396 49.9408 228.815 49.9874 227.244 50.1014C225.3 50.3219 223.504 49.7213 221.589 49.6313C216.8 49.4875 212.004 49.5017 207.217 49.6739C202.476 49.7631 197.727 49.7115 192.981 49.7234C185.594 49.7415 178.207 49.7617 170.82 49.7841C170.179 49.7841 169.456 49.8273 169.399 49.2721C169.342 48.7168 170.002 48.7141 170.681 48.6513C173.442 48.3974 176.216 48.6415 178.975 48.5118C179.088 48.5069 179.259 48.5313 179.304 48.493C180.48 47.4934 181.72 48.2202 182.802 48.516C184.568 48.9993 186.262 48.5613 187.984 48.546C188.094 48.5462 188.203 48.5315 188.303 48.5026C188.404 48.4738 188.494 48.4315 188.568 48.3786C188.865 48.064 188.758 47.4829 189.679 47.5959C190.704 47.7222 191.903 47.5011 192.707 48.1079C193.173 48.4567 193.259 48.336 193.63 48.0249C193.729 47.9104 193.874 47.8155 194.049 47.7505C194.224 47.6855 194.423 47.6527 194.624 47.6558C194.826 47.6588 195.022 47.6974 195.193 47.7676C195.363 47.8377 195.501 47.9368 195.592 48.0542C195.742 48.1878 195.95 48.2889 196.189 48.3444C196.428 48.3999 196.687 48.4072 196.932 48.3653C198.301 48.2872 199.603 47.6741 201.039 48.1407C202.577 46.9744 204.665 47.9154 206.454 47.5541C207.129 47.4105 207.848 47.377 208.548 47.4565C209.248 47.536 209.908 47.7261 210.47 48.0103C211.487 48.5041 212.713 48.3067 214.002 48.1498C216.345 47.8638 218.629 46.9954 221.188 47.7466C222.389 48.0989 223.822 47.8903 225.134 47.9301C227.747 48.0096 230.294 47.0456 232.914 47.7905C233.807 48.0444 234.656 47.5973 235.547 47.6329C235.71 47.2144 234.782 46.8084 235.63 46.5036C236.426 46.2162 236.869 46.5545 237.266 46.9605C237.381 47.0694 237.544 47.1526 237.734 47.1987C237.924 47.2449 238.13 47.2518 238.326 47.2186C240.426 46.8914 242.498 47.3581 244.581 47.3769C246.812 47.3992 249.051 47.4543 251.29 47.3839C252.572 47.3434 253.967 47.6245 254.784 46.5762C255.065 46.2155 255.988 46.2797 256.521 46.4366C257.645 46.6704 258.789 46.86 259.948 47.0044C260.642 47.1439 261.199 47.2834 261.682 46.754C262.074 46.3251 262.557 46.5559 262.912 46.8273C263.323 47.1112 263.833 47.3262 264.398 47.454C264.963 47.5817 265.568 47.6184 266.159 47.561C266.939 47.5283 268.414 47.6887 268.043 46.5587C268.017 46.4951 268.012 46.4285 268.029 46.3636C268.047 46.2987 268.086 46.2371 268.144 46.1832C268.202 46.1293 268.278 46.0844 268.365 46.0516C268.453 46.0189 268.55 45.9991 268.651 45.9937C268.873 45.9558 269.108 45.969 269.317 46.0311C269.525 46.0933 269.695 46.2005 269.796 46.3348C270.077 46.6731 270.049 47.199 270.881 47.2074C272.445 47.2228 273.999 47.6169 275.576 47.2283C276.245 47.063 276.134 46.8796 275.79 46.581C275.422 46.2664 274.093 46.1541 274.739 45.6973C275.067 45.4208 275.509 45.2111 276.013 45.0927C276.518 44.9744 277.063 44.9523 277.586 45.0291C279.775 45.4315 279.871 45.6568 278.152 47.1802C279.45 47.0954 280.753 47.0559 282.057 47.0616C285.071 47.176 288.052 46.7687 291.12 47.1914C294.598 47.6706 298.188 47.1391 301.724 47.0226C307.058 46.8468 312.382 46.5769 317.706 46.286C322.407 46.0286 327.108 45.4748 331.871 45.6743C332.452 45.6987 333.086 45.7245 333.18 45.2195C333.27 45.0027 333.228 44.7717 333.064 44.5744C332.9 44.3771 332.625 44.2287 332.298 44.16C330.879 43.9305 329.401 43.9048 327.966 44.0846C328.269 44.1544 328.576 44.2102 328.873 44.2862C329.4 44.4215 329.767 44.6468 329.549 45.0458C329.51 45.1259 329.446 45.2 329.362 45.2638C329.278 45.3275 329.176 45.3796 329.06 45.417C328.945 45.4543 328.819 45.4761 328.69 45.4811C328.562 45.4862 328.433 45.4743 328.312 45.4462C327.614 45.3339 326.827 45.3255 326.359 44.8728C325.771 44.3043 325.367 44.4543 324.893 44.9712C324.17 45.7601 322.863 45.5131 322.016 45.3046C320.805 45.0088 322.198 44.771 322.365 44.4194C321.372 44.2562 320.423 44.0281 320.408 45.0779C320.408 45.3213 320.277 45.5278 319.898 45.5864C319.519 45.645 319.272 45.4887 319.133 45.2599C318.744 44.6238 318.415 44.6894 318.013 45.2718C317.786 45.6024 317.165 45.7245 317.015 45.3353C316.566 44.1655 315.177 44.741 314.192 44.492C314.174 44.5439 314.174 44.5975 314.189 44.6496C314.205 44.7017 314.236 44.7513 314.282 44.7952C314.327 44.8392 314.386 44.8766 314.455 44.9053C314.523 44.934 314.6 44.9533 314.68 44.9621C315.129 45.0751 316.069 44.8226 315.849 45.435C315.693 45.864 314.843 45.7838 314.362 45.6736C312.576 45.2676 310.615 45.7775 308.873 45.1853C308.744 45.1511 308.605 45.1372 308.466 45.1448C308.327 45.1525 308.193 45.1814 308.075 45.2292C306.43 46.1758 304.456 45.4294 302.685 45.6931C302.495 45.721 302.107 45.654 302.071 45.578C301.406 44.2004 300.673 45.1421 299.782 45.4762C298.891 45.8103 297.679 45.4245 296.684 45.7642C296.632 45.7824 296.332 45.5947 296.275 45.4762C296.173 45.2669 296.46 45.163 296.67 45.0374C297.226 44.6617 297.929 44.3926 298.703 44.2594C299.477 44.1263 300.292 44.1341 301.06 44.282L301.012 43.9862C299.931 43.8663 298.841 43.7906 297.746 43.7596C292.51 43.8091 287.275 43.9074 282.058 43.8572C276.823 43.8063 271.588 44.1962 266.353 43.8091C265.226 43.7962 264.1 43.8408 262.984 43.9423C258.482 44.0818 253.984 43.8189 249.472 43.8956C246.251 43.95 243.093 43.083 239.795 43.1869C239.569 43.1851 239.346 43.1502 239.142 43.085C238.939 43.0197 238.761 42.9256 238.62 42.8095C237.01 41.0406 234.56 41.9146 232.383 41.849C232.24 40.9583 232.49 40.6633 233.799 40.6437C236.339 40.6033 238.883 40.6354 241.426 40.6437C241.739 40.6201 242.054 40.6683 242.319 40.78C242.583 40.8918 242.78 41.0601 242.875 41.2562C242.895 41.3299 242.943 41.3993 243.013 41.4588C243.083 41.5183 243.173 41.5661 243.277 41.5984C243.381 41.6306 243.495 41.6464 243.609 41.6444C243.724 41.6423 243.837 41.6226 243.938 41.5868C244.792 41.3741 243.891 41.2338 243.876 41.056C243.828 40.5063 244.494 40.6214 244.933 40.6165C246.741 40.597 248.551 40.5865 250.358 40.6165C257.788 40.7414 265.208 40.498 272.637 40.4073C280.187 40.3143 287.74 40.2257 295.295 40.1415C296.1 40.199 296.912 40.0847 297.609 39.8158C293.507 39.7146 289.842 39.7711 286.177 39.7314C282.846 39.6951 279.564 40.2559 276.179 39.843C274.79 39.6735 273.032 39.9058 271.627 39.8193C269.2 39.6707 266.875 39.9881 264.5 39.9546C260.868 39.9037 257.258 39.8646 253.633 39.617C251.653 39.4824 249.573 39.6602 247.569 39.5172C243.692 39.2417 239.809 39.4698 235.934 39.4056C231.334 39.3282 226.704 39.1441 222.107 39.3219C217.663 39.4942 213.225 39.377 208.784 39.4838C202.593 39.6316 196.383 39.4307 190.193 39.5912C186.038 39.6986 181.86 39.3721 177.725 39.8946C177.511 39.9225 177.203 39.9643 177.063 39.8946C175.182 38.9585 173.055 39.6365 171.058 39.4949C170.385 39.4475 169.753 39.4063 169.707 38.8818C169.659 38.3196 170.241 38.254 170.965 38.2917C172.817 38.3901 174.515 37.809 176.405 37.793C177.866 37.7804 179.396 37.6228 180.883 37.6702C183.586 37.7553 186.279 38.0601 188.979 38.0803C190.795 38.0936 192.554 37.5181 194.422 37.5167C195.028 37.5167 194.967 37.1157 195.22 36.9001C195.427 36.6973 195.738 36.5501 196.098 36.486C196.458 36.4219 196.841 36.4451 197.177 36.5514C197.949 36.8004 197.244 37.1791 197.185 37.4421C200.962 38.1885 204.759 37.6291 208.547 37.5991C209.334 37.5928 210.122 37.6284 210.91 37.6235C212.254 37.6144 213.564 37.643 214.658 36.9141C215.528 36.3352 216.212 36.5109 216.524 37.2503C216.705 37.6793 217.261 37.5161 217.649 37.5189C219.848 37.5363 222.005 37.145 224.218 37.3214C224.332 36.8625 223.287 36.7188 223.773 36.2947C223.977 36.1337 224.266 36.0286 224.582 36.0002C224.899 35.9717 225.221 36.0221 225.483 36.1412C227.47 36.7969 229.164 35.9411 230.979 35.7506C231.613 35.6002 232.265 35.4836 232.928 35.4019C236.06 35.436 239.213 34.9429 242.33 35.5553C243.584 35.7547 244.898 35.7211 246.125 35.4584C248.051 35.1335 250.07 35.1273 252.001 35.4402C255.114 35.9731 258.137 35.623 261.189 35.2352C262.77 34.9567 264.416 34.869 266.046 34.9764C268.278 35.1518 270.536 35.1357 272.762 34.9282C272.722 34.5844 272.373 34.6353 272.142 34.643C268.149 34.7734 264.16 34.523 260.145 34.7783C256.982 34.9792 253.727 34.4993 250.535 34.7155C245.904 35.0259 241.294 34.5209 236.683 34.726C234.722 34.8131 232.785 35.111 230.826 35.254C229.913 35.3237 228.269 35.5225 228.236 35.0447C228.186 34.3179 229.649 34.7741 230.435 34.6555C231.485 34.4849 232.497 34.227 233.446 33.8882C232.251 33.7055 231.6 33.2605 230.748 33.8792C230.576 34.0047 230.226 34.1658 230.049 34.1282C228.126 33.7097 226.288 34.3479 224.36 34.2844C219.484 34.1226 214.593 34.2349 209.707 34.336C207.409 34.3835 205.101 34.2586 202.799 34.2035C202.542 34.2018 202.289 34.1603 202.062 34.0824C201.835 34.0046 201.639 33.8926 201.491 33.7557C201.159 33.4502 200.337 33.2361 200.775 32.7527C201.179 32.3077 201.874 32.5923 202.471 32.5881C204.26 32.5634 206.022 32.8805 207.539 33.5004C207.927 33.3044 207.723 33.13 207.646 32.9626C207.555 32.7534 207.316 32.5134 207.684 32.3621C208.053 32.2107 208.445 32.3621 208.772 32.5183C209.711 32.9772 210.845 33.2343 212.018 33.2542C213.191 33.274 214.344 33.0557 215.318 32.6292C215.883 32.39 216.288 32.5546 216.676 32.7785C216.999 32.9282 217.366 33.0332 217.753 33.087C218.141 33.1407 218.541 33.1421 218.929 33.091C219.508 33.0742 220.141 33.054 219.891 32.4716C219.82 32.3063 219.924 32.0886 220.146 32.1521C221.968 32.6732 223.597 30.5799 225.656 32.4444C224.908 30.7598 222.878 30.469 221.183 31.0556C219.085 31.7249 216.719 31.9495 214.416 31.698C213.053 31.5767 211.842 31.276 210.368 31.6869C210.067 31.7776 209.738 31.8231 209.406 31.8199C209.074 31.8166 208.747 31.7648 208.45 31.6683C208.152 31.5717 207.892 31.4328 207.688 31.2618C207.484 31.0908 207.341 30.8921 207.27 30.6803C207.163 30.4711 207.072 30.1223 206.763 30.1579C205.096 30.3351 203.405 29.8789 201.76 30.2493C201.301 30.3525 201.21 30.515 201.483 30.8401C201.997 31.4511 201.42 31.6073 200.582 31.6311C197.804 31.7141 195.02 31.8229 192.238 31.9038C190.604 31.9503 188.968 31.9784 187.332 31.9882C186.759 31.9917 186.116 31.9115 186.093 31.4302C186.073 31.004 186.673 30.9531 187.17 30.8666C188.269 30.6935 189.399 30.621 190.529 30.651C190.897 30.7108 191.281 30.7125 191.65 30.6561C192.019 30.5997 192.362 30.4868 192.651 30.3267C190.218 30.1977 187.769 30.2999 185.38 30.6301C183.068 32.6229 179.849 31.8466 176.862 31.8431C175.459 31.8431 174.055 31.9645 172.654 32.0524C172.162 32.0817 171.782 32.2372 171.823 32.6167C171.865 32.9961 172.262 33.1049 172.767 33.0972C173.552 33.1785 174.356 33.088 175.054 32.8399C175.674 32.5406 176.328 32.2505 176.713 33.0324C176.737 33.0773 176.781 33.1166 176.839 33.1453C176.897 33.174 176.967 33.1908 177.039 33.1935C177.112 33.1963 177.184 33.1849 177.247 33.1608C177.31 33.1367 177.36 33.101 177.392 33.0582C178.584 31.8326 180.161 32.4451 181.559 32.7485C182.207 32.8825 182.906 32.867 183.539 32.7046C186.149 32.2151 188.917 32.2112 191.53 32.6934C192.345 32.8496 193.057 33.2117 193.844 32.6934C193.951 32.6236 194.231 32.5644 194.306 32.6027C195.802 33.3749 197.725 32.904 199.327 33.3337C199.735 33.4425 200.27 33.522 200.213 33.898C200.166 34.2042 199.687 34.2858 199.31 34.3165C196.448 34.4869 193.564 34.3965 190.74 34.048C190.447 34.018 190.148 33.6678 189.872 33.9015C188.992 34.6444 188.234 34.5523 187.459 33.8499C187.42 33.8255 187.371 33.8081 187.319 33.7993C187.266 33.7905 187.211 33.7907 187.158 33.7997C184.676 34.7615 181.999 34.2593 179.378 34.2816C176.734 34.304 174.104 34.3911 171.445 34.2998C168.593 34.2014 165.713 34.3535 162.847 34.23C162.142 34.2 161.195 34.3556 161.021 33.7229C160.849 33.1014 161.848 32.9752 162.46 32.8085C162.956 32.6701 163.492 32.6023 164.032 32.6095C164.572 32.6168 165.103 32.6988 165.59 32.8503C166.531 33.113 167.576 33.1729 168.572 33.0212C168.949 32.978 169.471 32.8971 169.473 32.6069C169.473 32.2435 168.879 32.1584 168.47 32.15C167.401 32.1277 166.333 32.2128 165.264 32.1974C160.939 32.1354 156.616 31.9994 152.291 31.9882C148.255 31.9805 144.237 31.7692 140.174 31.9882C134.892 32.2672 129.597 31.7475 124.311 31.5195C119.134 31.2956 113.948 31.163 108.78 30.8631C100.461 30.3804 92.1202 30.1105 83.7983 29.6466C77.6796 29.3055 71.5736 28.8263 65.4303 28.6289C62.6268 28.5389 59.8457 28.1679 57.0508 27.9467C51.6799 27.522 46.3037 27.1272 40.936 26.6912C39.4296 26.5678 37.952 26.3006 36.4487 26.1555C35.3903 26.0423 34.3077 26.0698 33.2659 26.2364C33.9764 26.4165 34.7232 26.5283 35.4829 26.5685C37.7832 26.4708 39.8858 27.1962 42.1594 27.1711C42.784 27.1716 43.4032 27.2467 43.9863 27.3929C48.0666 28.3883 52.4 28.3185 56.6096 28.7615C58.9462 29.0077 61.6909 28.7677 63.5157 30.1921C63.6183 30.2934 63.7079 30.4 63.7839 30.5108C62.6234 30.7239 61.3882 30.6839 60.2656 30.3971C56.7399 29.8684 53.0966 29.9556 49.5656 29.4304C45.8315 28.8724 42.0472 28.4608 38.2789 28.0046C36.9536 27.831 35.6151 27.7029 34.2692 27.621C29.6849 27.3075 25.1305 26.8297 20.6266 26.1897C15.5635 25.5619 10.386 25.3087 5.42859 24.3162C4.92911 24.2546 4.42005 24.2328 3.91254 24.2513C1.82166 24.1871 1.4338 23.7414 2.47015 22.5633C1.89856 22.3331 1.41782 22.7851 0.855835 22.6498C0.404967 22.541 -0.0245431 22.4049 0.00109863 22.0583C0.00625824 21.9827 0.039024 21.909 0.0967407 21.8435C0.154457 21.7779 0.23543 21.7222 0.332825 21.6813C0.430219 21.6403 0.541277 21.6151 0.656616 21.6079C0.771956 21.6007 0.88818 21.6116 0.995728 21.6398C2.718 21.9613 4.63906 21.7144 6.22137 22.4021C6.9368 22.6227 7.72938 22.7147 8.5174 22.6686C9.00031 22.6965 9.70436 22.6386 9.66803 23.1018C9.62743 23.6061 8.86785 23.6068 8.34967 23.5342C7.07027 23.2759 5.75332 23.1046 4.41998 23.0229C4.2063 23.0229 3.99262 23.0027 3.63043 22.9846C4.75119 23.7944 6.24701 23.5984 7.48315 23.8216C9.09613 24.0338 10.7346 24.1526 12.3796 24.1766C12.5431 24.1864 12.775 24.1941 12.869 24.1334C15.0422 22.7321 17.5379 23.6891 19.8788 23.7512C25.2144 23.8907 30.4785 24.5108 35.7735 24.9174C41.8634 25.3855 47.9469 25.9135 54.0432 26.371C55.6084 26.4889 57.2025 26.4408 58.7827 26.468C59.7667 26.484 59.865 26.1806 59.3586 25.7265C58.6972 25.133 57.8767 24.6252 57.2623 23.9967C56.7848 23.5084 56.4536 23.8307 56.2922 24.2164C55.6341 25.7991 54.8093 26.1276 52.3284 25.8388C51.1399 25.607 49.9253 25.4365 48.6959 25.329C48.4952 25.3432 48.2932 25.3106 48.1258 25.2369C47.9584 25.1632 47.8364 25.0533 47.7813 24.9265C47.6638 24.5701 48.1019 24.508 48.4929 24.4382C48.759 24.3915 49.119 24.3922 49.1606 24.1683C49.2141 23.8893 48.7995 23.8495 48.5195 23.7386C48.0036 23.4588 47.4277 23.2299 46.8101 23.0592C46.3571 22.9895 44.8795 22.3059 45.4608 23.5907C45.6039 23.9067 45.1231 24.0141 44.8421 23.8481C43.5675 23.0962 41.8976 22.9609 40.4029 22.5542C39.8334 22.3987 39.1048 22.1657 39.3292 21.699C39.5728 21.1933 40.4125 21.3084 40.9318 21.4807C42.31 21.9355 43.7203 21.524 45.1103 21.6384C49.5239 22.0018 53.9781 22.2054 58.3585 22.6644C61.2283 22.965 64.1055 23.2266 66.9785 23.5119C68.6323 23.6765 70.2168 23.2741 71.8504 23.2545C72.1848 23.2503 72.5438 23.1192 72.8472 23.168C78.4895 24.0699 84.3475 23.2901 90.0154 24.1446C92.1327 24.3552 94.2724 24.4554 96.4141 24.4445C97.349 24.4843 98.3725 24.3448 98.9901 25.02C99.1364 25.1804 99.5242 25.3129 99.7197 25.1755C100.971 24.3029 101.897 24.9348 102.943 25.3847C103.406 25.5188 103.91 25.5786 104.415 25.5591C109.085 25.7593 113.754 26.0509 118.43 26.1039C121.22 26.0639 124.011 26.1401 126.786 26.332L126.869 25.9958C125.347 25.7928 123.837 25.5264 122.301 25.3994C118.639 25.0981 114.941 24.9872 111.281 24.7633C108.207 24.5756 105.103 24.4968 102.031 24.3266C97.241 24.0622 92.4481 23.7372 87.6425 23.5914C86.2621 23.5496 85.0089 23.1562 83.652 23.1346C79.9499 23.076 76.2629 22.8897 72.5737 22.6916C70.4722 22.4882 68.3973 22.1807 66.3673 21.7716C64.9089 21.563 64.1493 20.9095 65.0157 19.7662ZM312.372 19.8304C309.961 19.942 307.558 19.4816 305.135 19.8095C304.545 19.889 303.746 19.8346 303.712 19.2912C303.677 18.7478 304.445 18.7234 305.064 18.6934C306.253 18.7657 307.447 18.5872 308.469 18.1842C303.945 18.3126 299.886 18.6676 295.687 18.517C296.1 18.8378 296.904 18.7304 296.933 19.2054C296.961 19.6993 296.144 19.6804 295.651 19.9783C296.57 20.0083 297.261 20.0913 297.707 19.5137C297.765 19.4155 297.866 19.3304 297.996 19.2688C298.127 19.2072 298.282 19.1718 298.443 19.1667C298.604 19.1617 298.764 19.1874 298.903 19.2405C299.042 19.2937 299.154 19.3722 299.227 19.4663C299.561 19.7427 300.01 19.9503 300.52 20.0643C301.03 20.1782 301.58 20.1937 302.104 20.1087C304.19 19.9943 306.27 20.1192 308.354 20.0438C309.693 19.995 311.063 20.175 312.364 19.8213C312.7 19.8353 313.042 19.8304 313.373 19.866C313.931 19.9267 314.624 19.9894 314.592 20.4568C314.555 21.0148 313.844 20.8495 313.295 20.8334C312.892 20.8216 312.395 20.6465 312.152 21.0427C313.963 21.4478 315.923 21.4701 317.755 21.1062C316.076 19.4475 314.493 19.0715 312.372 19.8304ZM194.107 27.328C195.009 27.328 195.572 27.3434 196.137 27.328C198.865 27.1583 201.605 27.0787 204.346 27.0895C207.06 27.1823 209.75 26.9333 212.451 27.0483C212.734 27.0602 213.074 27.0309 213.073 26.7896C213.073 26.5698 212.753 26.5106 212.469 26.4903C212.184 26.4701 211.905 26.4736 211.624 26.4589C211.011 26.4275 210.221 26.475 210.171 25.9337C210.12 25.3924 210.918 25.3192 211.518 25.315C213.545 25.3011 215.572 25.3164 217.6 25.361C218.384 25.3792 219.564 25.082 219.796 25.783C220 26.3983 218.699 26.3822 218.152 26.7142C218.035 26.8043 217.933 26.9015 217.845 27.0044C237.272 26.74 256.609 26.7254 275.912 25.9058C274.379 25.8037 272.837 25.7641 271.296 25.7872C270.032 25.7928 268.696 26.0795 267.72 25.2166C267.332 24.8728 266.851 25.0458 266.426 25.3129C265.2 26.0879 263.592 25.8814 262.113 25.9623C261.984 25.9749 261.853 25.9687 261.728 25.944C261.603 25.9194 261.488 25.877 261.392 25.8199C261.295 25.7627 261.219 25.6923 261.169 25.6137C261.12 25.5351 261.097 25.4502 261.104 25.3652C261.13 24.9544 261.692 24.8693 262.189 24.7863C263.063 24.6412 263.755 25.0653 264.877 25.2515C264.187 24.5924 263.462 24.1446 262.68 24.3078C261.106 24.637 259.565 24.2778 258.021 24.4264C253.846 24.8282 249.622 24.9684 245.407 24.8449C240.841 24.7103 236.302 25.0165 231.759 24.8644C228.831 24.7661 225.968 25.2564 222.998 24.9969C219.557 24.6963 215.967 24.3468 212.593 24.6775C208.426 25.0862 204.323 24.6663 200.21 24.9091C199.703 24.9123 199.196 24.8862 198.696 24.8309C195.58 24.6468 192.464 24.0909 189.131 24.8867C191.8 24.8684 194.459 25.1079 197.021 25.5975C195.337 25.6408 195.315 26.7414 194.107 27.328ZM164.149 28.5013C134.273 28.4267 104.494 27.2178 74.7522 25.3387C75.4121 25.6928 76.2039 25.9265 77.0471 26.016C80.8773 26.1653 84.6691 26.5454 88.4791 26.8196C93.5679 27.1858 98.7261 27.1216 103.831 27.4166C113.264 27.9614 122.72 28.3123 132.172 28.3778C137.79 28.4169 143.39 28.571 148.991 28.7573C154.046 28.9649 159.118 28.8793 164.149 28.5013ZM383.706 51.7887C370.699 51.7706 357.69 51.749 344.691 52.254C348.505 52.194 352.294 52.7911 356.096 52.4995C358.612 52.2346 361.192 52.4673 363.504 53.1677C363.959 53.3579 364.47 53.4825 365.005 53.533C365.539 53.5835 366.084 53.5589 366.602 53.4607C366.959 53.3735 367.497 53.3407 367.193 52.9641C366.671 52.3174 367.458 52.4005 367.965 52.3516C368.47 52.3602 368.975 52.33 369.469 52.2617C370.769 51.901 371.739 51.8745 372.615 52.8008C373.22 53.4412 374.111 53.25 374.451 52.5107C374.624 52.1326 375.118 52.1382 375.55 52.1431C376.733 52.1563 377.921 52.1675 379.095 52.2491C380.664 52.313 382.236 52.156 383.703 51.7887H383.706ZM160.615 27.086C160.615 26.9626 160.608 26.8391 160.604 26.7156C156.752 26.9444 153.087 26.0976 149.212 26.1283C142.806 26.255 136.396 26.031 130.049 25.4587C129.627 25.39 129.185 25.4031 128.774 25.4962C128.364 25.5894 128.005 25.7586 127.74 25.9832C129.068 25.9986 130.09 25.691 130.922 26.0872C133.123 27.1432 135.666 26.8942 138.099 26.8712C142.373 26.8307 146.637 26.906 150.907 27.063C154.13 27.1816 157.375 27.086 160.611 27.086H160.615ZM285.861 52.9968H265.825C266.089 53.4628 267.011 53.4851 266.744 53.9734C266.52 54.38 265.948 54.4693 265.387 54.5314C264.468 54.6022 263.592 54.8234 262.839 55.1745C264.683 55.0398 266.539 54.9843 268.394 55.0085C268.736 55.0302 269.079 54.972 269.361 54.8443C269.643 54.7165 269.847 54.5276 269.936 54.311C269.957 54.1615 270.037 54.018 270.166 53.8941C270.296 53.7702 270.472 53.6699 270.678 53.6027C270.883 53.5356 271.112 53.5038 271.342 53.5103C271.571 53.5168 271.795 53.5614 271.991 53.64C272.311 53.7223 272.643 53.8687 272.952 53.7446C274.057 53.3045 274.309 53.8283 274.576 54.3326C274.734 54.6318 274.69 55.0022 275.442 54.9994C278.567 54.9876 281.692 54.9945 284.817 54.9945C283.107 54.7637 281.335 54.9352 279.688 54.4498C279.359 54.4037 279.014 54.4424 278.727 54.5579C277.445 55.0071 276.769 54.5746 276.114 53.8799C279.387 53.3882 282.636 53.4586 285.861 52.9968ZM337.029 54.205C337.791 52.1884 340.726 52.9041 342.763 51.9101C334.238 52.5379 326.131 52.0663 318.071 52.5951C319.791 53.1443 321.73 53.3303 323.619 53.1273C324 53.0494 324.405 53.0395 324.793 53.0985C325.181 53.1575 325.538 53.2833 325.827 53.4628C326.811 54.1561 327.974 54.2684 328.925 53.5556C329.211 53.3044 329.599 53.1107 330.045 52.9967C330.491 52.8828 330.978 52.8531 331.449 52.911C332.62 53.0182 333.804 53.0547 334.986 53.0199C336.063 53.0178 337.261 52.9131 337.029 54.205ZM60.8981 26.4143C77.7405 27.8052 94.5968 28.8933 111.889 29.3725C108.344 28.5947 105.015 28.9205 101.751 28.7238C99.3447 28.5794 96.943 28.3687 94.5273 28.329C88.4444 28.2818 82.3838 27.8399 76.4349 27.01C75.5609 26.8604 74.6559 26.8034 73.7543 26.8412C70.6809 27.0916 67.5612 26.9109 64.6034 26.3111C63.3769 26.1247 62.0958 26.1604 60.8981 26.4143ZM287.451 53.1496C288.738 53.3449 290.026 53.5423 291.315 53.7362C291.718 53.7962 292.114 53.8806 292.142 54.1959C292.165 54.4589 291.821 54.5446 291.512 54.6514C291.248 54.7434 290.816 54.6611 290.701 54.9806C293.014 55.1403 295.231 54.7888 297.887 54.7155C296.951 54.4143 295.879 54.3468 294.873 54.5258C294.716 54.5374 294.557 54.528 294.406 54.4982C294.255 54.4684 294.115 54.419 293.995 54.3527C293.874 54.2865 293.775 54.2049 293.704 54.113C293.633 54.021 293.592 53.9206 293.582 53.8178C293.475 53.2744 294.153 53.2598 294.708 53.2249C296.273 53.0894 297.853 53.0481 299.428 53.1015C301.526 53.3076 303.669 53.1803 305.675 52.7304C299.593 52.6472 293.509 52.7871 287.451 53.1496ZM261.409 15.3195C260.194 15.0698 258.679 15.4786 257.939 14.4909C257.581 14.0145 258.46 13.9573 258.819 13.6964C256.108 13.373 253.324 13.4219 250.644 13.8401C250.886 14.0442 251.223 14.1916 251.604 14.2604C251.985 14.3292 252.39 14.3156 252.758 14.2216C253.206 14.1323 253.771 14.2028 253.798 14.5767C253.829 15.0084 253.222 14.984 252.798 14.9254C251.752 14.837 250.69 14.9685 249.767 15.3007C253.838 15.6934 257.626 15.1047 261.409 15.3195ZM388.053 53.2228C390.092 51.758 390.78 51.5488 392.896 51.8278C393.592 51.9595 394.32 52.0052 395.042 51.9624C395.851 51.8773 396.752 51.7685 397.079 52.5421C397.112 52.6046 397.168 52.6608 397.242 52.7055C397.317 52.7502 397.408 52.7821 397.506 52.7982C397.604 52.8144 397.707 52.8143 397.805 52.7979C397.903 52.7816 397.994 52.7495 398.068 52.7046C398.909 52.0768 399.97 52.1068 401.095 52.0587C401.474 52.0318 401.838 51.9471 402.158 51.8114C402.478 51.6757 402.745 51.4928 402.937 51.2774C397.425 51.5885 391.919 51.2482 386.056 51.5613C387.109 52.1138 388.078 52.3949 388.053 53.2228ZM298.948 25.7258L298.965 25.3324C297.658 25.3324 296.349 25.3478 295.043 25.3248C294.5 25.315 293.715 25.3303 293.693 24.8714C293.669 24.3322 294.492 24.5052 295.001 24.4633C296.406 24.3468 297.865 24.6531 299.419 24.2757C296.797 23.6967 293.457 23.7484 288.895 24.3943C289.435 24.8937 289.505 24.7863 292.064 25.5103C294.431 26.1778 296.662 25.7342 298.953 25.7258H298.948ZM285.052 49.3676C277.104 49.7324 269.125 49.0377 261.193 49.9257C269.153 49.7673 277.122 50.1391 285.057 49.3676H285.052ZM264.139 53.467L264.177 53.2019C259.415 52.9734 254.63 53.0289 249.882 53.3679C250.845 53.6911 251.956 53.7746 253.006 53.603C254.289 53.4839 255.585 53.4349 256.88 53.4565C257.389 53.4635 257.949 53.4656 258.216 53.8102C258.521 54.198 258.05 54.4072 257.682 54.6367C257.229 54.9157 256.836 55.2226 257.111 55.6188C258.622 54.9743 260.834 54.9618 261.515 53.5723C261.56 53.4802 262.139 53.4802 262.477 53.4712C263.03 53.4558 263.588 53.467 264.144 53.467H264.139ZM321.803 39.3094H337.287L337.271 38.9174C332.108 38.8546 326.943 38.9855 321.803 39.3094ZM354.575 37.8292C352.151 37.7571 349.722 37.8741 347.34 38.178C346.835 38.2477 345.959 38.0483 345.951 38.5226C345.944 38.9969 346.813 38.8211 347.326 38.8637C349.189 39.0171 351.005 38.3601 352.928 38.7988C353.846 39.0053 354.183 38.3698 354.575 37.8292Z" fill="#E865BB" fill-opacity="0.25"/>
</g>
<defs>
<clipPath id="clip0_2047_2">
<rect width="786" height="69" fill="white"/>
</clipPath>
</defs>
</svg>
