<svg width="25" height="23" viewBox="0 0 25 23" fill="none" xmlns="http://www.w3.org/2000/svg">
<path d="M3.83594 18.2083V6.70833C3.83594 4.59123 5.55217 2.875 7.66927 2.875H4.79427C2.67717 2.875 0.960938 4.59123 0.960938 6.70833V18.2083C0.960938 20.3254 2.67717 22.0417 4.79427 22.0417H7.66927C5.55217 22.0417 3.83594 20.3254 3.83594 18.2083Z" fill="#F4DAF9"/>
<path d="M19.7417 1.91667H18.7833V0.958333C18.7833 0.429046 18.3543 0 17.825 0C17.2957 0 16.8667 0.429046 16.8667 0.958333V1.91667H7.66667V0.958333C7.66667 0.429046 7.23762 0 6.70833 0C6.17905 0 5.75 0.429046 5.75 0.958333V1.91667H4.79167C2.14954 1.91667 0 4.06621 0 6.70833V18.2083C0 20.8505 2.14954 23 4.79167 23H19.7417C22.3838 23 24.5333 20.8505 24.5333 18.2083V6.70833C24.5333 4.06621 22.3838 1.91667 19.7417 1.91667ZM22.6167 18.2083C22.6167 19.7936 21.3269 21.0833 19.7417 21.0833H4.79167C3.20639 21.0833 1.91667 19.7936 1.91667 18.2083V6.70833C1.91667 5.12306 3.20639 3.83333 4.79167 3.83333H19.7417C21.3269 3.83333 22.6167 5.12306 22.6167 6.70833V18.2083Z" fill="#D67AEA"/>
<path d="M13.2266 9.58268H11.3099C10.7806 9.58268 10.3516 9.15364 10.3516 8.62435C10.3516 8.09506 10.7806 7.66602 11.3099 7.66602H13.2266C13.7559 7.66602 14.1849 8.09506 14.1849 8.62435C14.1849 9.15364 13.7559 9.58268 13.2266 9.58268Z" fill="#D67AEA"/>
<path d="M19.7443 9.58268H17.8276C17.2983 9.58268 16.8693 9.15364 16.8693 8.62435C16.8693 8.09506 17.2983 7.66602 17.8276 7.66602H19.7443C20.2736 7.66602 20.7026 8.09506 20.7026 8.62435C20.7026 9.15364 20.2736 9.58268 19.7443 9.58268ZM6.71094 13.416H4.79427C4.26498 13.416 3.83594 12.987 3.83594 12.4577C3.83594 11.9284 4.26498 11.4993 4.79427 11.4993H6.71094C7.24022 11.4993 7.66927 11.9284 7.66927 12.4577C7.66927 12.987 7.24022 13.416 6.71094 13.416ZM13.2276 13.416H11.3109C10.7816 13.416 10.3526 12.987 10.3526 12.4577C10.3526 11.9284 10.7816 11.4993 11.3109 11.4993H13.2276C13.7569 11.4993 14.1859 11.9284 14.1859 12.4577C14.1859 12.987 13.7569 13.416 13.2276 13.416ZM19.7443 13.416H17.8276C17.2983 13.416 16.8693 12.987 16.8693 12.4577C16.8693 11.9284 17.2983 11.4993 17.8276 11.4993H19.7443C20.2736 11.4993 20.7026 11.9284 20.7026 12.4577C20.7026 12.987 20.2736 13.416 19.7443 13.416ZM6.71094 17.2493H4.79427C4.26498 17.2493 3.83594 16.8203 3.83594 16.291C3.83594 15.7617 4.26498 15.3327 4.79427 15.3327H6.71094C7.24022 15.3327 7.66927 15.7617 7.66927 16.291C7.66927 16.8203 7.24022 17.2493 6.71094 17.2493ZM13.2276 17.2493H11.3109C10.7816 17.2493 10.3526 16.8203 10.3526 16.291C10.3526 15.7617 10.7816 15.3327 11.3109 15.3327H13.2276C13.7569 15.3327 14.1859 15.7617 14.1859 16.291C14.1859 16.8203 13.7569 17.2493 13.2276 17.2493Z" fill="#D67AEA"/>
</svg>
