<svg width="64" height="64" viewBox="0 0 64 64" fill="none" xmlns="http://www.w3.org/2000/svg">
<g id="Frame" clip-path="url(#clip0_149_54910)">
<g id="Group">
<path id="Vector" d="M55.9467 15.4055H49.4179L45.8134 9.88106C44.4532 7.8094 42.0729 6.56641 39.6246 6.56641H24.6626C22.2142 6.56641 19.8339 7.8094 18.4738 9.88106L14.8693 15.4055H8.3404C7.35719 15.4026 6.38311 15.5971 5.47419 15.9778C4.56527 16.3586 3.73945 16.918 3.04421 17.6239C2.34896 18.3298 1.79803 19.1684 1.42308 20.0913C1.04813 21.0142 0.856566 22.0032 0.859406 23.0016V49.7951C0.856566 50.7934 1.04813 51.7825 1.42308 52.7054C1.79803 53.6283 2.34896 54.4668 3.04421 55.1727C3.73945 55.8787 4.56527 56.4381 5.47419 56.8188C6.38311 57.1995 7.35719 57.394 8.3404 57.3911H55.9467C56.93 57.394 57.904 57.1995 58.813 56.8188C59.7219 56.4381 60.5477 55.8787 61.2429 55.1727C61.9382 54.4668 62.4891 53.6283 62.8641 52.7054C63.239 51.7825 63.4306 50.7934 63.4277 49.7951V23.0016C63.4306 22.0032 63.239 21.0142 62.8641 20.0913C62.4891 19.1684 61.9382 18.3298 61.2429 17.6239C60.5477 16.918 59.7219 16.3586 58.813 15.9778C57.904 15.5971 56.93 15.4026 55.9467 15.4055ZM32.1436 51.1762C22.8263 51.1762 15.2773 43.511 15.2773 34.0504C15.2773 24.5899 22.8263 16.9938 32.1436 16.9938C41.4608 16.9938 49.0098 24.6589 49.0098 34.1195C49.0098 43.511 41.4608 51.1762 32.1436 51.1762ZM54.9946 26.1091H52.0022C50.7781 26.04 49.8259 25.0042 49.8939 23.7612C49.9619 22.5872 50.8461 21.6895 52.0022 21.6205H54.7226C55.9467 21.5514 56.9669 22.5182 57.0349 23.7612C57.1029 25.0042 56.2188 26.04 54.9946 26.1091Z" fill="#DB74DC"/>
<path id="Vector_2" d="M32.1431 24.5898C26.9744 24.5898 22.7578 28.8713 22.7578 34.1195C22.7578 39.3677 26.9744 43.5801 32.1431 43.5801C37.3118 43.5801 41.5283 39.2986 41.5283 34.0504C41.5283 28.8022 37.3118 24.5898 32.1431 24.5898Z" fill="#DB74DC"/>
</g>
</g>
<defs>
<clipPath id="clip0_149_54910">
<rect width="62.5683" height="63.5309" fill="white" transform="translate(0.859375 0.212891)"/>
</clipPath>
</defs>
</svg>
