<svg width="31" height="31" viewBox="0 0 31 31" fill="none" xmlns="http://www.w3.org/2000/svg">
<path d="M15.8437 30.9609C7.56933 30.9609 0.84375 24.2354 0.84375 15.9609C0.84375 7.68652 7.56933 0.960938 15.8437 0.960938C24.1182 0.960938 30.8437 7.68652 30.8437 15.9609C30.8437 24.2354 24.1182 30.9609 15.8437 30.9609ZM15.8437 3.05396C8.72747 3.05396 2.93677 8.84466 2.93677 15.9609C2.93677 23.0772 8.72747 28.8679 15.8437 28.8679C22.96 28.8679 28.7507 23.0772 28.7507 15.9609C28.7507 8.84466 22.96 3.05396 15.8437 3.05396Z" fill="#D67AEA"/>
<path d="M11.8949 20.956C11.6298 20.956 11.3646 20.8583 11.1553 20.649C10.9607 20.452 10.8516 20.1863 10.8516 19.9094C10.8516 19.6326 10.9607 19.3668 11.1553 19.1699L19.053 11.2722C19.4577 10.8676 20.1274 10.8676 20.5321 11.2722C20.9367 11.6769 20.9367 12.3467 20.5321 12.7513L12.6344 20.649C12.4391 20.8583 12.16 20.956 11.8949 20.956Z" fill="#D67AEA"/>
<path d="M19.7925 20.956C19.5274 20.956 19.2623 20.8583 19.053 20.649L11.1553 12.7513C10.9607 12.5544 10.8516 12.2887 10.8516 12.0118C10.8516 11.7349 10.9607 11.4692 11.1553 11.2722C11.56 10.8676 12.2298 10.8676 12.6344 11.2722L20.5321 19.1699C20.9367 19.5746 20.9367 20.2443 20.5321 20.649C20.3228 20.8583 20.0577 20.956 19.7925 20.956Z" fill="#D67AEA"/>
</svg>
