<svg width="68" height="68" viewBox="0 0 68 68" fill="none" xmlns="http://www.w3.org/2000/svg">
<circle cx="33.7765" cy="34.0968" r="33.7765" fill="#1877F2"/>
<path d="M50.6671 34.2024C50.6671 24.8183 43.106 17.2109 33.7789 17.2109C24.4518 17.2109 16.8906 24.8183 16.8906 34.2024C16.8906 42.6832 23.0664 49.7128 31.1401 50.9875V39.114H26.8521V34.2024H31.1401V30.459C31.1401 26.2005 33.6615 23.8482 37.519 23.8482C39.3662 23.8482 41.2994 24.1801 41.2994 24.1801V28.3616H39.1699C37.0721 28.3616 36.4177 29.6715 36.4177 31.0165V34.2024H41.1015L40.3528 39.114H36.4177V50.9875C44.4914 49.7128 50.6671 42.6832 50.6671 34.2024Z" fill="white"/>
</svg>
