<svg width="42" height="63" viewBox="0 0 42 63" fill="none" xmlns="http://www.w3.org/2000/svg">
<path d="M35.7211 35.7099C43.8819 27.5516 43.8819 14.2771 35.7211 6.1188C27.5602 -2.0396 14.2816 -2.0396 6.12064 6.1188C-2.04021 14.2771 -2.04021 27.5516 6.12064 35.7099C9.57505 39.1632 13.9464 41.1542 18.4583 41.6841V48.6893H13.5335C12.1735 48.6893 11.0711 49.7915 11.0711 51.1509C11.0711 52.5104 12.1735 53.6126 13.5335 53.6126H18.4583V60.547C18.4584 61.9065 19.5608 63.0086 20.9209 63.0086C22.2809 63.0086 23.3833 61.9065 23.3833 60.547V53.6126H28.3082C29.6682 53.6126 30.7706 52.5104 30.7706 51.1509C30.7706 49.7915 29.6682 48.6893 28.3082 48.6893H23.3833V41.6843C27.8953 41.1542 32.2667 39.1632 35.7211 35.7099ZM9.60311 32.2285C3.36241 25.9898 3.36241 15.8388 9.60311 9.60003C15.8437 3.36155 25.9978 3.36118 32.2387 9.60003C38.4794 15.8388 38.4794 25.9898 32.2387 32.2285C25.998 38.4671 15.8438 38.4671 9.60311 32.2285Z" fill="#A8A8A8"/>
</svg>
