<svg width="243" height="80" viewBox="0 0 243 80" fill="none" xmlns="http://www.w3.org/2000/svg">
<path d="M56.4011 6.06394C56.4011 6.06394 55.3579 2.41254 48.0551 2.41254C42.2519 2.41254 38.1441 21.2564 31.5585 38.4049C30.1893 38.2745 28.82 38.1441 27.5159 38.1441C22.4952 38.1441 18.3222 39.383 16.4965 41.7955C15.5837 42.9692 15.1924 44.5341 15.1924 46.2294C15.1924 47.0118 15.2576 47.7942 15.4533 48.5767C16.1705 51.5109 18.0614 54.2494 20.7999 54.7058H20.9304C21.2564 54.7058 21.5172 54.5102 21.5172 54.1842V53.793C21.5172 51.0544 24.2557 48.1855 28.168 46.3598C23.0821 57.0532 16.6269 65.5296 7.43321 65.5296C4.69466 65.5296 3.26018 64.356 2.54294 63.4431C2.34733 63.1823 2.08652 62.9867 1.7605 62.9867C1.56489 62.9867 1.36928 63.1171 1.23887 63.3127C0.456425 64.7472 0 66.3121 0 67.8118C0 68.529 0.130407 69.181 0.260814 69.8331C1.30407 74.3973 5.73792 78.3747 11.9323 78.3747C23.0821 78.3747 30.0589 61.8782 35.3404 44.5341C35.862 44.5341 36.3184 44.4689 36.7748 44.4689C38.3397 44.4689 39.9046 44.6645 41.4695 45.0557C40.687 51.9673 40.1002 58.4224 40.1002 63.1171C40.1002 65.334 40.2306 67.2249 40.5566 68.529C42.578 77.3315 48.7071 79.0268 53.2061 79.0268C55.0318 79.0268 56.6619 78.7008 57.5096 78.5051C57.7052 78.4399 57.7704 78.2443 57.7704 78.0487C57.7052 77.9835 57.64 77.8531 57.5748 77.7879C55.8143 76.0274 54.5754 73.0932 53.7278 69.4418C52.6193 64.5516 52.1629 58.3572 52.1629 51.7717C52.1629 30.9717 56.4011 6.06394 56.4011 6.06394ZM36.9052 39.4482C40.7522 26.1467 43.7516 13.3015 47.077 7.95485C45.8381 15.2576 43.556 28.6244 41.9911 41.2087C40.2958 40.4914 38.6005 39.9046 36.9052 39.4482Z" fill="white"/>
<path d="M74.5099 25.6902C65.903 25.6902 63.1645 29.6024 63.1645 35.1447C63.1645 36.9705 63.4905 38.9918 63.9469 41.0783C65.7074 48.7071 69.9456 57.5748 71.3149 63.5735C71.5757 64.8124 71.7713 65.9209 71.7713 66.8337C71.7713 69.181 70.7933 70.6155 68.1199 70.6155C63.4253 70.6155 60.3607 63.4431 59.3826 59.7265C59.3174 59.4005 58.9914 59.2049 58.7306 59.2049C58.6002 59.2049 58.535 59.2049 58.4698 59.2701C57.5569 59.8569 57.0353 61.4218 57.0353 63.5083C57.0353 64.4864 57.1657 65.5296 57.4265 66.6381C58.7306 72.05 63.2297 78.3747 73.1406 78.3747C80.5738 78.3747 82.9864 74.9189 82.9864 69.8331C82.9864 68.203 82.7255 66.3121 82.2691 64.356C80.4434 56.6619 75.8792 47.3378 74.3795 40.7523C74.0535 39.4482 73.9231 38.2093 73.9231 37.1661C73.9231 34.3623 75.0967 32.667 78.3569 32.667C81.0954 32.667 82.2039 35.1447 82.5951 36.9704L82.7255 37.7529C82.8559 38.2093 83.3124 38.5353 83.7688 38.5353C83.834 38.5353 83.9644 38.5353 84.0296 38.4701C85.1381 38.0137 85.7249 36.84 85.7249 35.3404C85.7249 34.8187 85.6597 34.2971 85.5293 33.7103C84.6817 30.0589 81.0303 25.6902 74.5099 25.6902Z" fill="white"/>
<path d="M104.92 25.4294C94.1611 25.4294 87.8364 40.9479 87.8364 55.0971C87.8364 58.3572 88.1624 61.5522 88.8144 64.4212C90.6401 72.2456 95.0088 78.1791 102.377 78.1791C113.918 78.1791 119.786 63.7039 119.786 49.946C119.786 46.6206 119.46 43.2952 118.743 40.2306C116.787 31.8194 112.223 25.4294 104.92 25.4294ZM102.377 73.8105C101.529 73.8105 100.877 72.702 100.421 70.8111C99.899 68.6594 99.7034 65.4644 99.7034 61.813C99.7034 49.1635 102.442 30.9717 106.159 30.9717C107.332 30.9717 108.115 32.2106 108.571 34.2971C109.028 36.188 109.223 38.7309 109.223 41.6651C109.223 54.3798 105.572 73.8105 102.377 73.8105Z" fill="white"/>
<path d="M140.626 25.5598C130.194 25.5598 124.325 38.2745 124.325 51.1848C124.325 54.2494 124.651 57.314 125.303 60.1829C127.651 70.0939 133.976 78.3095 145.06 78.3095C152.95 78.3095 156.014 68.7898 156.014 62.7911C156.014 61.7478 155.949 60.835 155.754 60.0525C155.428 58.8789 154.971 58.0964 154.384 57.966C154.254 57.966 154.189 58.0312 154.189 58.1616C154.254 58.4876 154.254 58.8789 154.254 59.2701C154.254 64.0952 150.211 73.2237 144.539 73.2237C140.887 73.2237 138.54 69.5723 137.366 64.356C136.714 61.4218 136.388 58.0312 136.388 54.5754C136.388 43.1648 139.779 30.7109 145.386 30.7109C147.016 30.7109 147.799 32.2758 148.32 34.3623C148.842 36.7096 148.972 39.709 149.559 41.9911C149.95 43.9472 150.668 45.3817 152.102 45.3817C153.667 45.3817 155.036 43.8168 155.036 40.6219C155.036 39.6438 154.906 38.4701 154.58 37.1661C153.341 31.689 148.842 25.5598 140.626 25.5598Z" fill="white"/>
<path d="M161.811 31.1673C162.333 31.2977 162.659 31.8194 162.854 32.7322C163.05 33.5147 163.115 34.4927 163.115 35.6664C163.115 42.3824 160.768 55.1623 160.768 63.3127C160.768 65.1384 160.833 66.7685 161.159 68.0074V68.1378C163.702 78.3095 168.396 78.3095 170.679 78.3095C172.635 78.3095 175.373 76.3534 176.286 75.7014V75.571L176.156 75.4406C174.591 75.245 173.613 73.6149 173.026 71.0719C172.504 68.855 172.309 65.9209 172.309 62.7259C172.309 51.1848 174.852 35.4056 174.852 30.9717C174.852 30.5805 174.852 30.2545 174.786 30.0589C174.069 26.9943 171.526 25.5598 168.788 25.5598C164.549 25.5598 161.42 26.7335 161.42 29.8633C161.42 30.1241 161.42 30.4501 161.485 30.7761C161.485 30.9065 161.615 31.1021 161.811 31.1673ZM169.961 23.0821C172.765 23.0821 174.656 21.1912 174.656 18.5178C174.656 18.1266 174.591 17.605 174.46 17.1486C173.743 13.8884 170.483 11.2802 167.223 11.2802C164.419 11.2802 162.463 13.1711 162.463 15.7793C162.463 16.2357 162.528 16.6921 162.659 17.1486C163.441 20.4739 166.701 23.0821 169.961 23.0821Z" fill="white"/>
<path d="M222.36 76.4838C220.208 76.2882 218.904 74.2669 218.187 71.2675C217.665 69.1158 217.47 66.4425 217.47 63.5083C217.47 50.5328 221.447 32.2758 221.447 30.9717V30.9065C220.795 28.1028 218.643 25.7554 213.362 25.5598C213.036 25.5598 212.71 25.7554 212.645 26.0814C212.188 27.2551 211.08 30.5805 209.841 34.8839C206.842 27.9724 201.951 25.5598 197.126 25.5598C185.976 25.5598 179.847 40.361 179.847 54.3146C179.847 57.5096 180.173 60.7046 180.825 63.6387C182.716 71.9848 187.411 78.3095 195.17 78.3095C199.865 78.3095 203.581 69.9635 206.255 61.2914C206.32 62.3999 206.45 63.4431 206.711 64.4212C209.776 77.8531 218.057 78.3095 220.404 78.3095C222.034 78.3095 222.556 77.3315 222.621 76.8099V76.6794C222.556 76.6142 222.49 76.4838 222.36 76.4838ZM208.211 41.2739C207.037 45.0557 198.561 72.5064 193.67 72.5064C192.953 72.5064 192.366 71.5284 191.975 69.8331C191.584 68.0726 191.388 65.66 191.388 62.7911C191.388 50.598 195.04 31.1673 202.734 31.1673C205.603 31.1673 207.689 34.9491 208.993 38.1441C208.733 39.1222 208.472 40.1654 208.211 41.2739Z" fill="white"/>
<path d="M242.137 77.0707C240.442 76.8751 239.399 75.1146 238.681 72.1804C238.029 69.3766 237.769 65.5296 237.769 61.0958C237.769 42.3171 242.463 12.9103 242.463 6.06394C242.463 5.60752 242.463 5.21629 242.398 4.95548C241.746 2.15172 240.442 0 234.769 0C232.357 0 226.097 1.36928 226.097 5.99873C226.097 6.32475 226.162 6.71597 226.227 7.1072C226.227 7.2376 226.358 7.3028 226.488 7.3028C227.466 7.43322 228.184 8.60688 228.64 10.4978C229.096 12.3887 229.227 14.9316 229.227 17.9962C229.227 30.9717 226.032 52.2281 226.032 61.2914C226.032 62.5955 226.162 63.7039 226.293 64.4212L226.358 64.8776C229.357 77.8531 237.768 78.8964 240.116 78.8964C241.811 78.8964 242.268 77.9183 242.398 77.3967V77.3315C242.333 77.2011 242.202 77.1359 242.137 77.0707Z" fill="white"/>
</svg>
