<svg width="46" height="46" viewBox="0 0 46 46" fill="none" xmlns="http://www.w3.org/2000/svg">
<path d="M10.1945 27.7977L8.59333 33.7751L2.74103 33.8989C0.99205 30.6549 0 26.9434 0 22.9993C0 19.1854 0.927542 15.5888 2.57167 12.4219H2.57293L7.78312 13.3771L10.0655 18.556C9.5878 19.9487 9.32744 21.4437 9.32744 22.9993C9.32762 24.6876 9.63345 26.3053 10.1945 27.7977Z" fill="#FBBB00"/>
<path d="M45.6002 18.7031C45.8643 20.0944 46.0021 21.5313 46.0021 22.9998C46.0021 24.6464 45.8289 26.2527 45.4991 27.802C44.3795 33.0743 41.4539 37.678 37.4012 40.9359L37.3999 40.9347L30.8374 40.5998L29.9086 34.8018C32.5978 33.2247 34.6994 30.7566 35.8065 27.802H23.5078V18.7031H45.6002Z" fill="#518EF8"/>
<path d="M37.3987 40.9353L37.3999 40.9365C33.4584 44.1047 28.4515 46.0003 23.001 46.0003C14.2421 46.0003 6.62692 41.1046 2.74219 33.9001L10.1957 27.7988C12.138 32.9826 17.1386 36.6727 23.001 36.6727C25.5209 36.6727 27.8816 35.9915 29.9073 34.8024L37.3987 40.9353Z" fill="#28B446"/>
<path d="M37.6793 5.295L30.2283 11.395C28.1318 10.0845 25.6536 9.32753 22.9985 9.32753C17.0034 9.32753 11.9093 13.1869 10.0642 18.5566L2.57157 12.4225H2.57031C6.39817 5.04227 14.1094 0 22.9985 0C28.5791 0 33.696 1.98787 37.6793 5.295Z" fill="#F14336"/>
</svg>
