<svg width="130" height="165" viewBox="0 0 130 165" fill="none" xmlns="http://www.w3.org/2000/svg">
<path d="M83.8166 157.722L82.1773 154.075C84.9491 152.832 87.721 151.557 90.4532 150.214L92.2153 153.806C89.4395 155.18 86.6281 156.463 83.8166 157.722ZM100.448 149.406L98.4401 145.946C101.032 144.451 103.544 142.819 105.964 141.059L108.34 144.29C105.805 146.138 103.175 147.851 100.46 149.422L100.448 149.406ZM115.594 138.208L112.822 135.337C113.539 134.636 114.244 133.92 114.925 133.175C116.235 131.753 117.446 130.244 118.552 128.657L121.83 130.946C120.621 132.677 119.298 134.327 117.871 135.884C117.138 136.691 116.382 137.472 115.606 138.224L115.594 138.208ZM126.487 122.571L122.812 120.987C123.975 118.31 124.83 115.509 125.363 112.64L129.295 113.357C128.715 116.529 127.777 119.626 126.499 122.587L126.487 122.571ZM125.782 104.027C125.528 101.184 124.808 98.4014 123.652 95.791L127.303 94.1596C128.637 97.1717 129.469 100.382 129.766 103.663L125.782 104.027ZM118.979 88.6634C117.024 86.5327 114.797 84.6687 112.355 83.1197L114.533 79.7657C117.262 81.514 119.753 83.6076 121.945 85.9945L118.979 88.6634ZM104.522 78.9896C102.055 77.9324 99.2954 76.9147 96.0722 75.8812L97.2957 72.0719C100.638 73.145 103.517 74.2062 106.098 75.315L104.522 78.9896ZM87.321 73.2994L84.6126 72.5511C82.5376 71.9769 80.4706 71.4066 78.4393 70.8206L79.548 66.9797C81.5635 67.5618 83.6147 68.128 85.6777 68.6982L88.3941 69.4466L87.321 73.2994ZM69.5535 67.9537C66.6391 66.8846 63.7326 65.6848 60.9014 64.3899L62.5764 60.7549C65.3047 62.0141 68.1201 63.1743 70.9275 64.2039L69.5535 67.9537ZM52.5858 60.145C49.8694 58.6245 47.1887 56.9773 44.6069 55.2627L46.8244 51.9364C49.3191 53.5995 51.9127 55.1874 54.5381 56.6565L52.5858 60.145ZM37.0319 49.7863C34.5926 47.8777 32.193 45.8463 29.9042 43.7516L32.5969 40.7976C34.8223 42.825 37.1427 44.789 39.5067 46.6383L37.0319 49.7863ZM23.236 37.1942C21.0977 34.9213 19.0307 32.5494 17.0904 30.1458L20.2028 27.6353C22.0797 29.9597 24.0794 32.2564 26.1425 34.454L23.236 37.1942ZM11.5031 22.6459C9.73709 20.0721 8.06215 17.4111 6.51784 14.7264L9.98264 12.7465C11.4755 15.3322 13.095 17.8942 14.8017 20.3928L11.5031 22.6459ZM2.17789 6.44255C1.41497 4.82696 0.689001 3.19293 0 1.54038L3.69054 0C4.35182 1.58391 5.05663 3.16781 5.79314 4.75172L2.17789 6.44255Z" fill="#403C3E" fill-opacity="0.3"/>
<path d="M101.879 165.002L103.103 161.193L84.3258 155.174L91.6989 136.884L87.9846 135.391L79.0078 157.668L101.879 165.002Z" fill="#403C3E" fill-opacity="0.3"/>
</svg>
