<svg width="69" height="68" viewBox="0 0 69 68" fill="none" xmlns="http://www.w3.org/2000/svg">
<circle cx="34.7453" cy="34.0968" r="33.7765" fill="url(#paint0_linear_206_248)"/>
<path d="M34.7575 20.2578C39.2725 20.2578 39.8072 20.2776 41.5828 20.3568C43.233 20.4295 44.1241 20.7067 44.7182 20.9377C45.5037 21.2414 46.0714 21.611 46.6589 22.1985C47.2529 22.7926 47.616 23.3536 47.9196 24.1391C48.1506 24.7332 48.4279 25.6309 48.5005 27.2745C48.5797 29.0568 48.5995 29.5914 48.5995 34.0998C48.5995 38.6148 48.5797 39.1494 48.5005 40.9251C48.4279 42.5753 48.1506 43.4664 47.9196 44.0605C47.616 44.846 47.2463 45.4136 46.6589 46.0011C46.0648 46.5952 45.5037 46.9582 44.7182 47.2619C44.1241 47.4929 43.2264 47.7701 41.5828 47.8428C39.8006 47.922 39.2659 47.9418 34.7575 47.9418C30.2426 47.9418 29.7079 47.922 27.9323 47.8428C26.2821 47.7701 25.3909 47.4929 24.7969 47.2619C24.0114 46.9582 23.4437 46.5886 22.8562 46.0011C22.2621 45.407 21.8991 44.846 21.5955 44.0605C21.3644 43.4664 21.0872 42.5687 21.0146 40.9251C20.9354 39.1428 20.9156 38.6082 20.9156 34.0998C20.9156 29.5848 20.9354 29.0502 21.0146 27.2745C21.0872 25.6243 21.3644 24.7332 21.5955 24.1391C21.8991 23.3536 22.2687 22.786 22.8562 22.1985C23.4503 21.6044 24.0114 21.2414 24.7969 20.9377C25.3909 20.7067 26.2887 20.4295 27.9323 20.3568C29.7079 20.2776 30.2426 20.2578 34.7575 20.2578ZM34.7575 17.2148C30.1699 17.2148 29.5957 17.2346 27.7936 17.3139C25.9982 17.3931 24.7639 17.6835 23.6945 18.0994C22.579 18.535 21.6351 19.1093 20.6977 20.0532C19.7538 20.9905 19.1795 21.9344 18.7439 23.0434C18.328 24.1193 18.0376 25.3471 17.9584 27.1425C17.8792 28.9511 17.8594 29.5254 17.8594 34.113C17.8594 38.7006 17.8792 39.2749 17.9584 41.0769C18.0376 42.8723 18.328 44.1067 18.7439 45.176C19.1795 46.2916 19.7538 47.2355 20.6977 48.1728C21.6351 49.1101 22.579 49.691 23.6879 50.12C24.7639 50.5359 25.9916 50.8263 27.787 50.9055C29.5891 50.9848 30.1633 51.0046 34.7509 51.0046C39.3385 51.0046 39.9128 50.9848 41.7148 50.9055C43.5103 50.8263 44.7446 50.5359 45.814 50.12C46.9229 49.691 47.8668 49.1101 48.8041 48.1728C49.7415 47.2355 50.3223 46.2916 50.7514 45.1826C51.1672 44.1067 51.4577 42.8789 51.5369 41.0835C51.6161 39.2815 51.6359 38.7072 51.6359 34.1196C51.6359 29.532 51.6161 28.9577 51.5369 27.1557C51.4577 25.3603 51.1672 24.1259 50.7514 23.0566C50.3355 21.9344 49.7613 20.9905 48.8173 20.0532C47.88 19.1159 46.9361 18.535 45.8272 18.106C44.7512 17.6901 43.5235 17.3997 41.728 17.3205C39.9194 17.2346 39.3451 17.2148 34.7575 17.2148Z" fill="white"/>
<path d="M34.7582 25.4297C29.966 25.4297 26.0781 29.3176 26.0781 34.1098C26.0781 38.902 29.966 42.7899 34.7582 42.7899C39.5504 42.7899 43.4383 38.902 43.4383 34.1098C43.4383 29.3176 39.5504 25.4297 34.7582 25.4297ZM34.7582 39.7403C31.6492 39.7403 29.1277 37.2188 29.1277 34.1098C29.1277 31.0008 31.6492 28.4793 34.7582 28.4793C37.8672 28.4793 40.3888 31.0008 40.3888 34.1098C40.3888 37.2188 37.8672 39.7403 34.7582 39.7403Z" fill="white"/>
<path d="M45.8029 25.089C45.8029 26.2111 44.892 27.1154 43.7765 27.1154C42.6543 27.1154 41.75 26.2045 41.75 25.089C41.75 23.9668 42.6609 23.0625 43.7765 23.0625C44.892 23.0625 45.8029 23.9734 45.8029 25.089Z" fill="white"/>
<defs>
<linearGradient id="paint0_linear_206_248" x1="68.5218" y1="0.320312" x2="40.3141" y2="80.8274" gradientUnits="userSpaceOnUse">
<stop offset="0.156707" stop-color="#4C68D7"/>
<stop offset="0.267008" stop-color="#8A3AB9"/>
<stop offset="0.379099" stop-color="#BC2A8D"/>
<stop offset="0.481309" stop-color="#CD486B"/>
<stop offset="0.636916" stop-color="#E95950"/>
<stop offset="0.779294" stop-color="#FBAD50"/>
<stop offset="0.86525" stop-color="#FCCC63"/>
</linearGradient>
</defs>
</svg>
