<svg width="68" height="68" viewBox="0 0 68 68" fill="none" xmlns="http://www.w3.org/2000/svg">
<circle cx="34.2218" cy="34.0968" r="33.7765" fill="#0A66C2"/>
<path d="M48.6122 17.2109H19.8296C18.4508 17.2109 17.3359 18.2994 17.3359 19.6452V48.5466C17.3359 49.8924 18.4508 50.9875 19.8296 50.9875H48.6122C49.991 50.9875 51.1125 49.8924 51.1125 48.5532V19.6452C51.1125 18.2994 49.991 17.2109 48.6122 17.2109ZM27.3567 45.9935H22.343V29.8705H27.3567V45.9935ZM24.8499 27.6737C23.2402 27.6737 21.9406 26.3741 21.9406 24.7711C21.9406 23.168 23.2402 21.8684 24.8499 21.8684C26.453 21.8684 27.7526 23.168 27.7526 24.7711C27.7526 26.3675 26.453 27.6737 24.8499 27.6737ZM46.1185 45.9935H41.1114V38.1563C41.1114 36.2894 41.0785 33.8815 38.5056 33.8815C35.8998 33.8815 35.504 35.92 35.504 38.0244V45.9935H30.5035V29.8705H35.3061V32.0739H35.3721C36.0384 30.8073 37.6744 29.4681 40.1087 29.4681C45.1818 29.4681 46.1185 32.8062 46.1185 37.147V45.9935V45.9935Z" fill="white"/>
</svg>
