<svg width="195" height="61" viewBox="0 0 195 61" fill="none" xmlns="http://www.w3.org/2000/svg">
<path fill-rule="evenodd" clip-rule="evenodd" d="M66.5283 3.03757C67.0061 0.972409 64.8348 -0.697796 62.9613 0.293762L49.7955 7.26179C47.1585 6.26509 44.2999 5.71964 41.3139 5.71964C28.0626 5.71964 17.3203 16.462 17.3203 29.7133C17.3203 42.9646 28.0626 53.7069 41.3139 53.7069C54.5653 53.7069 65.3076 42.9646 65.3076 29.7133C65.3076 25.8883 64.4125 22.2724 62.8205 19.0635L66.5283 3.03757Z" fill="url(#paint0_linear_149_41556)"/>
<g filter="url(#filter0_b_149_41556)">
<mask id="path-2-inside-1_149_41556" fill="white">
<path fill-rule="evenodd" clip-rule="evenodd" d="M0.0654831 9.74461C-0.412315 7.67944 1.75898 6.00924 3.63248 7.00079L16.7982 13.9688C19.4352 12.9721 22.2938 12.4267 25.2798 12.4267C38.5311 12.4267 49.2734 23.169 49.2734 36.4203C49.2734 49.6716 38.5311 60.4139 25.2798 60.4139C12.0285 60.4139 1.28619 49.6716 1.28619 36.4203C1.28619 32.5953 2.18121 28.9794 3.77325 25.7705L0.0654831 9.74461Z"/>
</mask>
<path fill-rule="evenodd" clip-rule="evenodd" d="M0.0654831 9.74461C-0.412315 7.67944 1.75898 6.00924 3.63248 7.00079L16.7982 13.9688C19.4352 12.9721 22.2938 12.4267 25.2798 12.4267C38.5311 12.4267 49.2734 23.169 49.2734 36.4203C49.2734 49.6716 38.5311 60.4139 25.2798 60.4139C12.0285 60.4139 1.28619 49.6716 1.28619 36.4203C1.28619 32.5953 2.18121 28.9794 3.77325 25.7705L0.0654831 9.74461Z" fill="url(#paint1_linear_149_41556)" fill-opacity="0.2"/>
<path d="M3.63248 7.00079L3.51677 7.21942L3.63248 7.00079ZM0.0654831 9.74461L0.306473 9.68885V9.68885L0.0654831 9.74461ZM16.7982 13.9688L16.8857 14.2002L16.7812 14.2397L16.6825 14.1874L16.7982 13.9688ZM3.77325 25.7705L4.01424 25.7148L4.03422 25.8011L3.99484 25.8805L3.77325 25.7705ZM3.51677 7.21942C1.83062 6.32702 -0.123543 7.8302 0.306473 9.68885L-0.175507 9.80036C-0.701088 7.52868 1.68734 5.69145 3.74818 6.78217L3.51677 7.21942ZM16.6825 14.1874L3.51677 7.21942L3.74818 6.78217L16.9139 13.7502L16.6825 14.1874ZM25.2798 12.674C22.3242 12.674 19.4952 13.2139 16.8857 14.2002L16.7108 13.7374C19.3753 12.7303 22.2635 12.1793 25.2798 12.1793V12.674ZM49.0261 36.4203C49.0261 23.3056 38.3945 12.674 25.2798 12.674V12.1793C38.6677 12.1793 49.5208 23.0324 49.5208 36.4203H49.0261ZM25.2798 60.1666C38.3945 60.1666 49.0261 49.535 49.0261 36.4203H49.5208C49.5208 49.8082 38.6677 60.6613 25.2798 60.6613V60.1666ZM1.53354 36.4203C1.53354 49.535 12.1651 60.1666 25.2798 60.1666V60.6613C11.8919 60.6613 1.03883 49.8082 1.03883 36.4203H1.53354ZM3.99484 25.8805C2.41936 29.0559 1.53354 32.6343 1.53354 36.4203H1.03883C1.03883 32.5563 1.94305 28.9029 3.55167 25.6606L3.99484 25.8805ZM0.306473 9.68885L4.01424 25.7148L3.53226 25.8263L-0.175507 9.80036L0.306473 9.68885Z" fill="white" mask="url(#path-2-inside-1_149_41556)"/>
</g>
<circle cx="48.7317" cy="12.1223" r="3.21606" fill="white"/>
<circle cx="15.5832" cy="19.0481" r="3.21606" fill="white"/>
<path d="M105.962 15.1421C105.962 15.1421 105.465 13.4006 101.982 13.4006C99.214 13.4006 97.2549 22.388 94.114 30.5668C93.4609 30.5046 92.8078 30.4424 92.1859 30.4424C89.7913 30.4424 87.8011 31.0332 86.9303 32.1839C86.4949 32.7436 86.3084 33.49 86.3084 34.2985C86.3084 34.6717 86.3394 35.0449 86.4327 35.4181C86.7748 36.8175 87.6767 38.1236 88.9828 38.3413H89.045C89.2005 38.3413 89.3249 38.248 89.3249 38.0925V37.9059C89.3249 36.5998 90.631 35.2315 92.4969 34.3607C90.0712 39.4608 86.9925 43.5036 82.6077 43.5036C81.3016 43.5036 80.6174 42.9438 80.2753 42.5084C80.182 42.384 80.0576 42.2907 79.9021 42.2907C79.8089 42.2907 79.7156 42.3529 79.6534 42.4462C79.2802 43.1304 79.0625 43.8767 79.0625 44.592C79.0625 44.9341 79.1247 45.2451 79.1869 45.556C79.6845 47.7329 81.7991 49.6299 84.7534 49.6299C90.0712 49.6299 93.3987 41.7621 95.9177 33.49C96.1664 33.49 96.3841 33.4589 96.6018 33.4589C97.3482 33.4589 98.0945 33.5522 98.8409 33.7388C98.4677 37.0352 98.1878 40.1139 98.1878 42.3529C98.1878 43.4103 98.25 44.3121 98.4055 44.9341C99.3695 49.1323 102.293 49.9409 104.439 49.9409C105.309 49.9409 106.087 49.7854 106.491 49.6921C106.584 49.661 106.615 49.5677 106.615 49.4744C106.584 49.4433 106.553 49.3811 106.522 49.35C105.682 48.5104 105.092 47.1109 104.687 45.3694C104.159 43.0371 103.941 40.0828 103.941 36.9419C103.941 27.0216 105.962 15.1421 105.962 15.1421ZM96.664 31.0643C98.4988 24.7203 99.9293 18.594 101.515 16.044C100.924 19.5269 99.836 25.9021 99.0897 31.904C98.2811 31.5619 97.4726 31.282 96.664 31.0643Z" fill="white"/>
<path d="M114.599 24.5026C110.494 24.5026 109.188 26.3685 109.188 29.0119C109.188 29.8826 109.344 30.8466 109.561 31.8418C110.401 35.4803 112.422 39.7096 113.075 42.5706C113.2 43.1615 113.293 43.6902 113.293 44.1255C113.293 45.2451 112.826 45.9292 111.551 45.9292C109.312 45.9292 107.851 42.5084 107.384 40.7358C107.353 40.5803 107.198 40.4871 107.073 40.4871C107.011 40.4871 106.98 40.4871 106.949 40.5181C106.514 40.798 106.265 41.5444 106.265 42.5395C106.265 43.006 106.327 43.5036 106.451 44.0322C107.073 46.6134 109.219 49.6299 113.946 49.6299C117.491 49.6299 118.642 47.9817 118.642 45.556C118.642 44.7786 118.517 43.8767 118.3 42.9438C117.429 39.2742 115.252 34.8272 114.537 31.6863C114.381 31.0643 114.319 30.4735 114.319 29.9759C114.319 28.6387 114.879 27.8301 116.434 27.8301C117.74 27.8301 118.269 29.0119 118.455 29.8826L118.517 30.2558C118.58 30.4735 118.797 30.629 119.015 30.629C119.046 30.629 119.108 30.629 119.139 30.5979C119.668 30.3802 119.948 29.8204 119.948 29.1052C119.948 28.8564 119.917 28.6076 119.855 28.3277C119.45 26.5862 117.709 24.5026 114.599 24.5026Z" fill="white"/>
<path d="M129.103 24.3782C123.972 24.3782 120.955 31.7796 120.955 38.5279C120.955 40.0828 121.11 41.6066 121.421 42.9749C122.292 46.7067 124.376 49.5366 127.89 49.5366C133.394 49.5366 136.193 42.6328 136.193 36.0711C136.193 34.4851 136.038 32.8991 135.695 31.4375C134.763 27.4259 132.586 24.3782 129.103 24.3782ZM127.89 47.453C127.486 47.453 127.175 46.9244 126.957 46.0225C126.708 44.9963 126.615 43.4725 126.615 41.731C126.615 35.6979 127.921 27.0216 129.694 27.0216C130.253 27.0216 130.626 27.6124 130.844 28.6076C131.062 29.5094 131.155 30.7223 131.155 32.1217C131.155 38.1858 129.414 47.453 127.89 47.453Z" fill="white"/>
<path d="M146.133 24.4404C141.157 24.4404 138.358 30.5046 138.358 36.662C138.358 38.1236 138.514 39.5852 138.824 40.9535C139.944 45.6804 142.961 49.5988 148.247 49.5988C152.01 49.5988 153.472 45.0585 153.472 42.1974C153.472 41.6999 153.441 41.2645 153.347 40.8913C153.192 40.3316 152.974 39.9584 152.694 39.8962C152.632 39.8962 152.601 39.9273 152.601 39.9895C152.632 40.145 152.632 40.3316 152.632 40.5181C152.632 42.8194 150.704 47.1731 147.998 47.1731C146.257 47.1731 145.137 45.4316 144.578 42.9438C144.267 41.5444 144.111 39.9273 144.111 38.2791C144.111 32.8369 145.728 26.8972 148.403 26.8972C149.18 26.8972 149.553 27.6435 149.802 28.6387C150.051 29.7582 150.113 31.1887 150.393 32.2772C150.58 33.2101 150.922 33.8943 151.606 33.8943C152.352 33.8943 153.005 33.1479 153.005 31.6241C153.005 31.1576 152.943 30.5979 152.788 29.9759C152.197 27.3637 150.051 24.4404 146.133 24.4404Z" fill="white"/>
<path d="M156.236 27.1149C156.485 27.1771 156.641 27.4259 156.734 27.8612C156.827 28.2344 156.858 28.7009 156.858 29.2606C156.858 32.4637 155.739 38.559 155.739 42.4462C155.739 43.317 155.77 44.0944 155.925 44.6853V44.7475C157.138 49.5988 159.377 49.5988 160.466 49.5988C161.399 49.5988 162.705 48.6658 163.14 48.3549V48.2927L163.078 48.2305C162.331 48.1372 161.865 47.3597 161.585 46.1469C161.336 45.0896 161.243 43.6902 161.243 42.1663C161.243 36.662 162.456 29.1363 162.456 27.0216C162.456 26.835 162.456 26.6795 162.425 26.5862C162.083 25.1246 160.87 24.4404 159.564 24.4404C157.542 24.4404 156.05 25.0002 156.05 26.4929C156.05 26.6173 156.05 26.7728 156.081 26.9283C156.081 26.9905 156.143 27.0838 156.236 27.1149ZM160.124 23.2587C161.461 23.2587 162.363 22.3569 162.363 21.0819C162.363 20.8953 162.331 20.6465 162.269 20.4288C161.927 18.8739 160.372 17.63 158.817 17.63C157.48 17.63 156.547 18.5318 156.547 19.7757C156.547 19.9934 156.578 20.2111 156.641 20.4288C157.014 22.0148 158.569 23.2587 160.124 23.2587Z" fill="white"/>
<path d="M185.114 48.728C184.088 48.6347 183.466 47.6707 183.124 46.2402C182.875 45.214 182.782 43.9389 182.782 42.5395C182.782 36.351 184.679 27.6435 184.679 27.0216V26.9905C184.368 25.6533 183.342 24.5337 180.823 24.4404C180.667 24.4404 180.512 24.5337 180.481 24.6892C180.263 25.249 179.734 26.835 179.144 28.8875C177.713 25.5911 175.381 24.4404 173.079 24.4404C167.762 24.4404 164.839 31.4997 164.839 38.1547C164.839 39.6785 164.994 41.2023 165.305 42.6017C166.207 46.5823 168.446 49.5988 172.147 49.5988C174.386 49.5988 176.158 45.6182 177.433 41.4822C177.464 42.0109 177.527 42.5084 177.651 42.9749C179.113 49.3811 183.062 49.5988 184.182 49.5988C184.959 49.5988 185.208 49.1323 185.239 48.8835V48.8213C185.208 48.7902 185.177 48.728 185.114 48.728ZM178.366 31.9351C177.806 33.7388 173.764 46.8311 171.431 46.8311C171.089 46.8311 170.809 46.3646 170.623 45.556C170.436 44.7164 170.343 43.5658 170.343 42.1974C170.343 36.3821 172.084 27.1149 175.754 27.1149C177.122 27.1149 178.117 28.9186 178.739 30.4424C178.615 30.9088 178.491 31.4064 178.366 31.9351Z" fill="white"/>
<path d="M194.547 49.0079C193.738 48.9146 193.241 48.075 192.899 46.6756C192.588 45.3384 192.463 43.5036 192.463 41.3889C192.463 32.4326 194.702 18.4074 194.702 15.1421C194.702 14.9244 194.702 14.7378 194.671 14.6135C194.36 13.2762 193.738 12.25 191.033 12.25C189.882 12.25 186.897 12.9031 186.897 15.111C186.897 15.2665 186.928 15.4531 186.959 15.6397C186.959 15.7019 187.021 15.733 187.083 15.733C187.55 15.7952 187.892 16.3549 188.11 17.2568C188.327 18.1586 188.389 19.3715 188.389 20.8331C188.389 27.0216 186.866 37.1596 186.866 41.4822C186.866 42.1042 186.928 42.6328 186.99 42.9749L187.021 43.1926C188.452 49.3811 192.463 49.8787 193.583 49.8787C194.391 49.8787 194.609 49.4122 194.671 49.1634V49.1323C194.64 49.0701 194.578 49.039 194.547 49.0079Z" fill="white"/>
<defs>
<filter id="filter0_b_149_41556" x="-2.47357" y="4.23346" width="54.2206" height="58.6542" filterUnits="userSpaceOnUse" color-interpolation-filters="sRGB">
<feFlood flood-opacity="0" result="BackgroundImageFix"/>
<feGaussianBlur in="BackgroundImageFix" stdDeviation="1.23678"/>
<feComposite in2="SourceAlpha" operator="in" result="effect1_backgroundBlur_149_41556"/>
<feBlend mode="normal" in="SourceGraphic" in2="effect1_backgroundBlur_149_41556" result="shape"/>
</filter>
<linearGradient id="paint0_linear_149_41556" x1="31.4209" y1="53.925" x2="23.7755" y2="-10.3691" gradientUnits="userSpaceOnUse">
<stop stop-color="white"/>
<stop offset="0.989583" stop-color="white" stop-opacity="0"/>
</linearGradient>
<linearGradient id="paint1_linear_149_41556" x1="12.8622" y1="56.1503" x2="33.6916" y2="15.3555" gradientUnits="userSpaceOnUse">
<stop stop-color="white"/>
<stop offset="0.989583" stop-color="white"/>
</linearGradient>
</defs>
</svg>
