<svg width="195" height="61" viewBox="0 0 195 61" fill="none" xmlns="http://www.w3.org/2000/svg">
<path fill-rule="evenodd" clip-rule="evenodd" d="M66.516 3.03757C66.9938 0.972409 64.8225 -0.697796 62.949 0.293762L49.7864 7.26014C47.1497 6.26376 44.2916 5.71849 41.3061 5.71849C28.0548 5.71849 17.3125 16.4608 17.3125 29.7121C17.3125 42.9634 28.0548 53.7057 41.3061 53.7057C54.5574 53.7057 65.2998 42.9634 65.2998 29.7121C65.2998 25.8849 64.4037 22.2669 62.8098 19.0566L66.516 3.03757Z" fill="url(#paint0_linear_2039_2)"/>
<g filter="url(#filter0_b_2039_2)">
<mask id="path-2-inside-1_2039_2" fill="white">
<path fill-rule="evenodd" clip-rule="evenodd" d="M0.0699463 9.7446C-0.407852 7.67944 1.76344 6.00924 3.63694 7.00079L16.7996 13.9672C19.4362 12.9708 22.2943 12.4255 25.2798 12.4255C38.5311 12.4255 49.2734 23.1678 49.2734 36.4192C49.2734 49.6705 38.5311 60.4128 25.2798 60.4128C12.0285 60.4128 1.28619 49.6705 1.28619 36.4192C1.28619 32.5919 2.18229 28.9739 3.77612 25.7636L0.0699463 9.7446Z"/>
</mask>
<path fill-rule="evenodd" clip-rule="evenodd" d="M0.0699463 9.7446C-0.407852 7.67944 1.76344 6.00924 3.63694 7.00079L16.7996 13.9672C19.4362 12.9708 22.2943 12.4255 25.2798 12.4255C38.5311 12.4255 49.2734 23.1678 49.2734 36.4192C49.2734 49.6705 38.5311 60.4128 25.2798 60.4128C12.0285 60.4128 1.28619 49.6705 1.28619 36.4192C1.28619 32.5919 2.18229 28.9739 3.77612 25.7636L0.0699463 9.7446Z" fill="url(#paint1_linear_2039_2)" fill-opacity="0.2"/>
<path d="M3.63694 7.00079L3.52123 7.21942L3.52123 7.21942L3.63694 7.00079ZM0.0699463 9.7446L0.310937 9.68885L0.310937 9.68885L0.0699463 9.7446ZM16.7996 13.9672L16.887 14.1986L16.7826 14.238L16.6839 14.1858L16.7996 13.9672ZM3.77612 25.7636L4.01711 25.7079L4.03709 25.7942L3.99767 25.8736L3.77612 25.7636ZM3.52123 7.21942C1.83508 6.32702 -0.119081 7.8302 0.310937 9.68885L-0.171045 9.80036C-0.696623 7.52868 1.6918 5.69145 3.75265 6.78217L3.52123 7.21942ZM16.6839 14.1858L3.52123 7.21942L3.75265 6.78217L16.9153 13.7485L16.6839 14.1858ZM25.2798 12.6729C22.3247 12.6729 19.4961 13.2126 16.887 14.1986L16.7121 13.7358C19.3763 12.729 22.264 12.1782 25.2798 12.1782V12.6729ZM49.0261 36.4192C49.0261 23.3044 38.3945 12.6729 25.2798 12.6729V12.1782C38.6677 12.1782 49.5208 23.0312 49.5208 36.4192H49.0261ZM25.2798 60.1654C38.3945 60.1654 49.0261 49.5339 49.0261 36.4192H49.5208C49.5208 49.8071 38.6677 60.6601 25.2798 60.6601V60.1654ZM1.53354 36.4192C1.53354 49.5339 12.1651 60.1654 25.2798 60.1654V60.6601C11.8919 60.6601 1.03883 49.8071 1.03883 36.4192H1.53354ZM3.99767 25.8736C2.42043 29.0505 1.53354 32.6309 1.53354 36.4192H1.03883C1.03883 32.5529 1.94414 28.8973 3.55456 25.6536L3.99767 25.8736ZM0.310937 9.68885L4.01711 25.7079L3.53513 25.8194L-0.171045 9.80036L0.310937 9.68885Z" fill="white" mask="url(#path-2-inside-1_2039_2)"/>
</g>
<circle cx="48.7317" cy="12.1223" r="3.21606" fill="white"/>
<circle cx="15.5832" cy="19.0481" r="3.21606" fill="white"/>
<path d="M105.287 19.6308C105.687 16.6662 105.013 13.4126 102.022 13.3988C102.006 13.3987 101.99 13.3987 101.974 13.3987C99.4096 13.3987 97.5393 21.114 94.78 28.7531C94.3919 29.8276 93.3206 30.4404 92.1781 30.4404V30.4404C89.7835 30.4404 87.7932 31.0313 86.9225 32.1819C86.4871 32.7417 86.3005 33.488 86.3005 34.2966C86.3005 34.6698 86.3316 35.0429 86.4249 35.4161C86.7616 36.7935 87.6406 38.0805 88.9136 38.3283C88.9543 38.3362 88.9958 38.3393 89.0372 38.3393V38.3393C89.1927 38.3393 89.3171 38.246 89.3171 38.0905V37.904V37.904C89.3171 36.2219 90.9929 37.3161 90.0329 38.6974C88.0351 41.5721 85.6292 43.5016 82.5999 43.5016C81.2937 43.5016 80.6096 42.9418 80.2675 42.5065C80.1742 42.3821 80.0498 42.2888 79.8943 42.2888C79.801 42.2888 79.7077 42.351 79.6456 42.4443C79.2724 43.1284 79.0547 43.8748 79.0547 44.59C79.0547 44.9321 79.1169 45.2431 79.1791 45.5541C79.6766 47.7309 81.7913 49.6279 84.7456 49.6279C89.9229 49.6279 93.2136 42.1705 95.7084 34.1429C95.8292 33.7543 96.1871 33.4569 96.594 33.4569V33.4569V33.4569C97.8889 33.4569 98.7213 34.6979 98.5909 35.9862C98.3452 38.4154 98.18 40.6309 98.18 42.351C98.18 43.4083 98.2422 44.3102 98.3977 44.9321C99.3617 49.1304 102.285 49.9389 104.431 49.9389C105.301 49.9389 106.079 49.7834 106.483 49.6901C106.523 49.6769 106.551 49.6525 106.571 49.6217C106.624 49.5375 106.585 49.4186 106.514 49.348V49.348C105.675 48.5084 105.084 47.109 104.679 45.3675C104.151 43.0351 103.933 40.0808 103.933 36.9399C103.933 30.8379 104.698 23.9947 105.287 19.6308ZM97.7113 31.3818C97.1295 31.1862 96.7963 30.5784 96.9639 29.988C97.1446 29.3516 97.3214 28.7194 97.495 28.0948C98.2305 25.4492 99.8971 25.8977 99.5169 28.6173C99.4311 29.2312 99.3473 29.8474 99.2663 30.4624C99.1712 31.1841 98.4013 31.6137 97.7113 31.3818V31.3818Z" fill="url(#paint2_linear_2039_2)"/>
<path d="M114.591 24.5007C110.486 24.5007 109.18 26.3666 109.18 29.0099C109.18 29.8807 109.336 30.8447 109.553 31.8398C110.393 35.4783 112.414 39.7076 113.067 42.5687C113.192 43.1595 113.285 43.6882 113.285 44.1236C113.285 45.2431 112.819 45.9273 111.544 45.9273C109.305 45.9273 107.843 42.5065 107.377 40.7339C107.345 40.5784 107.19 40.4851 107.066 40.4851V40.4851C106.978 40.4851 106.902 40.5379 106.836 40.5961C106.466 40.9227 106.257 41.6257 106.257 42.5376C106.257 43.004 106.319 43.5016 106.444 44.0303C107.066 46.6114 109.211 49.6279 113.938 49.6279C117.483 49.6279 118.634 47.9797 118.634 45.5541C118.634 44.7766 118.51 43.8748 118.292 42.9418C117.421 39.2723 115.244 34.8252 114.529 31.6843C114.374 31.0624 114.311 30.4715 114.311 29.9739C114.311 28.6367 114.871 27.8282 116.426 27.8282C117.732 27.8282 118.261 29.0099 118.447 29.8807L118.51 30.2538C118.572 30.4715 118.79 30.627 119.007 30.627V30.627C119.094 30.627 119.174 30.581 119.25 30.5392C119.702 30.2905 119.94 29.763 119.94 29.1032C119.94 28.8544 119.909 28.6056 119.847 28.3258C119.443 26.5843 117.701 24.5007 114.591 24.5007Z" fill="url(#paint3_linear_2039_2)"/>
<path d="M129.095 24.3763C123.964 24.3763 120.947 31.7776 120.947 38.5259C120.947 40.0808 121.103 41.6046 121.414 42.9729C122.284 46.7047 124.368 49.5346 127.882 49.5346C133.386 49.5346 136.185 42.6309 136.185 36.0692C136.185 34.4832 136.03 32.8972 135.688 31.4356C134.755 27.4239 132.578 24.3763 129.095 24.3763ZM127.882 47.4511C127.478 47.4511 127.167 46.9224 126.949 46.0206C126.7 44.9943 126.607 43.4705 126.607 41.729C126.607 35.696 127.913 27.0196 129.686 27.0196C130.246 27.0196 130.619 27.6105 130.836 28.6056C131.054 29.5075 131.147 30.7203 131.147 32.1197C131.147 38.1838 129.406 47.4511 127.882 47.4511Z" fill="url(#paint4_linear_2039_2)"/>
<path d="M146.125 24.4385C141.149 24.4385 138.35 30.5026 138.35 36.66C138.35 38.1216 138.506 39.5833 138.817 40.9516C139.936 45.6785 142.953 49.5968 148.239 49.5968C152.002 49.5968 153.464 45.0565 153.464 42.1955C153.464 41.6979 153.433 41.2626 153.339 40.8894C153.198 40.381 153.006 40.0265 152.762 39.9191C152.713 39.8978 152.65 39.8807 152.614 39.92V39.92C152.582 39.9555 152.598 40.011 152.605 40.0583C152.624 40.1981 152.624 40.3572 152.624 40.5162C152.624 42.8175 150.696 47.1712 147.991 47.1712C146.249 47.1712 145.13 45.4297 144.57 42.9418C144.259 41.5424 144.103 39.9253 144.103 38.2771C144.103 32.835 145.72 26.8952 148.395 26.8952C149.172 26.8952 149.546 27.6416 149.794 28.6367C150.043 29.7563 150.105 31.1868 150.385 32.2752C150.572 33.2081 150.914 33.8923 151.598 33.8923C152.344 33.8923 152.997 33.146 152.997 31.6221C152.997 31.1557 152.935 30.5959 152.78 29.9739C152.189 27.3617 150.043 24.4385 146.125 24.4385Z" fill="url(#paint5_linear_2039_2)"/>
<path d="M156.228 27.1129C156.477 27.1751 156.633 27.4239 156.726 27.8593C156.819 28.2325 156.85 28.6989 156.85 29.2587C156.85 32.4618 155.731 38.557 155.731 42.4443C155.731 43.3 155.761 44.0656 155.91 44.6526C155.915 44.6731 155.917 44.694 155.917 44.7152V44.7152C155.917 44.7353 155.92 44.7562 155.925 44.7757C157.14 49.5968 159.372 49.5968 160.458 49.5968C161.372 49.5968 162.644 48.7013 163.105 48.3725C163.122 48.36 163.132 48.3401 163.132 48.3185V48.3185C163.132 48.3007 163.125 48.2837 163.113 48.2711L163.098 48.2567C163.08 48.2384 163.056 48.227 163.03 48.2229C162.307 48.1074 161.852 47.3362 161.577 46.1449C161.329 45.0876 161.235 43.6882 161.235 42.1644C161.235 36.66 162.448 29.1343 162.448 27.0196C162.448 26.833 162.448 26.6776 162.417 26.5843C162.075 25.1226 160.862 24.4385 159.556 24.4385C157.535 24.4385 156.042 24.9983 156.042 26.491C156.042 26.546 156.042 26.6072 156.045 26.6718C156.052 26.8421 156.067 27.059 156.228 27.1129V27.1129ZM160.116 23.2568C161.453 23.2568 162.355 22.3549 162.355 21.0799C162.355 20.8933 162.324 20.6445 162.261 20.4268C161.919 18.8719 160.364 17.628 158.81 17.628C157.472 17.628 156.539 18.5299 156.539 19.7738C156.539 19.9915 156.571 20.2092 156.633 20.4268C157.006 22.0128 158.561 23.2568 160.116 23.2568Z" fill="url(#paint6_linear_2039_2)"/>
<path d="M185.107 48.7261C184.08 48.6328 183.458 47.6688 183.116 46.2382C182.868 45.212 182.774 43.937 182.774 42.5376C182.774 36.3491 184.671 27.6416 184.671 27.0196V27.0196C184.671 26.999 184.669 26.9783 184.664 26.9582C184.345 25.6344 183.315 24.5311 180.815 24.4385C180.705 24.4385 180.595 24.4852 180.529 24.5675C180.474 24.6369 180.484 24.6579 180.452 24.741V24.741C179.941 26.0866 177.751 26.3617 176.578 25.5275C175.49 24.7539 174.277 24.4385 173.072 24.4385C167.754 24.4385 164.831 31.4978 164.831 38.1527C164.831 39.6765 164.986 41.2004 165.297 42.5998C166.199 46.5803 168.438 49.5968 172.139 49.5968C174.116 49.5968 175.73 46.4921 176.958 42.9174C177.057 42.6296 177.565 42.6789 177.643 42.9729V42.9729C179.105 49.3791 183.054 49.5968 184.174 49.5968C184.951 49.5968 185.2 49.1304 185.231 48.8816V48.8816C185.231 48.8418 185.217 48.8018 185.191 48.772C185.169 48.7478 185.143 48.7261 185.107 48.7261ZM178.358 31.9331C177.799 33.7368 173.756 46.8291 171.423 46.8291C171.081 46.8291 170.802 46.3626 170.615 45.5541C170.428 44.7144 170.335 43.5638 170.335 42.1955C170.335 36.3802 172.077 27.1129 175.746 27.1129C176.704 27.1129 177.48 27.9976 178.072 29.0513C178.561 29.9216 178.587 30.9613 178.358 31.9331V31.9331Z" fill="url(#paint7_linear_2039_2)"/>
<path d="M194.62 49.0735C194.571 49.026 194.502 49.003 194.434 48.9894C193.687 48.838 193.218 48.0117 192.891 46.6736C192.58 45.3364 192.455 43.5016 192.455 41.3869C192.455 32.4307 194.695 18.4055 194.695 15.1402C194.695 14.9225 194.695 14.7359 194.663 14.6115C194.352 13.2743 193.731 12.248 191.025 12.248C189.874 12.248 186.889 12.9011 186.889 15.1091C186.889 15.2167 186.904 15.3393 186.923 15.4665C186.941 15.5806 186.96 15.731 187.076 15.731V15.731C187.542 15.7932 187.884 16.353 188.102 17.2548C188.319 18.1567 188.382 19.3695 188.382 20.8311C188.382 27.0196 186.858 37.1576 186.858 41.4802C186.858 42.1022 186.92 42.6309 186.982 42.9729L187.013 43.1906C188.444 49.3791 192.455 49.8767 193.575 49.8767C194.373 49.8767 194.595 49.4227 194.661 49.1716C194.663 49.1648 194.663 49.1579 194.663 49.1508V49.1508C194.663 49.1374 194.661 49.1239 194.653 49.1126C194.644 49.0979 194.632 49.085 194.62 49.0735Z" fill="url(#paint8_linear_2039_2)"/>
<defs>
<filter id="filter0_b_2039_2" x="-2.47357" y="4.23346" width="54.2206" height="58.6522" filterUnits="userSpaceOnUse" color-interpolation-filters="sRGB">
<feFlood flood-opacity="0" result="BackgroundImageFix"/>
<feGaussianBlur in="BackgroundImageFix" stdDeviation="1.23678"/>
<feComposite in2="SourceAlpha" operator="in" result="effect1_backgroundBlur_2039_2"/>
<feBlend mode="normal" in="SourceGraphic" in2="effect1_backgroundBlur_2039_2" result="shape"/>
</filter>
<linearGradient id="paint0_linear_2039_2" x1="31.4118" y1="53.9239" x2="23.766" y2="-10.3687" gradientUnits="userSpaceOnUse">
<stop stop-color="#FB508B"/>
<stop offset="0.989583" stop-color="#D779E9"/>
</linearGradient>
<linearGradient id="paint1_linear_2039_2" x1="12.8655" y1="56.1492" x2="33.6953" y2="15.3565" gradientUnits="userSpaceOnUse">
<stop stop-color="#F65698"/>
<stop offset="0.989583" stop-color="#D779E8"/>
</linearGradient>
<linearGradient id="paint2_linear_2039_2" x1="79.0547" y1="37.6894" x2="194.695" y2="37.6894" gradientUnits="userSpaceOnUse">
<stop stop-color="#FD4E86"/>
<stop offset="1" stop-color="#D67BEC"/>
</linearGradient>
<linearGradient id="paint3_linear_2039_2" x1="79.0547" y1="37.6894" x2="194.695" y2="37.6894" gradientUnits="userSpaceOnUse">
<stop stop-color="#FD4E86"/>
<stop offset="1" stop-color="#D67BEC"/>
</linearGradient>
<linearGradient id="paint4_linear_2039_2" x1="79.0547" y1="37.6894" x2="194.695" y2="37.6894" gradientUnits="userSpaceOnUse">
<stop stop-color="#FD4E86"/>
<stop offset="1" stop-color="#D67BEC"/>
</linearGradient>
<linearGradient id="paint5_linear_2039_2" x1="79.0547" y1="37.6894" x2="194.695" y2="37.6894" gradientUnits="userSpaceOnUse">
<stop stop-color="#FD4E86"/>
<stop offset="1" stop-color="#D67BEC"/>
</linearGradient>
<linearGradient id="paint6_linear_2039_2" x1="79.0547" y1="37.6894" x2="194.695" y2="37.6894" gradientUnits="userSpaceOnUse">
<stop stop-color="#FD4E86"/>
<stop offset="1" stop-color="#D67BEC"/>
</linearGradient>
<linearGradient id="paint7_linear_2039_2" x1="79.0547" y1="37.6894" x2="194.695" y2="37.6894" gradientUnits="userSpaceOnUse">
<stop stop-color="#FD4E86"/>
<stop offset="1" stop-color="#D67BEC"/>
</linearGradient>
<linearGradient id="paint8_linear_2039_2" x1="79.0547" y1="37.6894" x2="194.695" y2="37.6894" gradientUnits="userSpaceOnUse">
<stop stop-color="#FD4E86"/>
<stop offset="1" stop-color="#D67BEC"/>
</linearGradient>
</defs>
</svg>
