<svg width="61" height="61" viewBox="0 0 61 61" fill="none" xmlns="http://www.w3.org/2000/svg">
<path d="M60.4216 2.1943C60.3939 1.97704 60.3461 1.76797 60.2667 1.57181C60.2642 1.56709 60.2642 1.56016 60.263 1.55402L60.2606 1.5504C60.1732 1.34369 60.0539 1.15619 59.9193 0.982066C59.8861 0.940976 59.8535 0.900201 59.8184 0.86163C59.6745 0.69916 59.5183 0.549126 59.3368 0.426801C59.3321 0.423022 59.3258 0.42192 59.3209 0.418142C59.1455 0.302586 58.9519 0.215211 58.7489 0.146413C58.6985 0.128465 58.6493 0.113194 58.5976 0.099655C58.3848 0.0418772 58.1659 0 57.9353 0H40.3028C38.9124 0 37.7839 1.12848 37.7839 2.51893C37.7839 3.90937 38.9124 5.03785 40.3028 5.03785H51.8532L36.819 20.0721C32.81 16.8658 27.8743 15.1136 22.6703 15.1136C10.1705 15.1136 0 25.284 0 37.7839C0 50.2838 10.1705 60.4542 22.6703 60.4542C35.1702 60.4542 45.3407 50.2838 45.3407 37.7839C45.3407 32.5823 43.5899 27.6479 40.3809 23.6352L55.4164 8.59977V20.1514C55.4164 21.5419 56.5449 22.6703 57.9353 22.6703C59.3258 22.6703 60.4542 21.5419 60.4542 20.1514V2.51893C60.4542 2.46603 60.442 2.41565 60.4388 2.36401C60.435 2.30721 60.4293 2.25072 60.4216 2.1943ZM22.6703 55.4164C12.947 55.4164 5.03785 47.5073 5.03785 37.7839C5.03785 28.0605 12.947 20.1514 22.6703 20.1514C27.3779 20.1514 31.8101 21.9839 35.1426 25.3048C38.4701 28.6441 40.3028 33.0763 40.3028 37.7839C40.3028 47.5073 32.3937 55.4164 22.6703 55.4164Z" fill="url(#paint0_linear_2069_158)"/>
<defs>
<linearGradient id="paint0_linear_2069_158" x1="60.4542" y1="-3.16511e-06" x2="7.35254" y2="52.6932" gradientUnits="userSpaceOnUse">
<stop stop-color="#FC4F88"/>
<stop offset="1" stop-color="#D67AEA"/>
</linearGradient>
</defs>
</svg>
