<svg width="39" height="63" viewBox="0 0 39 63" fill="none" xmlns="http://www.w3.org/2000/svg">
<path d="M20.9208 24.9485V14.2729L26.1451 17.2892C26.4251 17.4514 26.7429 17.5369 27.0664 17.5368C27.7044 17.5368 28.3248 17.2058 28.6667 16.6136C29.1766 15.7307 28.8741 14.6018 27.9911 14.092L22.7668 11.0757L27.9911 8.05944C28.8741 7.54971 29.1766 6.42073 28.6667 5.53787C28.1569 4.65476 27.0281 4.35252 26.1451 4.86225L20.9208 7.87854V1.84596C20.9208 0.826496 20.0943 0 19.0749 0C18.0554 0 17.2289 0.826496 17.2289 1.84596V7.87842L12.0046 4.86213C11.1216 4.35203 9.99253 4.65476 9.48305 5.53775C8.97332 6.4206 9.27581 7.54959 10.1587 8.05932L15.383 11.0757L10.1587 14.092C9.27581 14.6018 8.97332 15.7307 9.48305 16.6136C9.82492 17.2059 10.4454 17.5368 11.0834 17.5368C11.4069 17.5368 11.7247 17.4514 12.0046 17.2892L17.2289 14.2731V24.9485C7.57396 25.8801 0 34.0386 0 43.9338C0 54.4516 8.55699 63.0086 19.0749 63.0086C29.5929 63.0086 38.1498 54.4516 38.1498 43.9338C38.1498 34.0386 30.5758 25.8801 20.9208 24.9485ZM19.0749 59.3167C10.5927 59.3167 3.69191 52.4159 3.69191 43.9338C3.69191 35.4516 10.5927 28.5508 19.0749 28.5508C27.557 28.5508 34.4578 35.4516 34.4578 43.9338C34.4578 52.4159 27.557 59.3167 19.0749 59.3167Z" fill="#A8A8A8"/>
</svg>
