<svg width="407" height="42" viewBox="0 0 407 42" fill="none" xmlns="http://www.w3.org/2000/svg">
<path d="M374.006 29.9684C375.284 29.8542 375.319 29.8062 374.735 29.1511C374.606 29.0071 374.389 28.8675 374.615 28.6866C374.705 28.6289 374.816 28.595 374.933 28.5896C375.049 28.5843 375.164 28.6078 375.263 28.6569C375.942 28.8781 376.525 29.2619 377.319 29.2997C377.857 29.3251 378.354 29.4203 378.624 28.9214C378.66 28.8534 378.794 28.8174 378.882 28.766C379.389 29.3094 379.868 28.9783 380.364 28.7494C380.418 28.7369 380.475 28.7351 380.529 28.7442C380.584 28.7532 380.635 28.7728 380.678 28.8012C381.023 29.4954 381.795 29.2288 382.422 29.2967C382.7 29.3273 383.034 29.3617 383.073 29.6453C383.103 29.8822 382.77 29.8614 382.61 29.9658C381.594 30.6273 380.475 30.1259 379.408 30.1556C378.897 30.1696 378.382 30.0932 377.868 30.0707C377.64 30.0605 377.405 30.0652 377.284 30.272C377.044 30.6834 376.845 30.5216 376.678 30.2346C376.647 30.1595 376.589 30.0931 376.511 30.0434C376.433 29.9937 376.338 29.9629 376.238 29.9548C376.027 29.9416 375.816 29.9595 375.745 30.1442C375.658 30.3692 375.861 30.4643 376.086 30.5407C376.353 30.6316 376.774 30.6048 376.72 30.9653C376.697 31.116 376.481 31.1542 376.307 31.1504C375.923 31.1415 375.373 31.2706 375.268 30.8834C375.14 30.4032 374.756 30.3267 374.289 30.3021C373.608 30.2664 373.147 29.7977 372.449 29.7816C371.826 29.7667 371.206 29.602 370.595 29.8525C370.501 29.883 370.399 29.8944 370.297 29.8855C370.196 29.8766 370.099 29.8477 370.016 29.8015C369.704 29.6584 369.582 29.6317 369.246 29.9191C368.793 30.3047 367.995 30.044 367.398 29.9157C367.127 29.8449 366.831 29.8567 366.571 29.9489C365.502 30.255 364.423 29.9306 363.347 29.892C362.193 29.8495 361.341 29.1095 360.155 29.118C359.227 29.1248 358.286 28.9536 357.43 29.3825C357.306 29.4453 357.091 29.5222 357.043 29.4406C356.68 28.825 355.73 29.1137 355.097 28.4743C355.256 29.3319 354.772 29.3578 354.145 29.2891C351.275 29.0409 348.389 28.9183 345.501 28.9218C342.744 28.8594 340 28.5821 337.246 28.6246C335.836 28.6458 334.441 28.4509 333.06 28.5134C330.541 28.6267 328.042 28.2501 325.527 28.4357C324.909 28.4811 324.27 28.327 323.645 28.3457C320.831 28.4306 318.03 28.1805 315.222 28.1758C314.534 28.1758 313.851 28.2183 313.164 28.2696C312.123 28.3469 311.083 28.5418 310.019 28.2416C309.434 28.1037 308.809 28.112 308.23 28.2654C307.013 28.5426 305.726 28.5738 304.489 28.3563C302.483 28.0276 300.515 28.4968 298.522 28.5002C297.176 28.5027 295.833 28.4514 294.493 28.4153C293.58 28.39 292.666 28.4298 291.762 28.5342C291.048 28.5809 290.33 28.5635 289.621 28.4824C287.398 28.3461 285.163 28.5248 282.938 28.2595C282.253 28.2567 281.575 28.3696 280.95 28.5906C280.318 28.7426 279.65 28.7782 278.998 28.6947C277.578 28.5535 276.138 28.5977 274.737 28.8254C275.385 29.0034 276.059 29.1175 276.743 29.1651C278.027 29.1324 279.355 29.2445 280.583 29.0211C281.791 28.8016 282.875 29.2334 284.03 29.1116C284.6 29.1071 285.161 29.009 285.679 28.8237C285.907 28.7238 286.166 28.6749 286.428 28.6824C286.689 28.6899 286.943 28.7534 287.162 28.8662C287.581 29.0661 288.073 29.1516 288.561 29.1095C291.043 28.9188 293.527 29.1481 296.018 29.0589C298.042 28.9414 300.074 28.9584 302.094 29.1099C302.396 29.1392 302.808 29.1001 302.777 29.461C302.745 29.8219 302.382 29.9106 301.967 29.9162C299.429 29.9501 296.883 29.8797 294.355 29.9743C292.269 30.0525 290.175 29.9743 288.103 30.1514C287.235 30.2265 286.458 30.401 285.703 29.8864C285.453 29.7166 285.036 29.8865 284.701 29.9378C283.025 30.1926 281.349 30.3845 279.659 30.0138C279.09 29.9484 278.509 29.9866 277.962 30.1255C276.739 30.2953 275.496 30.2397 274.287 30.3624C272.077 30.587 269.911 30.3501 267.722 30.2838C266.295 30.2842 264.87 30.3755 263.462 30.5568C262.852 30.6167 262.237 30.328 261.594 30.5993C261.94 30.8706 262.841 30.4804 262.696 31.209C262.92 31.2264 263.144 31.2515 263.369 31.2591C265.406 31.3079 267.435 31.1899 269.488 31.3385C270.501 31.4115 271.672 31.6043 272.746 31.3054C272.8 31.2909 272.87 31.268 272.913 31.2829C273.974 31.6434 275.045 31.1627 276.126 31.3118C276.8 31.3843 277.487 31.3456 278.14 31.198C278.715 31.0625 279.324 31.0397 279.913 31.1317C281.349 31.3839 282.758 31.1483 284.186 31.0604C285.362 30.9882 286.564 31.2111 287.748 31.1767C289.877 31.1156 292 31.451 294.116 31.265C296.676 31.04 299.212 30.8999 301.767 31.3075C302.606 31.4412 303.469 31.1823 304.319 31.0952C305.14 31.0541 305.963 31.072 306.78 31.1487C308.067 31.1992 309.382 31.4833 310.671 31.1194C310.939 31.0342 311.226 30.9927 311.515 30.9977C311.804 31.0027 312.089 31.0539 312.352 31.1483C312.704 31.2918 313.089 31.3778 313.485 31.4013C313.881 31.4248 314.278 31.3853 314.654 31.285C316.086 30.9279 317.454 31.6247 318.883 31.437C319.382 31.3716 319.913 31.485 320.393 31.2621C320.453 31.2339 320.52 31.2167 320.59 31.2118C320.66 31.207 320.73 31.2146 320.795 31.2341C321.504 31.6752 322.348 31.4081 323.118 31.5143C323.394 31.5786 323.688 31.5808 323.966 31.5208C324.244 31.4607 324.495 31.3408 324.69 31.1746C324.753 31.1179 324.83 31.0722 324.917 31.0404C325.004 31.0086 325.098 30.9914 325.194 30.99C325.29 30.9886 325.385 31.003 325.473 31.0323C325.561 31.0615 325.641 31.1049 325.706 31.1598C326.347 31.7393 327.17 31.6985 328 31.6845C331.117 31.6302 334.226 31.8365 337.337 31.8667C338.572 31.8546 339.807 31.9196 341.029 32.0611C341.479 32.0639 341.927 32.0114 342.356 31.9057C342.285 31.5741 341.643 31.7661 341.763 31.3916C341.795 31.3157 341.853 31.2481 341.93 31.1957C342.007 31.1434 342.101 31.1084 342.201 31.0944C342.575 31.0175 342.686 31.2549 342.852 31.434C343.069 31.688 343.375 31.8879 343.732 32.01C344.09 32.1322 344.485 32.1714 344.871 32.1231C346.751 32.0662 348.642 32.2764 350.53 32.3464C353.54 32.4577 356.551 32.5443 359.562 32.6437C359.734 32.6461 359.905 32.6623 360.073 32.6921C360.384 32.7532 360.739 32.8309 360.703 33.1447C360.664 33.4881 360.27 33.4249 359.964 33.4533C357.641 33.6707 355.347 33.1905 353.034 33.2678C350.685 33.3463 348.379 32.943 346.026 32.988C344.357 33.0203 342.669 32.6016 341.009 32.6687C339.691 32.7213 338.402 32.2441 337.066 32.6687C336.204 32.9417 335.249 32.7311 334.343 32.6262C333.261 32.5364 332.172 32.4929 331.083 32.4959C328.684 32.4292 326.279 32.3949 323.885 32.4157C322.131 32.4309 320.397 32.2458 318.671 32.284C317.221 32.3155 315.767 32.3142 314.316 32.3613C314.146 32.3664 313.859 32.3796 313.874 32.4997C313.965 33.1892 313.259 33.0203 312.835 33.0941C311.406 33.3412 309.985 33.1047 308.564 33.0003C308.222 32.9752 307.882 32.9404 307.542 32.9056C307.3 32.8806 306.935 32.9328 306.954 32.6483C306.976 32.3422 307.35 32.3651 307.627 32.3868C308.17 32.4292 308.705 32.4997 309.244 32.5604C309.327 32.5857 309.417 32.5918 309.504 32.5781C309.591 32.5644 309.672 32.5315 309.736 32.4832C308.934 32.2077 308.055 32.0982 307.183 32.1651C305.958 32.3601 304.705 32.4269 303.458 32.3639C303.076 32.3384 302.645 32.2866 302.55 32.76C302.496 33.0402 302.131 33.03 301.845 33.0317C300.507 33.0394 299.174 33.1591 297.827 33.0822C297.145 33.1163 296.467 33.1873 295.797 33.2945C295.415 33.3166 294.783 33.4673 294.76 32.9876C294.741 32.5872 295.326 32.6479 295.718 32.6254C295.77 32.6227 295.819 32.6095 295.861 32.5871C295.904 32.5647 295.938 32.534 295.961 32.498C293.499 32.5948 291.047 32.4297 288.523 32.4292C288.7 32.605 289.149 32.6568 288.98 32.9608C288.817 33.2555 288.467 33.2826 288.113 33.303C286.092 33.4181 284.069 33.4448 282.044 33.441C281.496 33.3808 280.937 33.4354 280.425 33.5994C281.004 33.7896 281.646 33.6529 282.253 33.7726C283.007 33.886 283.782 33.885 284.536 33.7696C286.704 33.4936 288.909 33.4499 291.092 33.6397C292.837 33.8696 294.617 33.8818 296.366 33.6758C297.869 33.4444 299.103 33.8346 300.366 34.3127C300.621 34.4095 300.901 34.5857 301.158 34.4065C301.504 34.1645 301.033 34.0961 300.933 33.9475C300.834 33.7989 300.872 33.6813 301.066 33.6202C301.291 33.5493 301.572 33.5315 301.686 33.7132C302.33 34.7322 303.56 34.7033 304.729 34.7767C304.939 34.8199 305.162 34.8033 305.358 34.7297C305.554 34.6561 305.71 34.5305 305.799 34.3751C305.992 34.0354 306.412 34.1097 306.781 34.1467C307.541 34.2227 308.294 34.3946 309.066 34.1636C309.19 34.1286 309.325 34.1263 309.451 34.157C309.576 34.1876 309.686 34.2496 309.762 34.3335C309.819 34.3851 309.852 34.4505 309.855 34.5188C309.857 34.5871 309.83 34.654 309.777 34.7084C309.6 34.9075 309.338 34.8812 309.076 34.8553C308.817 34.7816 308.531 34.7885 308.278 34.8744C308.544 35.0867 308.875 35.0128 309.16 35.0565C309.363 35.0875 309.575 35.1279 309.6 35.3185C309.629 35.5372 309.393 35.5571 309.197 35.5847C309.001 35.6123 308.763 35.6921 308.607 35.6391C307.691 35.3342 306.705 35.9146 305.798 35.4811C305.703 35.4574 305.603 35.449 305.503 35.4563C305.404 35.4636 305.307 35.4865 305.219 35.5236C304.98 35.6085 304.562 35.6395 304.617 35.9108C304.662 36.129 305.046 36.0581 305.283 36.115C306.611 36.3639 307.993 36.3774 309.329 36.1545C310.675 36.0004 311.907 36.2233 313.188 36.3095C313.216 36.3144 313.244 36.3181 313.273 36.3205C314.127 36.2967 314.899 35.9923 315.855 36.4054C316.57 36.7137 317.661 36.4347 318.556 36.5523C319.882 36.7074 321.227 36.7359 322.561 36.6372C324.476 36.5196 326.347 36.8758 328.262 36.7039C329.629 36.6525 330.999 36.7013 332.354 36.8495C332.667 36.8871 332.986 36.8632 333.284 36.7799C333.246 36.7442 333.224 36.7022 333.189 36.695C332.807 36.6101 332.118 36.8224 332.108 36.3948C332.097 35.9388 332.797 36.1885 333.166 36.0997C333.895 35.9235 334.638 36.1515 335.382 36.146C335.954 36.1418 335.961 35.8938 336.12 35.6208C336.35 35.2285 335.903 35.3053 335.713 35.2213C335.48 35.1177 335.22 35.037 335.311 34.7797C335.396 34.5369 335.681 34.4974 335.939 34.5288C337.444 34.7139 338.968 34.7016 340.475 34.8175C341.746 34.9151 343.011 34.8387 344.278 34.8922C346.69 34.9941 349.084 35.2319 351.493 35.3389C351.906 35.3571 352.304 35.4662 352.361 35.8637C352.396 36.1133 352.601 36.1944 352.866 36.2547C353.187 36.3273 353.546 36.4572 353.294 36.7587C353.084 37.0104 352.722 37.2304 352.274 36.9867C352.135 36.9107 351.927 36.8109 351.914 36.709C351.796 35.8199 350.884 36.0033 350.193 35.9205C349.736 35.8736 349.273 35.8723 348.816 35.9167C349.625 35.9945 350.391 36.2441 351.032 36.6385C351.179 36.7366 351.448 36.8032 351.345 36.9858C351.319 37.0333 351.28 37.0757 351.23 37.1099C351.181 37.1442 351.123 37.1694 351.06 37.1839C350.996 37.1983 350.93 37.2016 350.865 37.1935C350.8 37.1854 350.738 37.1661 350.683 37.137C350.21 36.7858 349.761 37.0024 349.265 37.0406C348.064 37.1176 346.855 37.0775 345.666 36.9213C345.097 36.8542 345.052 36.4309 344.862 36.1243C344.603 35.7091 344.317 35.4964 343.909 35.997C343.671 36.287 343.343 36.2517 343.006 36.264C341.863 36.3065 340.71 36.1846 339.577 36.3872C339.35 36.4067 339.13 36.4583 338.927 36.5396C338.845 36.6038 338.746 36.6526 338.637 36.682C338.528 36.7114 338.411 36.7208 338.297 36.7093C338.182 36.6978 338.073 36.6657 337.976 36.6157C337.88 36.5657 337.8 36.4989 337.742 36.4207C337.572 36.2509 337.293 36.2509 337.037 36.2131C336.965 36.4148 337.351 36.3991 337.276 36.5235C336.724 37.4308 337.826 37.0635 338.035 37.027C339.722 36.7345 341.33 37.0461 342.986 37.2104C343.948 37.306 344.992 37.1047 346.014 37.2002C346.866 37.28 347.728 37.2936 348.584 37.3459C348.909 37.3658 349.378 37.3089 349.369 37.6902C349.36 38.057 348.927 37.9254 348.63 37.9449C346.334 38.088 344.06 37.8469 341.775 37.7475C340.392 37.6876 338.991 37.4855 337.586 37.7276C337.048 37.7955 336.499 37.8055 335.957 37.7573C330.952 37.5144 325.94 37.6983 320.933 37.6053C319.705 37.5824 318.479 37.4448 317.251 37.4223C316.225 37.404 315.197 37.4698 314.171 37.511C311.981 37.6223 309.784 37.6277 307.594 37.5272C307.096 37.5324 306.599 37.5681 306.109 37.6341C306.207 37.7177 306.337 37.7745 306.479 37.7961C306.622 37.8178 306.769 37.8031 306.9 37.7543C307.253 37.6491 307.645 37.657 307.991 37.7764C308.168 37.8436 308.36 37.8825 308.556 37.8908C308.753 37.899 308.949 37.8764 309.134 37.8244C310.079 37.6728 310.965 38.111 311.915 38.0791C311.959 38.0821 312.001 38.0921 312.04 38.1083C312.079 38.1246 312.113 38.1468 312.14 38.1737C312.168 38.2005 312.188 38.2315 312.2 38.2646C312.212 38.2978 312.215 38.3324 312.209 38.3665C312.205 38.412 312.19 38.4564 312.163 38.4971C312.137 38.5377 312.1 38.5737 312.056 38.6029C312.011 38.6321 311.959 38.6539 311.903 38.6669C311.848 38.6799 311.789 38.6839 311.731 38.6786C311.102 38.7153 310.47 38.7133 309.842 38.6727C308.645 38.566 307.439 38.5375 306.237 38.5878C305.283 38.6124 304.356 38.4604 303.412 38.4285C303.141 38.42 302.742 38.4132 302.816 38.0927C302.89 37.7721 303.262 37.7152 303.636 37.7819C303.743 37.811 303.844 37.854 303.934 37.9093C304.051 37.9687 304.159 38.0732 304.313 37.9895C304.345 37.9689 304.371 37.9429 304.388 37.9135C304.405 37.8841 304.413 37.852 304.412 37.8197C304.382 37.6431 304.181 37.6248 304.017 37.6308C303.159 37.6639 302.318 37.4652 301.448 37.5705C300.139 37.6698 298.821 37.6869 297.509 37.6214C297.328 37.6214 297.115 37.5165 296.962 37.6881C297.047 37.8978 297.218 37.9004 297.437 37.8273C297.655 37.7543 297.854 37.7551 297.861 37.9904C297.867 38.184 297.752 38.3882 297.481 38.3627C296.951 38.3126 296.33 38.395 295.935 38.0625C295.762 37.9113 295.544 37.7958 295.3 37.7262C295.056 37.6566 294.794 37.635 294.538 37.6634C293.538 37.7683 292.536 37.7123 291.506 37.7726C292.013 38.0347 292.632 38.1305 293.229 38.0392C293.526 38.0286 293.968 38.0392 293.944 38.3678C293.92 38.6964 293.501 38.6565 293.192 38.6166C292.654 38.5483 292.108 38.5292 291.565 38.5597C291.148 38.5818 290.63 38.609 290.788 38.0447C290.836 37.8749 290.665 37.79 290.483 37.79C289.26 37.79 288.051 37.4953 286.628 37.6719C287.066 37.8563 287.547 37.9717 288.043 38.0116C288.248 38.0396 288.454 38.0808 288.476 38.2765C288.483 38.322 288.477 38.3681 288.459 38.4117C288.441 38.4553 288.412 38.4954 288.373 38.5295C288.334 38.5635 288.286 38.5907 288.232 38.6092C288.179 38.6278 288.121 38.6372 288.063 38.637C287.638 38.6411 287.214 38.6695 286.794 38.7219C287.385 38.9552 288.06 39.0231 288.707 38.9143C290.28 38.7164 291.856 38.8493 293.428 38.8293C295.087 38.8094 296.755 38.8973 298.408 38.8858C300.121 38.8743 301.84 38.8128 303.559 38.8293C306.302 38.8552 309.045 38.9486 311.786 38.9143C312.81 38.9015 313.911 39.0217 314.876 38.5551C314.982 38.5177 315.098 38.5023 315.213 38.5103C315.329 38.5183 315.439 38.5495 315.535 38.6009C316.081 38.8122 316.696 38.8874 317.298 38.8166C318.487 38.6468 319.616 38.944 320.774 38.9864C320.884 39.0019 320.997 38.9922 321.099 38.9584C322.195 38.3462 323.342 38.6667 324.454 38.8777C325 38.9813 325.47 38.8077 325.981 38.8051C326.861 38.8009 327.745 38.975 328.628 38.7525C328.999 38.6595 329.658 38.9418 329.451 38.2523C329.418 38.1407 329.66 38.0456 329.85 38.0744C330.103 38.1122 330.325 38.2371 330.196 38.4438C329.983 38.786 330.209 38.809 330.544 38.8433C331.327 38.9244 332.088 39.1563 332.897 38.8675C333.189 38.7635 333.454 38.8 333.425 38.4298C333.402 38.1436 333.82 38.1513 334.097 38.156C336.526 38.195 338.959 38.1683 341.382 38.3491C341.865 38.3966 342.352 38.4178 342.839 38.4124C343.371 38.3941 343.815 38.4273 343.907 38.9775C344.332 38.4706 346.309 38.1708 346.773 38.5211C347.261 38.8909 346.515 38.9457 346.424 39.166C346.462 39.2149 346.478 39.2662 346.52 39.2845C346.823 39.4191 347.448 39.3337 347.38 39.6951C347.301 40.112 346.709 39.9214 346.359 39.9073C343.125 39.7834 339.888 39.8458 336.661 39.94C334.595 40.0003 332.54 39.7469 330.489 39.9184C329.381 40.021 328.261 40.0114 327.156 39.8899C325.202 39.6573 323.233 39.9617 321.286 39.6823C320.664 39.6003 320.028 39.606 319.409 39.6993C317.785 39.9354 316.178 39.6428 314.574 39.6751C308.068 39.8067 301.565 39.7672 295.061 39.7634C291.828 39.7634 288.596 39.6428 285.363 39.6462C280.898 39.6513 276.434 39.7906 271.966 39.7817C269.087 39.7757 266.208 39.864 263.329 39.96C261.652 40.016 259.968 39.9727 258.287 40.0317C254.826 40.1532 251.362 40.2351 247.899 40.3094C244.352 40.385 240.804 40.4258 237.257 40.4933C233.483 40.5654 229.706 40.6041 225.935 40.748C223.856 40.8278 221.776 40.883 219.7 40.9786C219.643 40.985 219.585 40.986 219.528 40.9815C217.088 40.6058 214.625 40.9603 212.182 40.9527C209.102 40.9425 206.001 40.9314 202.91 41.0456C201.303 41.1051 199.657 41.0758 198.03 41.0456C196.375 41.0138 194.717 41.0104 193.057 41.0524C191.549 41.0906 190.031 41.0418 188.517 41.0439C187.089 41.0461 185.662 41.0388 184.236 41.0792C183.748 41.0932 183.26 41.1148 182.776 41.103C174.899 40.9153 167.02 41.0027 159.142 40.99C156.768 40.9862 154.397 40.8911 152.029 40.889C149.373 40.8864 146.716 40.7794 144.059 40.8372C140.524 40.914 136.988 40.869 133.451 40.8147C130.584 40.7722 127.709 41.0185 124.844 40.9573C121.728 40.8907 118.609 40.9675 115.497 40.9446C112.038 40.9191 108.566 40.8907 105.103 41.0032C101.392 41.1238 97.6824 40.976 93.9732 41.0032C89.9642 41.032 85.9758 40.7348 81.9771 40.6746C79.7184 40.6406 77.4635 40.576 75.2127 40.4809C73.7526 40.4202 72.2946 40.2504 70.8459 40.2402C67.8096 40.2186 64.8155 39.7944 61.7944 39.7902C58.3846 39.7855 54.9861 39.605 51.587 39.4819C47.8459 39.346 44.0971 39.3588 40.3527 39.1639C37.7399 39.028 35.0934 39.1079 32.4605 39.0858C32.0229 39.0503 31.5806 39.0894 31.1641 39.2004C30.7476 39.3114 30.3668 39.4918 30.0477 39.729C29.6653 40.152 29.3641 40.6167 29.1537 41.1081C28.9785 41.3811 28.7082 41.6098 28.374 41.7676C28.0398 41.9254 27.6554 42.0059 27.2652 41.9997C26.6042 41.9173 26.4486 41.4902 26.2735 41.0278C26.0865 40.5332 25.8587 40.1574 26.4904 39.7171C26.8271 39.4832 26.4796 39.1779 26.0485 39.1053C25.262 38.9705 24.4534 38.9328 23.652 38.9936C21.8557 39.1338 20.0632 38.9762 18.2691 38.9741C15.4719 38.9711 12.7387 39.1473 10.2576 40.3009C9.4985 40.6546 8.69659 40.9013 7.86866 40.3905C7.73528 40.3081 7.54876 40.2355 7.49238 40.1252C7.20188 39.3701 6.56161 38.7273 5.69716 38.3228C5.67439 38.3139 5.66301 38.2876 5.64728 38.2689C5.25799 37.8103 5.99049 37.6049 6.01489 37.2643C6.03658 36.9578 5.47595 36.5426 6.55708 36.5111C6.30186 36.3818 6.08637 36.2097 5.92607 36.0074C5.76578 35.8051 5.66465 35.5775 5.62993 35.341C5.56798 35.1438 5.58702 34.9364 5.68437 34.7481C5.78172 34.5599 5.95241 34.4006 6.17213 34.2927C6.62541 34.0664 6.62486 33.8138 6.27352 33.5259C5.58005 32.9574 5.27317 32.3414 5.80289 31.5792C5.84834 31.4714 5.86419 31.3573 5.84943 31.2443C5.83467 31.1313 5.78962 31.0221 5.71722 30.9237C5.56158 30.5837 5.56158 30.212 5.71722 29.872C5.79755 29.7109 5.81753 29.5352 5.77482 29.3656C5.73211 29.1959 5.62848 29.0393 5.4761 28.9141C5.32372 28.789 5.1289 28.7004 4.91451 28.6589C4.70013 28.6174 4.47508 28.6247 4.26576 28.6798C4.09387 28.7257 3.91176 28.7435 3.73073 28.732C3.5497 28.7206 3.3736 28.6802 3.21334 28.6132C3.05307 28.5463 2.91205 28.4544 2.79902 28.3431C2.68599 28.2317 2.60335 28.1034 2.55622 27.9661C2.00155 26.6397 1.71419 25.2946 2.88967 24.0532C3.26921 23.6532 3.30933 23.37 2.70966 23.066C1.66648 22.537 1.50707 21.6827 1.5499 20.8047C1.60436 20.2461 1.43695 19.6879 1.0706 19.2066C0.647884 18.7304 0.468304 18.1475 0.567261 17.5728C0.666219 16.998 1.03654 16.4732 1.60521 16.1017C2.13873 15.7132 2.11596 15.5399 1.49677 15.2398C0.520817 14.7638 -0.107048 14.1032 0.121217 13.1109C0.140269 12.865 0.111569 12.6182 0.0360933 12.379C-0.0074108 12.236 -0.0116405 12.0874 0.0236917 11.9431C0.059024 11.7987 0.133107 11.6619 0.241039 11.5417C1.30429 10.5265 2.2694 9.47908 3.72248 8.7055C5.46712 7.76955 7.31846 6.96183 9.25288 6.29263C10.6534 5.77294 12.169 5.47018 13.7162 5.40101C14.15 5.38997 14.5165 5.37257 14.5013 4.91318C14.4992 4.87842 14.5095 4.84389 14.5312 4.81352C14.5529 4.78316 14.5851 4.75818 14.624 4.74144C14.663 4.72471 14.7072 4.71689 14.7515 4.71887C14.7959 4.72086 14.8387 4.73257 14.8749 4.75268C15.8194 5.40823 16.881 5.00064 17.8841 4.95648C19.4194 4.87222 20.9479 4.72498 22.4635 4.51534C24.6594 4.23555 26.8797 4.14681 29.0783 3.86065C31.114 3.61757 33.1688 3.48492 35.2279 3.46367C36.3078 3.49707 37.3893 3.447 38.4567 3.31421C39.438 3.14438 40.5029 3.27685 41.5233 3.28534C44.982 3.31421 48.4412 3.27218 51.8988 3.28534C54.9036 3.29765 57.9172 3.2535 60.9226 3.26156C64.661 3.27218 68.4022 3.28619 72.1368 3.40634C74.7995 3.49126 77.4503 3.50782 80.112 3.40634C81.3899 3.35709 82.6863 3.54687 83.9616 3.4713C86.1607 3.34095 88.3593 3.45305 90.5579 3.383C92.0371 3.33587 93.5314 3.31336 95.004 3.24713C96.7596 3.16773 98.5168 3.30529 100.282 3.09683C101.3 2.99577 102.327 2.96041 103.352 2.99111C105.724 3.02465 108.089 2.87689 110.455 2.75462C112.141 2.6697 113.828 2.69305 115.516 2.59115C120.193 2.30838 124.891 2.31009 129.564 1.95174C130.299 1.89527 131.039 2.11265 131.783 1.92541C131.838 1.90874 131.897 1.9031 131.956 1.90902C132.015 1.91494 132.07 1.93223 132.118 1.95931C132.166 1.98639 132.205 2.0224 132.23 2.06408C132.256 2.10576 132.268 2.15179 132.265 2.19799C132.271 2.24366 132.264 2.28985 132.246 2.33333C132.227 2.37681 132.196 2.41654 132.155 2.44974C132.115 2.48293 132.066 2.50879 132.011 2.52552C131.956 2.54225 131.898 2.54944 131.839 2.54658C130.994 2.53511 130.204 2.84378 129.324 2.72617C128.239 2.58352 127.161 2.84336 126.081 2.93082C125.343 3.0151 124.593 3.0151 123.855 2.93082C122.855 2.80434 121.831 2.89509 120.893 3.1932C122.402 3.36728 123.78 3.11126 125.168 3.10531C128.141 3.09258 131.12 3.07602 134.087 2.93548C136.556 2.8183 139.028 2.8459 141.501 2.6765C143.313 2.49751 145.149 2.55186 146.938 2.83741C148.081 3.0548 149.267 2.77712 150.438 2.78179C152.059 2.78816 153.68 2.72362 155.301 2.68625C155.528 2.68073 155.868 2.72617 155.963 2.63064C156.732 1.85536 157.743 2.27994 158.653 2.27739C159.225 2.29746 159.798 2.28326 160.367 2.23493C160.958 2.17365 161.559 2.22746 162.116 2.3916C162.946 2.60389 163.861 2.43619 164.734 2.38014C166.063 2.23136 167.41 2.2077 168.746 2.30966C169.8 2.43703 170.882 2.2171 171.965 2.21498C173.796 2.21158 175.625 2.14534 177.457 2.2345C178.98 2.30838 180.484 2.05279 182.004 2.04006C183.149 2.03072 184.3 1.94961 185.402 2.29479C185.479 2.32395 185.564 2.33698 185.649 2.33259C188.35 1.96575 191.069 2.07019 193.788 2.09737C194.57 2.10501 195.366 2.02477 196.156 1.99335C199.038 1.87914 201.925 1.90207 204.808 1.83286C206.796 1.78531 208.787 1.61292 210.793 1.72034C212.448 1.7656 214.104 1.7347 215.754 1.62779C217.664 1.55306 219.577 1.63373 221.49 1.49574C225.258 1.22359 229.047 1.4431 232.822 1.25119C235.922 1.09325 239.033 1.03634 242.14 0.990066C245.622 0.938692 249.101 0.813025 252.585 0.797316C256.608 0.778634 260.632 0.672063 264.653 0.542566C266.255 0.491192 267.852 0.562947 269.448 0.535349C271.763 0.495863 274.075 0.395237 276.388 0.319238C278.957 0.234322 281.534 0.285688 284.107 0.279744C287.257 0.272527 290.41 0.33495 293.556 0.237297C295.607 0.17361 297.662 0.141339 299.711 0.0300999C300.771 -0.0543202 301.842 0.0393332 302.852 0.304803C303.146 0.389719 303.514 0.481429 303.444 0.791796C303.367 1.13401 302.972 1.07711 302.674 1.02404C301.313 0.782029 300.018 1.26052 298.687 1.24099C297.407 1.2943 296.124 1.25907 294.853 1.1357C294.091 1.03685 293.315 1.03757 292.554 1.13783C291.09 1.28855 289.626 1.47282 288.139 1.1616C287.481 1.02362 286.832 1.35181 286.129 1.33865C284.267 1.30384 282.411 1.69189 280.531 1.31189C280.054 1.21551 279.472 1.42611 278.941 1.50508C277.439 1.72841 275.941 1.44734 274.441 1.49405C272.781 1.54584 271.126 1.74879 269.479 1.7611C267.465 1.77639 265.428 2.0927 263.419 1.68043C263.26 1.63374 263.089 1.61815 262.921 1.63501C261.607 1.89716 260.241 1.95914 258.897 1.81757C258.643 1.77842 258.382 1.77697 258.127 1.81332C257.158 2.01608 256.142 2.04511 255.156 1.89824C253.889 1.72841 252.65 1.9407 251.405 2.04133C249.091 2.22984 246.774 1.97381 244.465 2.09142C243.218 2.22212 241.96 2.28003 240.702 2.26466C238.232 2.09865 235.822 2.60686 233.351 2.49138C230.676 2.36613 227.987 2.5937 225.305 2.66121C223.457 2.70749 221.596 2.70367 219.742 2.72405C215.141 2.77712 210.537 2.75079 205.939 2.87519C204.312 2.91765 202.676 2.90619 201.059 2.89558C199.424 2.88539 197.843 2.84166 196.248 3.20722C195.624 3.26799 194.99 3.23776 194.38 3.11805C192.926 3.05591 191.469 3.09856 190.025 3.24543C189.095 3.2968 188.245 2.97242 187.306 3.06923C185.702 3.23481 184.046 2.91511 182.462 3.36431C182.323 3.39022 182.177 3.39211 182.036 3.36983C179.792 3.17537 177.524 3.25732 175.292 3.13546C173.246 3.0238 171.262 3.31209 169.249 3.24373C168.188 3.19105 167.124 3.25941 166.089 3.44668C165.784 3.51108 165.468 3.53264 165.153 3.51036C162.511 3.3041 159.85 3.28761 157.203 3.46111C154.67 3.59443 152.134 3.53075 149.605 3.69548C147.836 3.83917 146.052 3.81279 144.291 3.61694C141.868 3.30317 139.581 3.7821 137.238 3.96892C135.431 4.15495 133.609 4.23484 131.787 4.20795C130.702 4.16549 129.611 4.20795 128.523 4.23342C128.149 4.2193 127.78 4.30409 127.476 4.47415C127.934 4.59327 128.422 4.62672 128.9 4.57181C131.52 4.40538 134.159 4.63762 136.765 4.4334C139.711 4.20243 142.66 4.34254 145.603 4.25763C148.217 4.18248 150.847 4.15912 153.471 4.17271C154.891 4.17992 156.314 4.04533 157.718 4.30815C158.368 4.43127 158.959 4.17441 159.551 4.08355C160.905 3.92676 162.282 3.94871 163.626 4.1485C164.271 4.25855 164.94 4.24399 165.575 4.10605C166.15 3.96441 166.759 3.92938 167.354 4.00373C168.636 4.05906 169.922 4.01783 171.194 3.8806C171.669 3.8564 172.081 3.99481 172.545 3.97358C175.614 3.83389 178.69 3.87253 181.762 3.82115C184.88 3.76893 188.002 3.79993 191.123 3.70865C193.795 3.6301 196.491 3.70865 199.177 3.7804C199.364 3.76609 199.553 3.78204 199.732 3.82724C199.911 3.87245 200.076 3.94596 200.217 4.04321C200.853 4.72254 201.798 4.65757 202.626 4.63762C203.793 4.60747 204.966 4.61851 206.35 4.57733C205.743 4.28899 205.018 4.19458 204.324 4.31367C203.599 4.45326 202.85 4.50028 202.106 4.45293C201.743 4.42915 201.363 4.31155 201.347 4.0084C201.331 3.68954 201.772 3.76808 202.02 3.746C203.098 3.6509 204.179 3.52989 205.261 3.51885C208.185 3.48871 211.116 3.60378 214.033 3.48914C218.343 3.31931 222.665 3.50613 226.969 3.17835C227.799 3.14651 228.632 3.17678 229.455 3.26878C229.938 3.32254 230.43 3.3057 230.905 3.2191C231.793 3.04253 232.723 3.03511 233.616 3.19745C234.011 3.2739 234.427 3.24183 234.795 3.1066C235.109 2.99058 235.462 2.95378 235.804 3.00129C237.306 3.12661 238.822 3.11337 240.321 2.96181C241.238 2.88794 242.135 3.05225 243.057 2.97625C246.352 2.70119 249.667 2.60189 252.979 2.67904C256.633 2.7682 260.283 2.7215 263.932 2.65824C265.641 2.62852 267.354 2.67353 269.064 2.59243C269.465 2.60228 269.861 2.6544 270.244 2.7474C270.295 2.75161 270.344 2.7639 270.388 2.78351C270.433 2.80312 270.472 2.82964 270.503 2.86145C270.534 2.89325 270.556 2.92968 270.568 2.96847C270.58 3.00727 270.582 3.04762 270.574 3.08706C270.563 3.16696 270.512 3.24038 270.434 3.29213C270.355 3.34388 270.254 3.37001 270.152 3.36515C269.636 3.38086 269.122 3.37238 268.604 3.37917C264.972 3.4263 261.33 3.38937 257.706 3.55538C255.595 3.65218 253.472 3.46281 251.372 3.75747C250.429 3.88994 249.492 3.64665 248.543 3.67255C247.571 3.70057 246.601 3.72903 245.629 3.77106C243.239 3.87381 240.843 3.89419 238.45 3.92094C236.791 3.93962 235.102 3.92518 233.483 4.0483C230.647 4.26059 227.823 4.0568 225.003 4.21602C221.006 4.44147 216.999 4.39306 213 4.51322C211.423 4.56077 209.884 4.35103 208.324 4.39689C208.014 4.40623 207.705 4.44613 207.24 4.48519C208.012 4.73472 208.839 4.86297 209.674 4.86265C211.957 4.89449 214.241 5.02824 216.52 4.98408C219.914 4.91869 223.307 4.84396 226.702 4.8567C226.816 4.86812 226.933 4.8613 227.044 4.83664C227.155 4.81198 227.259 4.77 227.349 4.7132C227.537 4.57083 227.774 4.47344 228.031 4.43239C228.287 4.39134 228.554 4.40834 228.798 4.48138C230.504 4.88049 232.214 4.53784 233.92 4.54421C235.426 4.54973 236.949 4.4903 238.445 4.40411C240.765 4.27036 243.072 4.44147 245.385 4.34169C248.499 4.15989 251.623 4.11736 254.743 4.21431C256.441 4.29371 258.098 3.94471 259.776 4.16761C260.817 4.3056 261.746 3.80162 262.813 3.85384C267.053 4.06104 271.289 3.68402 275.53 3.71756C276.356 3.79032 277.19 3.78191 278.013 3.69252C278.097 3.67227 278.189 3.67867 278.268 3.71036C278.347 3.74205 278.407 3.79655 278.436 3.86234C278.518 4.06444 278.31 4.13449 278.125 4.202C277.717 4.37109 277.264 4.46026 276.803 4.46184C275.023 4.39476 273.279 4.66734 271.519 4.79684C270.536 4.86986 269.581 4.69876 268.604 4.74589C266.381 4.85416 264.151 4.76032 261.929 4.81722C260.628 4.85076 259.312 4.89109 258.014 5.01252C256.579 5.14711 255.155 4.97516 253.723 5.01252C250.613 5.09149 247.502 5.1038 244.389 5.22481C242.766 5.29739 241.137 5.28322 239.516 5.18236C237.944 5.07494 236.383 5.34667 234.81 5.37724C232.676 5.41969 230.539 5.4821 228.412 5.64005C226.846 5.73031 225.271 5.70914 223.709 5.57679C223.053 5.52376 222.39 5.58404 221.766 5.75341C220.966 5.97674 220.095 5.81455 219.296 5.7394C217.933 5.61203 216.615 5.85107 215.272 5.82645C211.417 5.75682 207.55 5.99628 203.713 5.54283C202.541 5.33975 201.33 5.31696 200.147 5.47574C199.652 5.49366 199.166 5.36668 198.784 5.11952C197.248 4.42746 195.719 4.86137 194.2 5.08555C193.767 5.14923 193.406 5.32119 193.025 5.02356C192.868 4.90043 192.655 4.94926 192.453 4.95393C191.393 4.97855 190.333 4.99129 189.273 5.0104C188.719 5.02016 188.124 4.89449 187.76 5.41205C187.627 5.60141 187.296 5.53942 187.039 5.50291C186.624 5.44474 186.208 5.3853 185.75 5.32034C185.804 5.40993 185.817 5.46427 185.852 5.47701C186.163 5.58994 186.742 5.49739 186.687 5.90158C186.626 6.33465 186.122 6.28117 185.666 6.2765C184.837 6.26843 184.008 6.33424 183.179 6.35674C182.962 6.36269 182.659 6.38349 182.625 6.1504C182.595 5.94788 182.9 5.97335 183.058 5.89565C183.617 5.62817 184.259 5.65491 184.878 5.52541C184.047 5.23249 183.109 5.18278 182.234 5.38531C182.009 5.45067 181.767 5.46995 181.529 5.44135C181.292 5.41274 181.068 5.33719 180.879 5.22184C180.35 4.86987 179.78 5.19128 179.23 5.20401C179.149 5.20614 179.038 5.3628 179.004 5.4613C178.95 5.61288 179.119 5.65873 179.263 5.65024C179.773 5.6201 180.226 5.93217 180.775 5.75512C181.068 5.66001 181.496 5.73091 181.529 6.02175C181.562 6.31258 181.132 6.30112 180.869 6.31598C178.849 6.38861 176.825 6.29153 174.832 6.02641C174.315 5.9691 174.283 5.88334 174.384 5.50037C174.405 5.44362 174.397 5.38259 174.361 5.33054C174.31 5.29188 174.244 5.26664 174.174 5.25828C174.103 5.24992 174.031 5.25885 173.967 5.28383C172.144 5.77804 170.348 5.49866 168.56 5.15009C168.311 5.10126 168.115 5.06857 167.945 5.22736C167.88 5.28808 167.812 5.40781 167.845 5.46046C167.947 5.61925 168.177 5.62052 168.371 5.63495C169.369 5.7101 170.373 5.67996 171.374 5.73345C171.867 5.8324 172.371 5.89355 172.879 5.91603C172.532 6.16475 172.083 6.30863 171.613 6.32193C169.305 6.61913 166.991 6.2489 164.681 6.42637C163.124 6.5461 161.546 6.50491 159.976 6.51893C158.543 6.53166 157.11 6.5219 155.676 6.60385C156.346 6.77467 157.053 6.83524 157.753 6.78175C158.037 6.75237 158.322 6.73691 158.608 6.73546C160.575 6.7499 162.54 6.69683 164.505 6.66923C165.806 6.65055 167.13 6.67263 168.443 6.71169C169.757 6.75075 171.063 6.63399 172.386 6.6756C174.178 6.7325 175.98 6.71805 177.78 6.70149C180.406 6.67517 183.033 6.60342 185.658 6.63398C188.604 6.66838 191.549 6.60087 194.496 6.67645C196.32 6.76401 198.15 6.75181 199.972 6.63993C201.057 6.52269 202.163 6.6145 203.192 6.90742C203.686 7.033 204.211 7.06388 204.723 6.99743C207.119 6.81274 209.523 6.93799 211.92 6.86539C213.438 6.81953 214.95 6.75542 216.468 6.74438C217.287 6.73801 218.168 7.13542 218.925 6.55035C218.955 6.5342 218.99 6.52337 219.027 6.51859C219.064 6.51381 219.101 6.51518 219.137 6.52261C219.173 6.53003 219.206 6.54335 219.235 6.56167C219.264 6.58 219.287 6.60291 219.304 6.62889C219.666 7.26958 220.43 7.0921 221.03 7.10229C222.369 7.15471 223.71 7.12106 225.042 7.00167C226.875 6.8079 228.723 6.71103 230.573 6.71169C231.427 6.70617 232.282 6.66243 233.135 6.68366C235.765 6.74947 238.388 6.57199 241.011 6.54779C242.839 6.53124 244.667 6.48666 246.494 6.46289C249.639 6.41831 252.784 6.37033 255.925 6.27098C257.281 6.22852 258.678 6.2854 260.032 6.25314C261.776 6.21068 263.515 6.31513 265.255 6.2956C267.869 6.26588 270.492 6.01156 273.124 6.35504C274.023 6.47964 274.944 6.47043 275.838 6.32787C276.79 6.17878 277.765 6.14115 278.731 6.21621C279.986 6.30112 281.233 6.2162 282.484 6.25866C285.846 6.37117 289.207 6.42467 292.569 6.35122C293.779 6.3249 294.97 6.47519 296.175 6.47859C298.063 6.48708 299.946 6.48454 301.834 6.38095C303.603 6.28372 305.361 6.53209 307.123 6.63781C309.273 6.76518 311.469 6.91675 313.629 6.63781C314.425 6.5637 315.229 6.56784 316.023 6.65012C318.567 6.81231 321.125 6.61318 323.658 6.8225C326.971 7.09593 330.306 6.876 333.614 7.17278C333.974 7.2338 334.346 7.23581 334.707 7.17866C335.068 7.12152 335.41 7.00646 335.711 6.84075C335.951 6.73264 336.225 6.67932 336.502 6.68682C336.778 6.69433 337.047 6.76236 337.277 6.88321C338.495 7.45555 339.771 7.37445 341.058 7.14518C341.22 7.10453 341.393 7.09967 341.558 7.13114C341.723 7.1626 341.874 7.22918 341.993 7.32351C342.182 7.46235 342.376 7.62071 342.3 7.84659C342.215 8.09836 341.917 8.10897 341.666 8.09114C340.256 7.99136 338.805 8.15144 337.458 7.6343C337.036 7.47211 336.536 7.3371 336.15 7.76804C336.097 7.82013 336.03 7.86207 335.953 7.89069C335.877 7.91932 335.793 7.93385 335.708 7.93319C334.737 7.80922 333.76 7.94763 332.805 7.89711C330.844 7.79351 328.885 7.72728 326.922 7.70902C324.402 7.68525 321.88 7.77186 319.366 7.5256C318.681 7.4643 317.988 7.48765 317.313 7.59481C316.049 7.79054 314.815 7.43559 313.576 7.53155C312.451 7.64693 311.314 7.67536 310.182 7.61646C307.855 7.44153 305.53 7.73747 303.198 7.73789C301.657 7.73789 300.116 7.68907 298.578 7.71879C297.389 7.74214 296.227 8.04656 295.01 7.9039C293.037 7.67335 291.052 8.0058 289.071 7.86611C288.613 7.84314 288.153 7.88119 287.711 7.97863C286.328 8.26098 284.954 7.95486 283.577 7.97863C283.089 7.9609 282.601 7.99995 282.128 8.09454C281.471 8.27071 280.759 8.27415 280.1 8.10431C279.436 7.93447 278.758 8.2062 278.073 8.05293C277.822 7.99689 277.298 8.0283 277.336 8.42953C277.368 8.77344 277.78 8.7934 278.123 8.83119C278.409 8.86303 278.593 8.69192 278.821 8.60573C279.63 8.30131 280.475 8.46689 280.753 9.07744C280.911 9.42304 281.14 9.45191 281.494 9.48206C283.321 9.5935 285.155 9.61477 286.986 9.54574C288.588 9.52409 290.191 9.57462 291.794 9.61071C294.396 9.6693 296.999 9.93508 299.589 9.93338C302.068 9.93338 304.557 9.78096 307.043 9.72577C308.616 9.69095 310.193 9.67312 311.76 9.7402C312.749 9.78266 313.724 10.1312 314.727 9.95462C316.935 9.56613 319.169 9.77714 321.39 9.72831C323.534 9.68118 325.682 9.67185 327.825 9.73851C330.422 9.81875 333.03 9.90324 335.618 9.87691C337.673 9.89835 339.725 10.02 341.761 10.2412C344.266 10.4594 346.786 10.4633 349.279 10.7053C351.762 10.946 354.256 11.0449 356.742 11.2309C358.954 11.3978 361.149 11.6979 363.356 11.931C363.838 11.9811 364.328 11.9773 364.813 12.0108C365.084 12.0295 365.481 11.9816 365.485 12.2864C365.489 12.5989 365.095 12.5479 364.822 12.5598C363.303 12.5864 361.784 12.5311 360.276 12.3942C357.393 12.2117 354.508 12.0434 351.622 11.8894C350.648 11.8812 349.681 11.7656 348.749 11.5459C348.172 11.382 347.619 11.644 347.048 11.6173C344.734 11.5081 342.418 11.4088 340.108 11.2844C338.452 11.1948 336.804 11.0755 335.136 11.0797C334.319 11.1109 333.499 11.0988 332.684 11.0437C330.888 10.856 329.085 11.0984 327.291 10.9358C326.748 10.9564 326.204 10.8978 325.688 10.763C325.588 10.7185 325.47 10.7035 325.357 10.7206C323.593 11.1702 321.84 10.7397 320.083 10.6904C319.166 10.6645 318.252 10.7562 317.343 10.7681C315.391 10.7936 313.433 10.7023 311.48 10.6182C310.911 10.5929 310.341 10.5986 309.773 10.6352C307.42 10.7876 305.064 10.957 302.705 10.9986C301.215 11.0102 299.726 11.0837 298.246 11.219C296.836 11.3608 295.386 11.2063 293.955 11.2284C290.811 11.2772 287.666 11.3634 284.521 11.4173C283.161 11.4402 281.801 11.4211 280.433 11.5226C280.628 11.6688 280.862 11.7794 281.118 11.8465C281.374 11.9137 281.646 11.9357 281.914 11.9111C284.346 11.4419 286.821 11.6691 289.276 11.5884C290.078 11.6013 290.881 11.5729 291.678 11.5035C292.664 11.3693 293.576 11.7349 294.548 11.7896C296.978 11.8772 299.412 11.8685 301.841 11.7637C304.247 11.7094 306.657 11.7408 309.066 11.7336C312.814 11.7226 316.563 11.7102 320.312 11.6967C320.637 11.6967 321.004 11.6703 321.033 12.0083C321.062 12.3463 320.727 12.348 320.382 12.3862C318.981 12.5407 317.574 12.3921 316.173 12.4711C316.116 12.4741 316.029 12.4592 316.006 12.4825C315.41 13.091 314.781 12.6486 314.231 12.4685C313.335 12.1743 312.476 12.4409 311.602 12.4503C311.546 12.4501 311.491 12.4591 311.44 12.4767C311.388 12.4942 311.343 12.5199 311.305 12.5522C311.154 12.7437 311.209 13.0973 310.742 13.0286C310.221 12.9517 309.613 13.0863 309.205 12.7169C308.968 12.5046 308.925 12.5781 308.737 12.7674C308.686 12.8372 308.613 12.8949 308.524 12.9345C308.435 12.9741 308.334 12.994 308.232 12.9922C308.13 12.9903 308.03 12.9668 307.943 12.9241C307.857 12.8814 307.787 12.8211 307.741 12.7496C307.665 12.6683 307.559 12.6067 307.438 12.573C307.317 12.5392 307.185 12.5348 307.061 12.5603C306.366 12.6078 305.705 12.981 304.977 12.697C304.196 13.4069 303.136 12.8341 302.229 13.054C301.886 13.1414 301.521 13.1618 301.166 13.1134C300.81 13.065 300.476 12.9493 300.191 12.7764C299.674 12.4758 299.052 12.5959 298.398 12.6914C297.209 12.8655 296.05 13.3941 294.751 12.9369C294.142 12.7224 293.415 12.8494 292.749 12.8252C291.423 12.7768 290.13 13.3636 288.801 12.9101C288.347 12.7556 287.916 13.0277 287.464 13.0061C287.382 13.2608 287.852 13.5079 287.422 13.6935C287.018 13.8684 286.793 13.6625 286.592 13.4154C286.534 13.3491 286.451 13.2984 286.354 13.2703C286.258 13.2422 286.153 13.238 286.054 13.2583C284.988 13.4574 283.937 13.1733 282.88 13.1619C281.748 13.1483 280.611 13.1148 279.475 13.1576C278.824 13.1823 278.117 13.0112 277.702 13.6493C277.559 13.8688 277.091 13.8297 276.82 13.7342C276.25 13.5919 275.669 13.4765 275.081 13.3886C274.729 13.3037 274.447 13.2188 274.201 13.541C274.002 13.8021 273.757 13.6616 273.577 13.4964C273.368 13.3236 273.11 13.1927 272.823 13.115C272.536 13.0372 272.229 13.0149 271.929 13.0498C271.533 13.0698 270.785 12.9721 270.973 13.6599C270.987 13.6986 270.989 13.7392 270.98 13.7787C270.971 13.8182 270.951 13.8557 270.922 13.8885C270.892 13.9213 270.854 13.9486 270.81 13.9686C270.765 13.9885 270.716 14.0005 270.665 14.0038C270.552 14.0269 270.433 14.0189 270.327 13.9811C270.221 13.9432 270.135 13.8779 270.083 13.7962C269.941 13.5903 269.955 13.2701 269.533 13.2651C268.739 13.2557 267.95 13.0158 267.15 13.2523C266.811 13.3529 266.867 13.4646 267.042 13.6463C267.228 13.8378 267.903 13.9062 267.575 14.1843C267.409 14.3526 267.184 14.4802 266.928 14.5523C266.672 14.6243 266.396 14.6377 266.13 14.591C265.019 14.346 264.971 14.2089 265.843 13.2816C265.185 13.3332 264.523 13.3573 263.861 13.3538C262.332 13.2842 260.819 13.5321 259.262 13.2748C257.497 12.9831 255.675 13.3067 253.881 13.3776C251.174 13.4846 248.472 13.6489 245.77 13.8259C243.385 13.9826 240.999 14.3197 238.582 14.1983C238.287 14.1834 237.965 14.1677 237.917 14.4751C237.872 14.6071 237.893 14.7477 237.976 14.8678C238.06 14.9878 238.199 15.0782 238.365 15.12C239.085 15.2597 239.835 15.2753 240.564 15.1659C240.41 15.1234 240.254 15.0895 240.103 15.0432C239.835 14.9608 239.649 14.8237 239.76 14.5808C239.78 14.5321 239.812 14.487 239.855 14.4481C239.897 14.4093 239.95 14.3776 240.008 14.3549C240.067 14.3322 240.13 14.3189 240.196 14.3158C240.261 14.3128 240.326 14.32 240.388 14.3371C240.742 14.4055 241.142 14.4106 241.379 14.6861C241.677 15.0321 241.882 14.9409 242.123 14.6262C242.49 14.1461 243.153 14.2964 243.583 14.4233C244.197 14.6033 243.49 14.7481 243.406 14.9621C243.909 15.0614 244.392 15.2003 244.399 14.5613C244.399 14.4131 244.465 14.2874 244.658 14.2518C244.85 14.2161 244.975 14.3112 245.046 14.4505C245.243 14.8377 245.41 14.7978 245.614 14.4433C245.73 14.242 246.045 14.1677 246.121 14.4046C246.349 15.1166 247.054 14.7664 247.554 14.9179C247.562 14.8863 247.563 14.8537 247.555 14.822C247.547 14.7903 247.531 14.7601 247.508 14.7334C247.485 14.7066 247.455 14.6838 247.42 14.6664C247.385 14.6489 247.347 14.6371 247.306 14.6318C247.078 14.563 246.601 14.7167 246.713 14.3439C246.792 14.0828 247.223 14.1316 247.467 14.1987C248.373 14.4458 249.369 14.1354 250.253 14.4959C250.318 14.5167 250.389 14.5252 250.459 14.5205C250.53 14.5159 250.598 14.4983 250.658 14.4692C251.493 13.893 252.494 14.3473 253.393 14.1868C253.49 14.1698 253.686 14.2106 253.705 14.2569C254.042 15.0954 254.414 14.5222 254.866 14.3189C255.318 14.1155 255.933 14.3503 256.439 14.1435C256.465 14.1325 256.617 14.2467 256.646 14.3189C256.698 14.4462 256.552 14.5095 256.446 14.5859C256.163 14.8146 255.806 14.9784 255.414 15.0595C255.021 15.1405 254.607 15.1358 254.218 15.0457L254.242 15.2258C254.79 15.2987 255.344 15.3448 255.9 15.3637C258.556 15.3336 261.213 15.2737 263.861 15.3043C266.517 15.3353 269.174 15.098 271.831 15.3336C272.403 15.3414 272.974 15.3143 273.541 15.2525C275.825 15.1676 278.108 15.3276 280.398 15.2809C282.032 15.2478 283.635 15.7756 285.308 15.7123C285.423 15.7134 285.537 15.7346 285.64 15.7744C285.743 15.8141 285.833 15.8714 285.905 15.942C286.722 17.0187 287.965 16.4868 289.07 16.5267C289.143 17.0689 289.016 17.2484 288.351 17.2603C287.062 17.285 285.771 17.2654 284.481 17.2603C284.322 17.2747 284.162 17.2454 284.028 17.1774C283.894 17.1094 283.794 17.0069 283.746 16.8875C283.735 16.8427 283.711 16.8004 283.676 16.7642C283.64 16.728 283.594 16.6989 283.541 16.6793C283.489 16.6596 283.431 16.65 283.373 16.6513C283.315 16.6525 283.257 16.6645 283.206 16.6863C282.772 16.8158 283.23 16.9011 283.238 17.0094C283.262 17.344 282.924 17.2739 282.701 17.2769C281.784 17.2888 280.865 17.2952 279.948 17.2769C276.177 17.2009 272.412 17.3491 268.642 17.4043C264.81 17.4609 260.977 17.5148 257.143 17.566C256.735 17.5311 256.323 17.6006 255.969 17.7643C258.051 17.8259 259.911 17.7915 261.771 17.8157C263.461 17.8378 265.127 17.4964 266.844 17.7477C267.549 17.8509 268.441 17.7095 269.154 17.7622C270.386 17.8526 271.566 17.6594 272.771 17.6798C274.615 17.7108 276.446 17.7346 278.286 17.8853C279.291 17.9673 280.346 17.859 281.363 17.946C283.331 18.1137 285.301 17.9749 287.268 18.014C289.603 18.0611 291.952 18.1732 294.285 18.0649C296.54 17.96 298.792 18.0314 301.046 17.9664C304.188 17.8764 307.339 17.9987 310.48 17.901C312.589 17.8356 314.709 18.0343 316.808 17.7163C316.916 17.6994 317.073 17.6739 317.144 17.7163C318.098 18.2861 319.178 17.8734 320.191 17.9596C320.533 17.9885 320.854 18.0135 320.877 18.3328C320.901 18.675 320.606 18.7149 320.238 18.692C319.299 18.6321 318.437 18.9858 317.478 18.9956C316.736 19.0032 315.96 19.0992 315.205 19.0703C313.833 19.0185 312.467 18.833 311.097 18.8207C310.175 18.8126 309.283 19.1629 308.334 19.1637C308.027 19.1637 308.058 19.4079 307.929 19.5391C307.825 19.6625 307.666 19.7521 307.484 19.7911C307.301 19.8302 307.107 19.816 306.937 19.7513C306.545 19.5998 306.902 19.3692 306.932 19.2091C305.016 18.7549 303.089 19.0954 301.167 19.1136C300.767 19.1174 300.367 19.0958 299.967 19.0988C299.285 19.1043 298.62 19.0869 298.065 19.5306C297.624 19.883 297.276 19.776 297.118 19.3259C297.026 19.0648 296.744 19.1641 296.547 19.1624C295.431 19.1518 294.336 19.39 293.214 19.2826C293.156 19.562 293.686 19.6494 293.439 19.9076C293.336 20.0056 293.189 20.0696 293.029 20.0869C292.868 20.1042 292.705 20.0735 292.572 20.001C291.563 19.6019 290.704 20.1228 289.783 20.2387C289.461 20.3303 289.13 20.4013 288.794 20.451C287.204 20.4302 285.604 20.7304 284.022 20.3576C283.386 20.2362 282.719 20.2567 282.096 20.4166C281.119 20.6144 280.094 20.6182 279.114 20.4277C277.534 20.1033 276 20.3165 274.451 20.5525C273.649 20.722 272.814 20.7754 271.987 20.71C270.854 20.6032 269.708 20.6131 268.578 20.7393C268.598 20.9486 268.776 20.9177 268.893 20.913C270.92 20.8336 272.944 20.986 274.981 20.8306C276.587 20.7083 278.238 21.0004 279.858 20.8688C282.208 20.6799 284.548 20.9873 286.888 20.8625C287.883 20.8094 288.866 20.6281 289.86 20.541C290.324 20.4986 291.158 20.3776 291.174 20.6684C291.2 21.1108 290.458 20.8332 290.059 20.9053C289.526 21.0092 289.012 21.1661 288.531 21.3724C289.137 21.4836 289.468 21.7545 289.9 21.3779C289.987 21.3015 290.165 21.2034 290.254 21.2263C291.23 21.4811 292.163 21.0926 293.141 21.1312C295.616 21.2297 298.098 21.1614 300.578 21.0998C301.744 21.0709 302.915 21.1469 304.084 21.1805C304.214 21.1815 304.342 21.2068 304.457 21.2542C304.573 21.3016 304.672 21.3697 304.747 21.453C304.916 21.639 305.333 21.7694 305.11 22.0636C304.905 22.3345 304.553 22.1612 304.25 22.1638C303.342 22.1788 302.448 21.9858 301.678 21.6084C301.481 21.7277 301.585 21.8339 301.624 21.9358C301.67 22.0632 301.791 22.2092 301.604 22.3013C301.417 22.3935 301.218 22.3013 301.052 22.2062C300.576 21.9269 300 21.7704 299.405 21.7583C298.81 21.7462 298.225 21.8792 297.73 22.1387C297.443 22.2844 297.238 22.1842 297.041 22.0479C296.877 21.9567 296.691 21.8928 296.494 21.8601C296.298 21.8274 296.095 21.8266 295.897 21.8577C295.604 21.8679 295.283 21.8802 295.409 22.2347C295.445 22.3353 295.393 22.4678 295.28 22.4291C294.355 22.112 293.529 23.3862 292.484 22.2513C292.863 23.2766 293.893 23.4537 294.754 23.0966C295.818 22.6892 297.019 22.5525 298.188 22.7055C298.88 22.7794 299.494 22.9624 300.242 22.7123C300.395 22.6571 300.562 22.6294 300.731 22.6314C300.899 22.6334 301.065 22.6649 301.216 22.7237C301.367 22.7825 301.499 22.867 301.602 22.9711C301.706 23.0751 301.778 23.1961 301.814 23.325C301.869 23.4524 301.915 23.6647 302.071 23.643C302.918 23.5352 303.776 23.8129 304.611 23.5874C304.844 23.5246 304.89 23.4256 304.751 23.2278C304.49 22.8559 304.783 22.7607 305.209 22.7463C306.618 22.6958 308.031 22.6296 309.443 22.5803C310.272 22.552 311.102 22.5349 311.932 22.5289C312.224 22.5268 312.549 22.5756 312.561 22.8686C312.572 23.128 312.267 23.159 312.015 23.2117C311.457 23.317 310.883 23.3611 310.31 23.3428C310.123 23.3065 309.929 23.3054 309.741 23.3398C309.554 23.3741 309.38 23.4428 309.233 23.5403C310.468 23.6188 311.711 23.5566 312.923 23.3556C314.096 22.1426 315.73 22.6151 317.246 22.6172C317.958 22.6172 318.67 22.5434 319.382 22.4899C319.631 22.472 319.824 22.3774 319.803 22.1464C319.782 21.9154 319.58 21.8492 319.324 21.8538C318.926 21.8044 318.518 21.8595 318.163 22.0105C317.849 22.1927 317.517 22.3693 317.321 21.8933C317.309 21.866 317.287 21.8421 317.258 21.8246C317.228 21.8071 317.193 21.7969 317.156 21.7952C317.119 21.7936 317.082 21.8005 317.05 21.8152C317.019 21.8298 316.993 21.8516 316.977 21.8776C316.372 22.6236 315.572 22.2508 314.862 22.0661C314.533 21.9846 314.178 21.994 313.857 22.0929C312.533 22.3908 311.128 22.3932 309.802 22.0997C309.388 22.0046 309.027 21.7842 308.628 22.0997C308.573 22.1421 308.431 22.1782 308.393 22.1549C307.634 21.6849 306.658 21.9714 305.845 21.7099C305.638 21.6437 305.367 21.5953 305.396 21.3664C305.419 21.18 305.662 21.1304 305.854 21.1117C307.306 21.008 308.77 21.063 310.203 21.2751C310.352 21.2934 310.504 21.5065 310.644 21.3643C311.09 20.9121 311.475 20.9682 311.868 21.3957C311.888 21.4106 311.912 21.4212 311.939 21.4265C311.966 21.4318 311.994 21.4318 312.021 21.4263C313.28 20.8408 314.639 21.1465 315.969 21.1329C317.311 21.1193 318.645 21.0663 319.995 21.1219C321.442 21.1817 322.904 21.0892 324.358 21.1643C324.716 21.1826 325.197 21.0879 325.285 21.473C325.372 21.8513 324.865 21.9282 324.555 22.0296C324.303 22.1138 324.031 22.1551 323.757 22.1507C323.483 22.1463 323.213 22.0964 322.966 22.0042C322.489 21.8443 321.958 21.8078 321.453 21.9001C321.261 21.9265 320.997 21.9757 320.996 22.1523C320.996 22.3735 321.297 22.4253 321.505 22.4304C322.047 22.444 322.589 22.3922 323.131 22.4016C325.326 22.4393 327.52 22.5221 329.715 22.5289C331.763 22.5336 333.802 22.6622 335.864 22.5289C338.545 22.3591 341.232 22.6754 343.914 22.8142C346.542 22.9505 349.174 23.0312 351.796 23.2138C356.018 23.5076 360.251 23.6719 364.474 23.9542C367.579 24.1619 370.678 24.4535 373.795 24.5737C375.218 24.6285 376.629 24.8543 378.048 24.9889C380.773 25.2475 383.502 25.4878 386.226 25.7532C386.99 25.8283 387.74 25.9909 388.503 26.0793C389.04 26.1482 389.589 26.1314 390.118 26.03C389.758 25.9204 389.379 25.8523 388.993 25.8279C387.826 25.8873 386.759 25.4458 385.605 25.4611C385.288 25.4608 384.974 25.415 384.678 25.326C382.607 24.7202 380.408 24.7626 378.272 24.493C377.086 24.3432 375.693 24.4892 374.767 23.6222C374.715 23.5606 374.669 23.4957 374.631 23.4282C375.22 23.2985 375.847 23.3228 376.416 23.4974C378.206 23.8192 380.054 23.7661 381.846 24.0859C383.741 24.4255 385.662 24.676 387.574 24.9537C388.247 25.0594 388.926 25.1373 389.609 25.1872C391.935 25.378 394.247 25.6689 396.532 26.0584C399.102 26.4406 401.729 26.5947 404.245 27.1989C404.499 27.2363 404.757 27.2496 405.014 27.2384C406.076 27.2774 406.272 27.5487 405.746 28.2658C406.036 28.4059 406.28 28.1308 406.566 28.2132C406.794 28.2794 407.012 28.3622 406.999 28.5732C406.997 28.6192 406.98 28.6641 406.951 28.704C406.922 28.7439 406.881 28.7778 406.831 28.8027C406.782 28.8276 406.725 28.843 406.667 28.8474C406.608 28.8517 406.549 28.8451 406.495 28.828C405.621 28.6322 404.646 28.7825 403.843 28.3639C403.48 28.2297 403.077 28.1737 402.678 28.2017C402.433 28.1847 402.075 28.22 402.094 27.9381C402.114 27.6311 402.5 27.6307 402.763 27.6748C403.412 27.8321 404.08 27.9363 404.757 27.986C404.865 27.986 404.974 27.9983 405.158 28.0094C404.589 27.5164 403.83 27.6358 403.202 27.4999C402.384 27.3707 401.552 27.2984 400.718 27.2838C400.635 27.2778 400.517 27.2732 400.469 27.3101C399.366 28.1631 398.1 27.5806 396.912 27.5428C394.204 27.4579 391.533 27.0804 388.846 26.8329C385.755 26.548 382.668 26.2266 379.574 25.9481C378.78 25.8763 377.971 25.9056 377.169 25.889C376.67 25.8793 376.62 26.064 376.877 26.3404C377.212 26.7017 377.629 27.0108 377.94 27.3933C378.183 27.6905 378.351 27.4944 378.433 27.2596C378.767 26.2962 379.185 26.0962 380.444 26.272C381.047 26.4131 381.664 26.5169 382.288 26.5824C382.39 26.5737 382.492 26.5936 382.577 26.6384C382.662 26.6832 382.724 26.7502 382.752 26.8274C382.812 27.0443 382.589 27.0821 382.391 27.1246C382.256 27.153 382.073 27.1526 382.052 27.2889C382.025 27.4587 382.235 27.4829 382.377 27.5504C382.639 27.7207 382.931 27.86 383.245 27.964C383.475 28.0064 384.224 28.4225 383.93 27.6404C383.857 27.4481 384.101 27.3827 384.243 27.4837C384.89 27.9414 385.738 28.0238 386.496 28.2713C386.785 28.366 387.155 28.5078 387.041 28.7919C386.918 29.0997 386.491 29.0296 386.228 28.9248C385.528 28.6479 384.813 28.8984 384.107 28.8288C381.868 28.6076 379.607 28.4836 377.384 28.2043C375.928 28.0213 374.468 27.8621 373.01 27.6884C372.17 27.5882 371.366 27.8332 370.537 27.8451C370.368 27.8476 370.185 27.9274 370.031 27.8977C367.168 27.3487 364.195 27.8234 361.319 27.3033C360.244 27.1751 359.159 27.1141 358.072 27.1207C357.597 27.0965 357.078 27.1815 356.764 26.7705C356.69 26.6728 356.493 26.5921 356.394 26.6758C355.759 27.2069 355.289 26.8223 354.758 26.5484C354.524 26.4668 354.267 26.4304 354.011 26.4423C351.641 26.3204 349.272 26.1429 346.899 26.1107C345.483 26.135 344.067 26.0886 342.659 25.9718L342.616 26.1765C343.389 26.3 344.155 26.4622 344.935 26.5395C346.793 26.7229 348.669 26.7904 350.527 26.9267C352.087 27.0409 353.662 27.0889 355.221 27.1925C357.652 27.3534 360.084 27.5513 362.523 27.64C363.224 27.6655 363.86 27.9049 364.548 27.9181C366.427 27.9538 368.298 28.0671 370.17 28.1877C371.237 28.3115 372.29 28.4987 373.32 28.7477C374.06 28.8747 374.445 29.2725 374.006 29.9684ZM248.477 29.9293C249.701 29.8614 250.92 30.1416 252.15 29.9421C252.449 29.8937 252.855 29.9268 252.872 30.2575C252.889 30.5883 252.5 30.6031 252.186 30.6214C251.582 30.5774 250.976 30.686 250.458 30.9313C252.754 30.8532 254.814 30.6371 256.944 30.7288C256.735 30.5335 256.327 30.5989 256.312 30.3097C256.298 30.0091 256.712 30.0206 256.963 29.8393C256.496 29.8211 256.146 29.7705 255.919 30.1221C255.89 30.1819 255.839 30.2336 255.772 30.2711C255.706 30.3086 255.627 30.3302 255.546 30.3333C255.464 30.3363 255.383 30.3207 255.312 30.2884C255.242 30.256 255.185 30.2083 255.148 30.151C254.979 29.9827 254.751 29.8563 254.492 29.787C254.233 29.7176 253.954 29.7082 253.688 29.7599C252.629 29.8296 251.573 29.7535 250.516 29.7994C249.837 29.8291 249.141 29.7196 248.481 29.9348C248.311 29.9264 248.137 29.9293 247.969 29.9077C247.686 29.8707 247.334 29.8325 247.35 29.548C247.369 29.2084 247.73 29.309 248.009 29.3188C248.213 29.326 248.466 29.4326 248.589 29.1914C247.67 28.9448 246.675 28.9313 245.745 29.1528C246.597 30.1624 247.401 30.3913 248.477 29.9293ZM308.494 25.3655C308.037 25.3655 307.751 25.3562 307.464 25.3655C306.08 25.4689 304.689 25.5173 303.298 25.5107C301.921 25.4543 300.556 25.6058 299.185 25.5358C299.042 25.5286 298.869 25.5464 298.869 25.6933C298.869 25.8271 299.032 25.8631 299.176 25.8754C299.32 25.8878 299.462 25.8856 299.605 25.8946C299.916 25.9137 300.317 25.8848 300.342 26.2143C300.368 26.5437 299.963 26.5883 299.659 26.5909C298.63 26.5994 297.601 26.59 296.572 26.5628C296.174 26.5518 295.575 26.7327 295.458 26.306C295.354 25.9315 296.015 25.9413 296.292 25.7392C296.351 25.6844 296.403 25.6252 296.448 25.5625C286.589 25.7234 276.776 25.7324 266.98 26.2313C267.758 26.2934 268.54 26.3175 269.322 26.3034C269.964 26.3 270.642 26.1255 271.137 26.6507C271.334 26.8601 271.578 26.7548 271.794 26.5921C272.416 26.1204 273.232 26.2461 273.982 26.1969C274.048 26.1892 274.115 26.193 274.178 26.208C274.241 26.223 274.299 26.2488 274.349 26.2836C274.398 26.3183 274.436 26.3612 274.461 26.409C274.487 26.4569 274.498 26.5086 274.495 26.5603C274.481 26.8104 274.196 26.8622 273.944 26.9127C273.5 27.001 273.149 26.7429 272.58 26.6295C272.93 27.0307 273.298 27.3033 273.695 27.204C274.494 27.0036 275.276 27.2222 276.059 27.1318C278.178 26.8872 280.321 26.8019 282.461 26.877C284.778 26.959 287.081 26.7726 289.387 26.8651C290.872 26.925 292.325 26.6265 293.833 26.7845C295.579 26.9675 297.401 27.1802 299.113 26.9789C301.228 26.7301 303.31 26.9857 305.397 26.838C305.655 26.836 305.912 26.8519 306.166 26.8855C307.747 26.9976 309.328 27.336 311.019 26.8516C309.665 26.8627 308.316 26.7169 307.016 26.4189C307.87 26.3926 307.881 25.7226 308.494 25.3655ZM323.697 24.6514C338.859 24.6968 353.971 25.4326 369.065 26.5764C368.73 26.3609 368.328 26.2186 367.9 26.1642C365.956 26.0733 364.032 25.8419 362.099 25.6751C359.516 25.4522 356.898 25.4912 354.308 25.3116C349.521 24.98 344.722 24.7665 339.925 24.7265C337.074 24.7028 334.232 24.6089 331.39 24.4956C328.825 24.3692 326.251 24.4213 323.697 24.6514ZM212.276 10.4764C218.877 10.4875 225.479 10.5006 232.076 10.1932C230.14 10.2297 228.217 9.8663 226.288 10.0438C225.011 10.205 223.702 10.0634 222.529 9.63703C222.298 9.52125 222.038 9.44545 221.767 9.4147C221.496 9.38394 221.219 9.39895 220.956 9.45871C220.775 9.51178 220.502 9.53174 220.656 9.76101C220.921 10.1546 220.522 10.1041 220.265 10.1338C220.009 10.1286 219.752 10.147 219.501 10.1886C218.842 10.4081 218.349 10.4242 217.905 9.86036C217.598 9.47059 217.146 9.58693 216.973 10.037C216.885 10.2671 216.635 10.2637 216.415 10.2607C215.815 10.2527 215.212 10.2459 214.616 10.1962C213.82 10.1573 213.023 10.2529 212.278 10.4764H212.276ZM325.491 25.5129C325.491 25.588 325.494 25.6632 325.496 25.7383C327.451 25.599 329.311 26.1145 331.278 26.0958C334.528 26.0187 337.781 26.1551 341.003 26.5034C341.217 26.5452 341.441 26.5373 341.649 26.4805C341.857 26.4238 342.04 26.3208 342.174 26.1841C341.5 26.1748 340.982 26.362 340.56 26.1209C339.442 25.478 338.152 25.6296 336.917 25.6436C334.749 25.6683 332.585 25.6224 330.417 25.5269C328.782 25.4547 327.135 25.5129 325.493 25.5129H325.491ZM261.931 9.74106H272.099C271.965 9.45744 271.497 9.44384 271.633 9.14664C271.746 8.89911 272.036 8.84477 272.321 8.80698C272.787 8.76389 273.232 8.62924 273.614 8.41552C272.678 8.49752 271.736 8.53128 270.795 8.51657C270.621 8.50338 270.448 8.53879 270.304 8.61654C270.161 8.69428 270.058 8.80932 270.012 8.94115C270.002 9.03214 269.961 9.11946 269.896 9.19489C269.83 9.27032 269.74 9.33137 269.636 9.37225C269.532 9.41313 269.416 9.4325 269.299 9.42853C269.183 9.42457 269.069 9.3974 268.97 9.34959C268.807 9.29949 268.639 9.21033 268.482 9.2859C267.921 9.55381 267.793 9.23496 267.658 8.92799C267.577 8.74584 267.6 8.5204 267.219 8.52209C265.633 8.52931 264.047 8.52506 262.461 8.52506C263.328 8.6656 264.228 8.56115 265.063 8.85666C265.231 8.88471 265.405 8.86114 265.551 8.79085C266.202 8.51742 266.545 8.78065 266.877 9.20353C265.216 9.50286 263.567 9.45999 261.931 9.74106ZM235.964 9.00568C235.578 10.2331 234.088 9.79752 233.054 10.4025C237.38 10.0204 241.495 10.3074 245.585 9.98561C244.712 9.6513 243.728 9.53808 242.769 9.66166C242.576 9.70904 242.371 9.71508 242.174 9.67916C241.977 9.64325 241.796 9.56669 241.649 9.45743C241.15 9.0354 240.559 8.96704 240.077 9.40096C239.932 9.55386 239.735 9.67175 239.508 9.74112C239.282 9.8105 239.035 9.82857 238.796 9.79328C238.202 9.72803 237.601 9.70585 237.001 9.72704C236.454 9.72831 235.847 9.792 235.964 9.00568ZM376.095 25.9217C367.548 25.0751 358.994 24.4128 350.218 24.1211C352.017 24.5945 353.707 24.3962 355.363 24.516C356.584 24.6038 357.803 24.7321 359.029 24.7563C362.116 24.785 365.192 25.054 368.211 25.5591C368.654 25.6502 369.114 25.6849 369.571 25.6619C371.131 25.5095 372.714 25.6195 374.215 25.9846C374.837 26.098 375.488 26.0763 376.095 25.9217ZM261.124 9.64807C260.471 9.52918 259.817 9.40903 259.163 9.29099C258.959 9.25448 258.758 9.20311 258.743 9.0112C258.732 8.85113 258.906 8.79892 259.063 8.73396C259.197 8.67791 259.416 8.728 259.475 8.53355C258.301 8.43632 257.176 8.65031 255.828 8.69489C256.303 8.87827 256.847 8.91935 257.358 8.81038C257.437 8.80335 257.518 8.80907 257.594 8.82718C257.671 8.84529 257.742 8.87542 257.803 8.91573C257.864 8.95604 257.915 9.00571 257.951 9.06168C257.987 9.11765 258.008 9.17878 258.013 9.24133C258.067 9.57208 257.723 9.58098 257.441 9.60221C256.647 9.6847 255.845 9.70986 255.046 9.67736C253.981 9.55187 252.894 9.62936 251.875 9.90324C254.962 9.95391 258.05 9.86871 261.124 9.64807ZM274.34 32.6751C274.956 32.8271 275.725 32.5783 276.101 33.1795C276.282 33.4695 275.836 33.5043 275.654 33.6631C277.03 33.8599 278.443 33.8301 279.803 33.5756C279.68 33.4514 279.509 33.3616 279.316 33.3197C279.122 33.2779 278.917 33.2862 278.73 33.3434C278.503 33.3977 278.216 33.3548 278.202 33.1273C278.187 32.8644 278.495 32.8793 278.71 32.915C279.241 32.9688 279.779 32.8887 280.248 32.6865C278.182 32.4475 276.26 32.8058 274.34 32.6751ZM210.07 9.60349C209.035 10.4951 208.686 10.6225 207.613 10.4527C207.259 10.3724 206.89 10.3446 206.523 10.3707C206.113 10.4225 205.656 10.4887 205.49 10.0179C205.473 9.97981 205.445 9.94562 205.407 9.91839C205.369 9.89116 205.323 9.87176 205.273 9.86194C205.223 9.85211 205.171 9.85217 205.121 9.86213C205.072 9.87209 205.026 9.89162 204.988 9.91895C204.561 10.3011 204.023 10.2828 203.452 10.3121C203.259 10.3285 203.075 10.3801 202.912 10.4627C202.75 10.5453 202.614 10.6566 202.517 10.7876C205.314 10.5983 208.108 10.8055 211.084 10.6148C210.549 10.2786 210.057 10.1075 210.07 9.60349ZM255.29 26.3408L255.281 26.5803C255.944 26.5803 256.608 26.5709 257.271 26.5849C257.547 26.5909 257.945 26.5815 257.956 26.8609C257.969 27.1891 257.551 27.0838 257.293 27.1093C256.58 27.1802 255.839 26.9938 255.051 27.2235C256.381 27.5759 258.076 27.5445 260.391 27.1513C260.117 26.8473 260.082 26.9127 258.783 26.472C257.582 26.0657 256.449 26.3357 255.287 26.3408H255.29ZM262.341 11.9501C266.375 11.7281 270.424 12.151 274.449 11.6105C270.41 11.7069 266.366 11.4805 262.339 11.9501H262.341ZM272.954 9.45489L272.935 9.61623C275.352 9.75535 277.78 9.72152 280.189 9.51518C279.701 9.31847 279.137 9.26762 278.604 9.37209C277.953 9.44459 277.295 9.47441 276.638 9.46125C276.38 9.457 276.096 9.45574 275.96 9.24599C275.805 9.00993 276.044 8.88256 276.231 8.74287C276.461 8.57304 276.66 8.38623 276.521 8.14507C275.754 8.53738 274.631 8.54502 274.286 9.39078C274.263 9.44682 273.969 9.44682 273.798 9.45234C273.517 9.46168 273.234 9.45489 272.952 9.45489H272.954ZM243.691 18.0726H235.833L235.841 18.3112C238.461 18.3494 241.082 18.2697 243.691 18.0726ZM227.06 18.9735C228.29 19.0174 229.523 18.9462 230.731 18.7612C230.988 18.7188 231.432 18.8402 231.436 18.5515C231.44 18.2628 230.999 18.3698 230.738 18.3439C229.793 18.2505 228.872 18.6504 227.896 18.3833C227.43 18.2577 227.259 18.6445 227.06 18.9735Z" fill="white" fill-opacity="0.4"/>
</svg>
