<svg width="26" height="26" viewBox="0 0 26 26" fill="none" xmlns="http://www.w3.org/2000/svg">
<path d="M9.90016 20.8194C5.07715 16.3518 1.75181 9.26957 6.39713 4.62425C6.69748 4.3239 6.99508 4.07935 7.31381 3.81195C7.7309 3.46115 8.24188 3.24065 8.78325 3.17785L7.98746 2.38068C6.96949 1.361 5.34556 1.29789 4.2419 2.22381C3.92318 2.49121 4.13082 2.22564 3.83291 2.52842C-1.24176 7.686 1.12979 14.8086 6.26833 19.9022C9.68749 23.2916 13.9902 25.4089 17.9873 24.9091C15.2143 24.3723 12.4307 23.1636 9.90016 20.8194Z" fill="#D67AEA" fill-opacity="0.35"/>
<path d="M16.8137 26.0004C16.1336 26.0004 15.4386 25.9367 14.7309 25.8082C11.6148 25.2427 8.35591 23.4019 5.55445 20.6249C2.73146 17.8266 0.838808 14.5634 0.225219 11.4363C-0.490465 7.78934 0.507086 4.46329 3.11004 1.81784C3.42751 1.49521 3.76015 1.18786 4.10683 0.896846C4.83551 0.285541 5.75874 -0.0297314 6.70588 0.00905582C7.65682 0.0479953 8.55096 0.440538 9.22354 1.11429C9.22791 1.11865 9.23227 1.12312 9.23659 1.12759L10.9544 2.91266C11.8299 3.79431 12.2054 5.04753 11.9588 6.26709C11.7124 7.48564 10.8796 8.49284 9.73092 8.96128C8.98061 9.26731 8.50197 9.53908 8.37408 9.63102C7.42816 10.5949 6.826 12.161 10.3641 15.7052C11.5122 16.8553 13.2127 18.3843 14.7183 18.3843C15.3291 18.3843 15.8898 18.1259 16.431 17.5945C16.5014 17.4913 16.7446 17.0769 17.0583 16.2953C17.5242 15.1347 18.533 14.2927 19.7568 14.0429C20.9759 13.7939 22.2289 14.1698 23.1103 15.0485L24.8747 16.7559C24.8789 16.76 24.8831 16.7641 24.8872 16.7682C25.5571 17.4393 25.949 18.3309 25.9909 19.2789C26.0334 20.2241 25.7205 21.151 25.1138 21.8771C24.8427 22.202 24.5572 22.5146 24.2583 22.8141C22.1572 24.9189 19.6137 26.0004 16.8137 26.0004ZM6.55103 2.03401C6.14966 2.03401 5.74589 2.17256 5.41204 2.4526C5.11488 2.70206 4.82975 2.96551 4.55761 3.24205C2.41614 5.4185 1.62897 8.04389 2.21794 11.0453C2.7541 13.7776 4.44673 16.6674 6.98404 19.1826C9.49703 21.6737 12.377 23.3171 15.0934 23.81C18.0714 24.3505 20.6714 23.5327 22.8211 21.3793C23.0774 21.1225 23.322 20.8545 23.5545 20.5761C24.1406 19.8736 24.0975 18.857 23.4555 18.2083L21.6922 16.5019C21.688 16.4978 21.6838 16.4937 21.6797 16.4896C21.2756 16.0848 20.7227 15.9181 20.163 16.0324C19.6016 16.147 19.1569 16.5185 18.9429 17.0517C18.801 17.4052 18.3061 18.5907 17.898 18.9995C16.9604 19.9387 15.8906 20.4149 14.7183 20.4149C12.483 20.4149 10.4491 18.6646 8.9269 17.1398C8.01261 16.2239 6.7206 14.8259 6.05893 13.2663C5.24273 11.3422 5.55495 9.5802 6.96201 8.17081C7.38927 7.74278 8.60239 7.22829 8.96401 7.08081C9.48931 6.86657 9.85541 6.42321 9.96837 5.8645C10.0822 5.30148 9.91526 4.74597 9.51033 4.34032C9.50595 4.33593 9.5016 4.33149 9.49729 4.32702L7.78055 2.54302C7.43999 2.2051 6.99698 2.03401 6.55103 2.03401Z" fill="#D67AEA"/>
<path d="M24.982 12.139C24.4624 12.139 24.0194 11.7423 23.9719 11.2147C23.5317 6.3309 19.6676 2.46681 14.7838 2.02669C14.2253 1.97638 13.8134 1.48281 13.8637 0.924304C13.914 0.365749 14.4079 -0.0462383 14.9661 0.00417487C17.7939 0.259033 20.4608 1.5088 22.4753 3.5233C24.4898 5.5378 25.7396 8.20462 25.9944 11.0325C26.0448 11.591 25.6328 12.0846 25.0743 12.1349C25.0433 12.1377 25.0125 12.139 24.982 12.139ZM17.0712 12.1375C17.6032 11.96 17.8905 11.385 17.713 10.853C17.3147 9.65919 16.3803 8.70027 15.2134 8.28778C14.6848 8.10085 14.1045 8.37799 13.9177 8.90675C13.7308 9.43545 14.0079 10.0156 14.5366 10.2025C15.1177 10.4079 15.5851 10.8913 15.7867 11.4956C15.9286 11.921 16.3247 12.19 16.7497 12.19C16.859 12.1899 16.9675 12.1722 17.0712 12.1375ZM21.0602 12.1287C21.6153 12.0493 22.0009 11.5349 21.9216 10.9798C21.4129 7.4241 18.5744 4.58558 15.0187 4.07693C14.4642 3.99763 13.9492 4.38312 13.8698 4.93832C13.7904 5.49342 14.176 6.00781 14.7312 6.08726C17.3995 6.46894 19.5296 8.59909 19.9112 11.2673C19.9837 11.7737 20.418 12.139 20.9151 12.139C20.9636 12.1391 21.0121 12.1356 21.0602 12.1287Z" fill="#D67AEA"/>
</svg>
