<svg width="134" height="119" viewBox="0 0 134 119" fill="none" xmlns="http://www.w3.org/2000/svg">
<g opacity="0.3">
<path d="M5.70472 10.0919C8.85535 10.0919 11.4094 7.83274 11.4094 5.04594C11.4094 2.25914 8.85535 0 5.70472 0C2.55409 0 0 2.25914 0 5.04594C0 7.83274 2.55409 10.0919 5.70472 10.0919Z" fill="#D477D2"/>
<path d="M46.4 10.0919C49.5507 10.0919 52.1047 7.83274 52.1047 5.04594C52.1047 2.25914 49.5507 0 46.4 0C43.2494 0 40.6953 2.25914 40.6953 5.04594C40.6953 7.83274 43.2494 10.0919 46.4 10.0919Z" fill="#D477D2"/>
<path d="M87.1032 10.0919C90.2538 10.0919 92.8079 7.83274 92.8079 5.04594C92.8079 2.25914 90.2538 0 87.1032 0C83.9525 0 81.3984 2.25914 81.3984 5.04594C81.3984 7.83274 83.9525 10.0919 87.1032 10.0919Z" fill="#D477D2"/>
<path d="M127.798 10.0919C130.949 10.0919 133.503 7.83274 133.503 5.04594C133.503 2.25914 130.949 0 127.798 0C124.648 0 122.094 2.25914 122.094 5.04594C122.094 7.83274 124.648 10.0919 127.798 10.0919Z" fill="#D477D2"/>
<path d="M5.70472 46.0919C8.85535 46.0919 11.4094 43.8327 11.4094 41.0459C11.4094 38.2591 8.85535 36 5.70472 36C2.55409 36 0 38.2591 0 41.0459C0 43.8327 2.55409 46.0919 5.70472 46.0919Z" fill="#D477D2"/>
<path d="M46.4078 46.0919C49.5585 46.0919 52.1126 43.8327 52.1126 41.0459C52.1126 38.2591 49.5585 36 46.4078 36C43.2572 36 40.7031 38.2591 40.7031 41.0459C40.7031 43.8327 43.2572 46.0919 46.4078 46.0919Z" fill="#D477D2"/>
<path d="M87.1032 46.0919C90.2538 46.0919 92.8079 43.8327 92.8079 41.0459C92.8079 38.2591 90.2538 36 87.1032 36C83.9525 36 81.3984 38.2591 81.3984 41.0459C81.3984 43.8327 83.9525 46.0919 87.1032 46.0919Z" fill="#D477D2"/>
<path d="M127.798 46.0919C130.949 46.0919 133.503 43.8327 133.503 41.0459C133.503 38.2591 130.949 36 127.798 36C124.648 36 122.094 38.2591 122.094 41.0459C122.094 43.8327 124.648 46.0919 127.798 46.0919Z" fill="#D477D2"/>
<path d="M5.70472 82.0919C8.85535 82.0919 11.4094 79.8327 11.4094 77.0459C11.4094 74.2591 8.85535 72 5.70472 72C2.55409 72 0 74.2591 0 77.0459C0 79.8327 2.55409 82.0919 5.70472 82.0919Z" fill="#D477D2"/>
<path d="M46.4078 82.0919C49.5585 82.0919 52.1126 79.8327 52.1126 77.0459C52.1126 74.2591 49.5585 72 46.4078 72C43.2572 72 40.7031 74.2591 40.7031 77.0459C40.7031 79.8327 43.2572 82.0919 46.4078 82.0919Z" fill="#D477D2"/>
<path d="M87.1032 82.0919C90.2538 82.0919 92.8079 79.8327 92.8079 77.0459C92.8079 74.2591 90.2538 72 87.1032 72C83.9525 72 81.3984 74.2591 81.3984 77.0459C81.3984 79.8327 83.9525 82.0919 87.1032 82.0919Z" fill="#D477D2"/>
<path d="M127.798 82.0919C130.949 82.0919 133.503 79.8327 133.503 77.0459C133.503 74.2591 130.949 72 127.798 72C124.648 72 122.094 74.2591 122.094 77.0459C122.094 79.8327 124.648 82.0919 127.798 82.0919Z" fill="#D477D2"/>
<path d="M5.70472 118.088C8.85535 118.088 11.4094 115.829 11.4094 113.042C11.4094 110.255 8.85535 107.996 5.70472 107.996C2.55409 107.996 0 110.255 0 113.042C0 115.829 2.55409 118.088 5.70472 118.088Z" fill="#D477D2"/>
<path d="M46.4078 118.088C49.5585 118.088 52.1126 115.829 52.1126 113.042C52.1126 110.255 49.5585 107.996 46.4078 107.996C43.2572 107.996 40.7031 110.255 40.7031 113.042C40.7031 115.829 43.2572 118.088 46.4078 118.088Z" fill="#D477D2"/>
<path d="M87.1032 118.088C90.2538 118.088 92.8079 115.829 92.8079 113.042C92.8079 110.255 90.2538 107.996 87.1032 107.996C83.9525 107.996 81.3984 110.255 81.3984 113.042C81.3984 115.829 83.9525 118.088 87.1032 118.088Z" fill="#D477D2"/>
<path d="M127.798 118.088C130.949 118.088 133.503 115.829 133.503 113.042C133.503 110.255 130.949 107.996 127.798 107.996C124.648 107.996 122.094 110.255 122.094 113.042C122.094 115.829 124.648 118.088 127.798 118.088Z" fill="#D477D2"/>
</g>
</svg>
