<svg width="69" height="68" viewBox="0 0 69 68" fill="none" xmlns="http://www.w3.org/2000/svg">
<circle cx="34.2609" cy="34.0968" r="33.7765" fill="#1DA1F2"/>
<path d="M28.0008 48.4555C40.7435 48.4555 47.7152 37.7336 47.7152 28.4385C47.7152 28.1371 47.7086 27.829 47.6954 27.5275C49.0516 26.5317 50.222 25.2982 51.1515 23.8851C49.8884 24.4556 48.5474 24.8283 47.1742 24.9903C48.6201 24.1103 49.7027 22.7279 50.2213 21.0993C48.8611 21.9178 47.3736 22.4951 45.8225 22.8066C44.7774 21.6791 43.3956 20.9326 41.8907 20.6824C40.3858 20.4323 38.8417 20.6924 37.497 21.4227C36.1523 22.1529 35.0821 23.3126 34.4516 24.7224C33.8212 26.1323 33.6657 27.7137 34.0093 29.2222C31.255 29.0819 28.5606 28.3554 26.1006 27.0899C23.6406 25.8244 21.47 24.0482 19.7295 21.8763C18.8448 23.4249 18.5741 25.2573 18.9724 27.0013C19.3706 28.7453 20.4079 30.2698 21.8735 31.2652C20.7732 31.2297 19.6971 30.9289 18.734 30.3877V30.4748C18.733 32.0999 19.2863 33.6752 20.2999 34.933C21.3135 36.1907 22.7248 37.0532 24.2939 37.3739C23.2747 37.6571 22.205 37.6983 21.1676 37.4945C21.6104 38.8921 22.4718 40.1145 23.6318 40.9911C24.7917 41.8677 26.1922 42.3547 27.6379 42.3842C25.1836 44.3417 22.1518 45.4034 19.0308 45.3984C18.4774 45.3975 17.9244 45.3631 17.375 45.2953C20.5456 47.3606 24.2338 48.4575 28.0008 48.4555Z" fill="white"/>
</svg>
