<svg width="20" height="26" viewBox="0 0 20 26" fill="none" xmlns="http://www.w3.org/2000/svg">
<path opacity="0.8" d="M7.12109 6.85547C7.12109 4.25938 8.81526 2.05938 11.1582 1.29965C10.5759 1.11102 9.96756 1.01517 9.35547 1.01563C6.1302 1.01563 3.51562 3.6302 3.51562 6.85547C3.51562 10.0807 6.1302 12.6953 9.35547 12.6953C9.98465 12.6953 10.5904 12.5954 11.1582 12.4113C8.81526 11.6516 7.12109 9.45156 7.12109 6.85547Z" fill="#F1D1F8"/>
<path d="M18.9922 26C18.4313 26 17.9766 25.5453 17.9766 24.9844C17.9766 21.0083 14.7417 17.7734 10.7656 17.7734H9.24219C5.26607 17.7734 2.03125 21.0083 2.03125 24.9844C2.03125 25.5453 1.57655 26 1.01562 26C0.454695 26 0 25.5453 0 24.9844C0 19.8882 4.14603 15.7422 9.24219 15.7422H10.7656C15.8618 15.7422 20.0078 19.8882 20.0078 24.9844C20.0078 25.5453 19.5531 26 18.9922 26Z" fill="#D67AEA"/>
<path d="M9.90234 13.7109C6.12224 13.7109 3.04688 10.6356 3.04688 6.85547C3.04688 3.07536 6.12224 0 9.90234 0C13.6824 0 16.7578 3.07536 16.7578 6.85547C16.7578 10.6356 13.6824 13.7109 9.90234 13.7109ZM9.90234 2.03125C7.24227 2.03125 5.07812 4.19539 5.07812 6.85547C5.07812 9.51554 7.24227 11.6797 9.90234 11.6797C12.5624 11.6797 14.7266 9.51554 14.7266 6.85547C14.7266 4.19539 12.5624 2.03125 9.90234 2.03125Z" fill="#D67AEA"/>
</svg>
