<svg width="260" height="218" viewBox="0 0 260 218" fill="none" xmlns="http://www.w3.org/2000/svg">
<path d="M252.687 39.7493C255.673 39.7493 258.093 37.329 258.093 34.3434C258.093 31.3578 255.673 28.9375 252.687 28.9375C249.702 28.9375 247.281 31.3578 247.281 34.3434C247.281 37.329 249.702 39.7493 252.687 39.7493Z" stroke="#FFD7E6" stroke-width="2.26678" stroke-miterlimit="10"/>
<path d="M76.4294 26.6028C79.415 26.6028 81.8353 24.1825 81.8353 21.1969C81.8353 18.2113 79.415 15.791 76.4294 15.791C73.4437 15.791 71.0234 18.2113 71.0234 21.1969C71.0234 24.1825 73.4437 26.6028 76.4294 26.6028Z" stroke="#FFD7E6" stroke-width="2.26678" stroke-miterlimit="10"/>
<path d="M89.5856 215.999C92.5712 215.999 94.9915 213.579 94.9915 210.593C94.9915 207.608 92.5712 205.188 89.5856 205.188C86.6 205.188 84.1797 207.608 84.1797 210.593C84.1797 213.579 86.6 215.999 89.5856 215.999Z" stroke="#FFD7E6" stroke-width="2.26678" stroke-miterlimit="10"/>
<path d="M1.46416 173.656C1.46416 173.656 4.0091 176.153 6.37344 174.15C8.73779 172.148 5.9373 169.227 8.63906 167.02C11.3408 164.814 13.295 167.668 13.295 167.668" stroke="#FFD7E6" stroke-width="2.26678" stroke-miterlimit="10"/>
<path d="M213.23 185.492C213.23 185.492 215.775 187.989 218.139 185.986C220.503 183.984 217.703 181.063 220.405 178.856C223.106 176.65 225.061 179.504 225.061 179.504" stroke="#FFD7E6" stroke-width="2.26678" stroke-miterlimit="10"/>
<path d="M7.15729 66.7126C7.15744 67.4205 6.94769 68.1124 6.55455 68.701C6.16142 69.2896 5.60257 69.7484 4.94868 70.0194C4.29478 70.2904 3.5752 70.3614 2.88096 70.2234C2.18672 70.0854 1.549 69.7446 1.04845 69.2442C0.547888 68.7437 0.206965 68.1061 0.06882 67.4118C-0.0693247 66.7176 0.00150037 65.9981 0.272337 65.3441C0.543173 64.6901 1.00186 64.1312 1.59038 63.7379C2.17891 63.3447 2.87083 63.1348 3.57865 63.1348C4.04857 63.1347 4.51389 63.2271 4.94807 63.4069C5.38224 63.5867 5.77676 63.8502 6.10907 64.1824C6.44139 64.5147 6.705 64.9091 6.88486 65.3433C7.06471 65.7774 7.15729 66.2427 7.15729 66.7126Z" fill="#EAEAEA"/>
<path d="M71.1248 187.168C44.439 178.171 21.2942 155.809 16.5543 128.045C11.8143 100.281 29.3185 68.9871 56.8332 62.967C69.8412 60.1212 83.8804 62.6629 96.309 57.8836C119.748 48.8699 127.718 18.375 149.374 5.65783C170.237 -6.59607 198.841 2.24113 214.384 20.7862C229.926 39.3313 234.462 64.9206 233.508 89.0999C232.109 124.624 217.015 162.936 184.799 177.957C157.65 190.614 100.249 194.201 71.132 187.168" fill="#9E9E9E" fill-opacity="0.07"/>
<path d="M118.762 143.713L94.2344 118.886L102.475 110.758L116.803 125.272L146.571 78.6074L156.338 84.8367L118.762 143.713Z" fill="url(#paint0_linear_2051_97)"/>
<path d="M125.288 175.264C112.606 175.265 100.208 171.504 89.6633 164.459C79.1182 157.413 70.8991 147.399 66.0456 135.682C61.1921 123.966 59.922 111.073 62.396 98.6341C64.8701 86.1955 70.9771 74.7699 79.9448 65.8022C88.9125 56.8345 100.338 50.7275 112.777 48.2535C125.215 45.7794 138.108 47.0494 149.825 51.903C161.542 56.7565 171.556 64.9756 178.601 75.5207C185.647 86.0659 189.407 98.4635 189.407 111.146C189.387 128.145 182.626 144.443 170.606 156.463C158.585 168.483 142.288 175.245 125.288 175.264ZM125.288 55.7326C114.328 55.732 103.615 58.9815 94.5016 65.07C85.3886 71.1585 78.2857 79.8126 74.0912 89.938C69.8966 100.063 68.7989 111.205 70.9367 121.954C73.0745 132.704 78.3518 142.578 86.1014 150.328C93.8509 158.078 103.725 163.355 114.474 165.494C125.223 167.632 136.365 166.535 146.49 162.341C156.616 158.147 165.27 151.045 171.359 141.932C177.448 132.819 180.698 122.105 180.698 111.146C180.682 96.4549 174.838 82.3706 164.451 71.9824C154.063 61.5942 139.979 55.7503 125.288 55.7326Z" fill="url(#paint1_linear_2051_97)"/>
<path d="M44.6932 109.695H25.6484V112.598H44.6932V109.695Z" fill="url(#paint2_linear_2051_97)"/>
<path d="M38.0994 69.3166L36.0469 71.3691L49.5136 84.8358L51.5661 82.7833L38.0994 69.3166Z" fill="url(#paint3_linear_2051_97)"/>
<path d="M49.5136 136.822L36.0469 150.289L38.0994 152.342L51.5661 138.875L49.5136 136.822Z" fill="url(#paint4_linear_2051_97)"/>
<path d="M224.92 109.695H205.875V112.598H224.92V109.695Z" fill="url(#paint5_linear_2051_97)"/>
<path d="M212.475 69.3165L199.008 82.7832L201.06 84.8357L214.527 71.369L212.475 69.3165Z" fill="url(#paint6_linear_2051_97)"/>
<path d="M201.06 136.822L199.008 138.875L212.472 152.34L214.525 150.287L201.06 136.822Z" fill="url(#paint7_linear_2051_97)"/>
<defs>
<linearGradient id="paint0_linear_2051_97" x1="125.286" y1="78.6074" x2="125.286" y2="143.713" gradientUnits="userSpaceOnUse">
<stop stop-color="#F85493"/>
<stop offset="1" stop-color="#D877E4"/>
</linearGradient>
<linearGradient id="paint1_linear_2051_97" x1="125.285" y1="47.0215" x2="125.285" y2="175.264" gradientUnits="userSpaceOnUse">
<stop stop-color="#F85493"/>
<stop offset="1" stop-color="#D877E4"/>
</linearGradient>
<linearGradient id="paint2_linear_2051_97" x1="35.1708" y1="109.695" x2="35.1708" y2="112.598" gradientUnits="userSpaceOnUse">
<stop stop-color="#F85493"/>
<stop offset="1" stop-color="#D877E4"/>
</linearGradient>
<linearGradient id="paint3_linear_2051_97" x1="37.0731" y1="70.3429" x2="50.5399" y2="83.8096" gradientUnits="userSpaceOnUse">
<stop stop-color="#F85493"/>
<stop offset="1" stop-color="#D877E4"/>
</linearGradient>
<linearGradient id="paint4_linear_2051_97" x1="42.7802" y1="143.556" x2="44.8328" y2="145.608" gradientUnits="userSpaceOnUse">
<stop stop-color="#F85493"/>
<stop offset="1" stop-color="#D877E4"/>
</linearGradient>
<linearGradient id="paint5_linear_2051_97" x1="215.397" y1="109.695" x2="215.397" y2="112.598" gradientUnits="userSpaceOnUse">
<stop stop-color="#F85493"/>
<stop offset="1" stop-color="#D877E4"/>
</linearGradient>
<linearGradient id="paint6_linear_2051_97" x1="205.741" y1="76.0498" x2="207.794" y2="78.1024" gradientUnits="userSpaceOnUse">
<stop stop-color="#F85493"/>
<stop offset="1" stop-color="#D877E4"/>
</linearGradient>
<linearGradient id="paint7_linear_2051_97" x1="200.034" y1="137.849" x2="213.499" y2="151.313" gradientUnits="userSpaceOnUse">
<stop stop-color="#F85493"/>
<stop offset="1" stop-color="#D877E4"/>
</linearGradient>
</defs>
</svg>
