<svg width="530" height="43" viewBox="0 0 530 43" fill="none" xmlns="http://www.w3.org/2000/svg">
<path d="M487.004 30.0232C488.668 29.9087 488.714 29.8607 487.953 29.2043C487.786 29.0601 487.503 28.9202 487.797 28.739C487.915 28.6812 488.06 28.6472 488.211 28.6419C488.362 28.6365 488.513 28.6601 488.64 28.7092C489.526 28.9308 490.284 29.3154 491.318 29.3532C492.019 29.3787 492.665 29.474 493.017 28.9742C493.065 28.9062 493.239 28.87 493.354 28.8185C494.013 29.363 494.637 29.0312 495.283 28.802C495.353 28.7894 495.427 28.7876 495.499 28.7967C495.57 28.8058 495.636 28.8254 495.692 28.8539C496.142 29.5493 497.147 29.2822 497.963 29.3502C498.325 29.3809 498.76 29.4153 498.81 29.6995C498.85 29.9368 498.416 29.916 498.208 30.0206C496.884 30.6833 495.428 30.1809 494.039 30.2107C493.373 30.2248 492.703 30.1482 492.033 30.1257C491.736 30.1155 491.43 30.1201 491.272 30.3273C490.96 30.7394 490.701 30.5774 490.483 30.2898C490.443 30.2147 490.368 30.1481 490.266 30.0983C490.164 30.0485 490.041 30.0177 489.91 30.0095C489.636 29.9963 489.36 30.0142 489.268 30.1992C489.156 30.4247 489.419 30.52 489.712 30.5965C490.061 30.6876 490.609 30.6608 490.538 31.0219C490.508 31.1729 490.227 31.2112 490.001 31.2073C489.501 31.1984 488.784 31.3277 488.648 30.9398C488.481 30.4587 487.98 30.3821 487.372 30.3575C486.486 30.3217 485.886 29.8522 484.976 29.836C484.165 29.8211 483.359 29.6561 482.563 29.907C482.44 29.9376 482.307 29.949 482.175 29.9401C482.043 29.9312 481.917 29.9022 481.809 29.856C481.402 29.7126 481.244 29.6858 480.806 29.9738C480.216 30.36 479.177 30.0989 478.4 29.9704C478.047 29.8995 477.662 29.9113 477.322 30.0036C475.931 30.3103 474.527 29.9853 473.124 29.9466C471.622 29.9041 470.512 29.1627 468.968 29.1712C467.759 29.178 466.535 29.0066 465.42 29.4362C465.258 29.4991 464.978 29.5761 464.916 29.4944C464.444 28.8777 463.207 29.1669 462.382 28.5263C462.589 29.3855 461.959 29.4115 461.143 29.3426C457.405 29.094 453.648 28.9711 449.887 28.9747C446.297 28.9121 442.724 28.6344 439.138 28.6769C437.302 28.6982 435.485 28.5029 433.687 28.5655C430.407 28.679 427.153 28.3017 423.878 28.4876C423.073 28.5331 422.242 28.3787 421.428 28.3975C417.764 28.4825 414.117 28.232 410.46 28.2273C409.564 28.2273 408.674 28.2698 407.78 28.3213C406.424 28.3987 405.07 28.594 403.685 28.2932C402.924 28.155 402.109 28.1634 401.356 28.317C399.771 28.5947 398.095 28.6261 396.484 28.4081C393.872 28.0789 391.309 28.5489 388.715 28.5523C386.962 28.5548 385.213 28.5034 383.467 28.4672C382.279 28.4419 381.089 28.4818 379.912 28.5863C378.983 28.6332 378.047 28.6157 377.125 28.5344C374.23 28.3979 371.319 28.577 368.422 28.3111C367.529 28.3083 366.647 28.4215 365.833 28.6429C365.011 28.7951 364.141 28.8308 363.292 28.7471C361.443 28.6057 359.568 28.6499 357.743 28.8781C358.587 29.0564 359.464 29.1707 360.355 29.2184C362.027 29.1856 363.756 29.2979 365.356 29.0742C366.928 28.8543 368.34 29.2869 369.844 29.1648C370.585 29.1603 371.317 29.062 371.991 28.8764C372.288 28.7763 372.625 28.7273 372.966 28.7348C373.306 28.7423 373.637 28.806 373.922 28.9189C374.468 29.1192 375.108 29.2049 375.744 29.1627C378.975 28.9717 382.21 29.2014 385.454 29.112C388.089 28.9943 390.735 29.0114 393.365 29.1631C393.758 29.1924 394.296 29.1533 394.255 29.5149C394.214 29.8764 393.741 29.9653 393.2 29.9708C389.895 30.0049 386.58 29.9343 383.288 30.0291C380.572 30.1074 377.845 30.0291 375.147 30.2065C374.018 30.2818 373.006 30.4566 372.022 29.9411C371.697 29.7709 371.153 29.9411 370.718 29.9925C368.535 30.2477 366.353 30.44 364.152 30.0687C363.411 30.0031 362.654 30.0414 361.942 30.1805C360.351 30.3507 358.732 30.295 357.157 30.4179C354.28 30.6429 351.458 30.4055 348.609 30.3392C346.75 30.3395 344.895 30.431 343.061 30.6127C342.267 30.6727 341.466 30.3834 340.63 30.6552C341.079 30.927 342.253 30.5361 342.064 31.266C342.356 31.2835 342.647 31.3086 342.94 31.3162C345.593 31.3651 348.235 31.2469 350.908 31.3958C352.227 31.4689 353.752 31.662 355.151 31.3626C355.221 31.3481 355.312 31.3252 355.368 31.3401C356.75 31.7012 358.144 31.2197 359.552 31.369C360.43 31.4417 361.323 31.4029 362.175 31.255C362.924 31.1192 363.716 31.0964 364.483 31.1886C366.352 31.4413 368.187 31.2052 370.047 31.1172C371.578 31.0448 373.143 31.2682 374.685 31.2337C377.457 31.1725 380.221 31.5085 382.977 31.3222C386.311 31.0967 389.613 30.9564 392.94 31.3647C394.032 31.4987 395.156 31.2392 396.262 31.152C397.331 31.1109 398.404 31.1288 399.467 31.2056C401.143 31.2563 402.856 31.5408 404.534 31.1763C404.883 31.0909 405.257 31.0494 405.633 31.0543C406.01 31.0593 406.381 31.1107 406.723 31.2052C407.181 31.3489 407.683 31.4352 408.198 31.4587C408.713 31.4823 409.231 31.4426 409.72 31.3422C411.585 30.9844 413.366 31.6825 415.227 31.4944C415.877 31.4289 416.568 31.5425 417.193 31.3192C417.271 31.2909 417.359 31.2737 417.449 31.2688C417.54 31.264 417.632 31.2716 417.717 31.2911C418.64 31.7331 419.739 31.4655 420.741 31.5719C421.101 31.6363 421.484 31.6385 421.846 31.5784C422.208 31.5182 422.534 31.3981 422.789 31.2316C422.87 31.1748 422.971 31.129 423.084 31.0971C423.197 31.0653 423.32 31.0481 423.445 31.0467C423.569 31.0453 423.693 31.0597 423.808 31.089C423.923 31.1183 424.027 31.1618 424.112 31.2167C424.946 31.7973 426.018 31.7565 427.099 31.7424C431.158 31.688 435.205 31.8947 439.256 31.9249C440.865 31.9128 442.472 31.978 444.064 32.1197C444.65 32.1225 445.233 32.0699 445.792 31.964C445.699 31.6318 444.864 31.8241 445.02 31.4489C445.062 31.3729 445.137 31.3052 445.237 31.2527C445.337 31.2003 445.459 31.1652 445.59 31.1512C446.076 31.0742 446.222 31.312 446.437 31.4915C446.72 31.7459 447.118 31.9462 447.584 32.0685C448.05 32.1909 448.564 32.2302 449.066 32.1818C451.514 32.1248 453.977 32.3354 456.435 32.4056C460.355 32.517 464.276 32.6038 468.196 32.7033C468.42 32.7057 468.643 32.722 468.861 32.7518C469.266 32.8131 469.728 32.8909 469.683 33.2052C469.632 33.5493 469.118 33.486 468.72 33.5145C465.695 33.7322 462.708 33.2512 459.696 33.3286C456.638 33.4073 453.635 33.0032 450.57 33.0483C448.398 33.0806 446.2 32.6612 444.037 32.7284C442.322 32.7811 440.643 32.303 438.904 32.7284C437.782 33.0019 436.538 32.7909 435.359 32.6859C433.948 32.5958 432.531 32.5523 431.113 32.5553C427.989 32.4885 424.857 32.4541 421.74 32.4749C419.456 32.4902 417.198 32.3047 414.951 32.343C413.063 32.3745 411.169 32.3732 409.28 32.4204C409.059 32.4255 408.685 32.4387 408.705 32.5591C408.823 33.2499 407.903 33.0806 407.351 33.1546C405.491 33.4022 403.641 33.1652 401.79 33.0606C401.345 33.0355 400.902 33.0006 400.459 32.9658C400.144 32.9407 399.67 32.993 399.694 32.708C399.722 32.4013 400.21 32.4243 400.571 32.446C401.277 32.4885 401.974 32.5591 402.675 32.6199C402.783 32.6452 402.901 32.6514 403.014 32.6376C403.128 32.6239 403.233 32.5909 403.316 32.5425C402.272 32.2665 401.127 32.1568 399.992 32.2239C398.397 32.4192 396.766 32.4862 395.141 32.423C394.644 32.3975 394.082 32.3456 393.96 32.8198C393.889 33.1006 393.414 33.0904 393.042 33.0921C391.299 33.0997 389.563 33.2197 387.809 33.1427C386.921 33.1768 386.038 33.2479 385.166 33.3554C384.668 33.3775 383.846 33.5285 383.816 33.0478C383.792 32.6467 384.553 32.7076 385.064 32.685C385.13 32.6823 385.195 32.669 385.25 32.6466C385.305 32.6242 385.35 32.5935 385.379 32.5574C382.173 32.6544 378.981 32.4889 375.694 32.4885C375.924 32.6646 376.51 32.7165 376.289 33.021C376.078 33.3162 375.621 33.3435 375.16 33.3639C372.529 33.4792 369.894 33.5059 367.258 33.5021C366.544 33.4418 365.817 33.4965 365.15 33.6608C365.903 33.8513 366.74 33.7144 367.53 33.8343C368.512 33.948 369.521 33.947 370.502 33.8313C373.325 33.5548 376.198 33.511 379.04 33.7012C381.311 33.9315 383.629 33.9437 385.907 33.7373C387.864 33.5055 389.471 33.8964 391.115 34.3754C391.447 34.4724 391.813 34.6489 392.146 34.4694C392.597 34.2269 391.984 34.1584 391.854 34.0096C391.724 33.8607 391.774 33.7429 392.027 33.6816C392.32 33.6106 392.685 33.5927 392.834 33.7748C393.672 34.7956 395.275 34.7667 396.796 34.8403C397.07 34.8836 397.36 34.8669 397.616 34.7932C397.871 34.7195 398.074 34.5936 398.19 34.4379C398.441 34.0976 398.988 34.1721 399.469 34.2091C400.458 34.2852 401.439 34.4575 402.444 34.2261C402.605 34.191 402.781 34.1887 402.945 34.2194C403.108 34.2501 403.251 34.3122 403.35 34.3962C403.425 34.4479 403.467 34.5135 403.471 34.5819C403.474 34.6503 403.439 34.7174 403.37 34.7718C403.139 34.9713 402.799 34.9449 402.457 34.919C402.12 34.8452 401.748 34.8521 401.418 34.9381C401.764 35.1508 402.195 35.0768 402.566 35.1206C402.831 35.1517 403.107 35.192 403.139 35.383C403.176 35.6021 402.87 35.6221 402.614 35.6497C402.359 35.6774 402.05 35.7573 401.846 35.7042C400.654 35.3988 399.37 35.9802 398.189 35.546C398.065 35.5222 397.935 35.5138 397.805 35.5211C397.675 35.5284 397.55 35.5513 397.435 35.5885C397.123 35.6735 396.58 35.7046 396.651 35.9764C396.709 36.195 397.209 36.124 397.519 36.181C399.248 36.4303 401.047 36.4438 402.786 36.2206C404.539 36.0662 406.144 36.2895 407.811 36.3758C407.848 36.3807 407.885 36.3844 407.922 36.3869C409.034 36.3631 410.04 36.0581 411.284 36.4719C412.216 36.7807 413.636 36.5013 414.802 36.6191C416.528 36.7745 418.279 36.8031 420.016 36.7042C422.51 36.5864 424.946 36.9432 427.439 36.771C429.219 36.7195 431.003 36.7684 432.768 36.9169C433.175 36.9545 433.591 36.9305 433.979 36.8471C433.929 36.8114 433.901 36.7693 433.855 36.762C433.358 36.677 432.461 36.8896 432.448 36.4613C432.434 36.0045 433.344 36.2546 433.825 36.1657C434.774 35.9892 435.742 36.2176 436.711 36.212C437.456 36.2078 437.465 35.9594 437.672 35.6859C437.971 35.2929 437.39 35.3699 437.142 35.2856C436.839 35.1819 436.499 35.101 436.618 34.8433C436.73 34.6 437.1 34.5604 437.436 34.5919C439.395 34.7773 441.38 34.765 443.342 34.8811C444.997 34.9789 446.644 34.9024 448.294 34.956C451.435 35.0581 454.553 35.2963 457.69 35.4035C458.228 35.4217 458.745 35.5311 458.819 35.9292C458.865 36.1793 459.132 36.2605 459.477 36.3209C459.895 36.3937 460.363 36.5238 460.035 36.8258C459.762 37.0781 459.29 37.2984 458.707 37.0543C458.526 36.9781 458.255 36.8782 458.237 36.7761C458.084 35.8854 456.896 36.0691 455.997 35.9862C455.402 35.9391 454.799 35.9379 454.203 35.9824C455.257 36.0603 456.254 36.3103 457.089 36.7055C457.28 36.8037 457.631 36.8705 457.496 37.0534C457.462 37.101 457.412 37.1434 457.347 37.1777C457.283 37.2121 457.207 37.2374 457.125 37.2518C457.043 37.2663 456.956 37.2696 456.871 37.2615C456.786 37.2534 456.706 37.234 456.635 37.2048C456.019 36.8531 455.435 37.07 454.789 37.1083C453.224 37.1854 451.65 37.1453 450.102 36.9888C449.361 36.9215 449.303 36.4975 449.054 36.1904C448.718 35.7744 448.345 35.5613 447.814 36.0628C447.505 36.3533 447.078 36.318 446.638 36.3303C445.149 36.3728 443.648 36.2508 442.174 36.4536C441.878 36.4732 441.591 36.525 441.326 36.6064C441.221 36.6707 441.092 36.7195 440.949 36.749C440.807 36.7785 440.655 36.7879 440.506 36.7763C440.357 36.7648 440.214 36.7327 440.089 36.6826C439.964 36.6325 439.859 36.5656 439.784 36.4873C439.563 36.3171 439.199 36.3171 438.866 36.2793C438.772 36.4813 439.275 36.4656 439.177 36.5902C438.458 37.4992 439.893 37.1312 440.165 37.0947C442.361 36.8016 444.456 37.1138 446.612 37.2784C447.865 37.3741 449.224 37.1725 450.555 37.2682C451.664 37.3482 452.786 37.3618 453.901 37.4141C454.325 37.4341 454.935 37.3771 454.923 37.7591C454.912 38.1266 454.349 37.9947 453.962 38.0143C450.971 38.1576 448.011 37.916 445.036 37.8165C443.234 37.7565 441.41 37.554 439.581 37.7965C438.88 37.8646 438.166 37.8746 437.46 37.8263C430.942 37.583 424.416 37.7671 417.896 37.674C416.297 37.651 414.701 37.5132 413.102 37.4907C411.766 37.4724 410.427 37.5383 409.091 37.5796C406.239 37.6911 403.379 37.6965 400.527 37.5957C399.879 37.601 399.232 37.6368 398.593 37.7029C398.721 37.7867 398.89 37.8435 399.076 37.8652C399.261 37.8869 399.453 37.8722 399.624 37.8233C400.084 37.7179 400.594 37.7258 401.044 37.8454C401.275 37.9128 401.525 37.9518 401.78 37.96C402.036 37.9683 402.292 37.9456 402.533 37.8935C403.763 37.7416 404.917 38.1806 406.154 38.1487C406.211 38.1517 406.266 38.1617 406.317 38.1779C406.367 38.1942 406.411 38.2165 406.447 38.2434C406.483 38.2703 406.509 38.3013 406.525 38.3345C406.54 38.3677 406.544 38.4025 406.536 38.4367C406.531 38.4822 406.511 38.5267 406.477 38.5674C406.443 38.6081 406.395 38.6442 406.337 38.6735C406.279 38.7027 406.211 38.7245 406.139 38.7375C406.066 38.7506 405.99 38.7546 405.914 38.7493C405.095 38.786 404.273 38.784 403.454 38.7433C401.896 38.6364 400.326 38.608 398.76 38.6583C397.518 38.6829 396.31 38.5307 395.082 38.4988C394.729 38.4902 394.209 38.4834 394.305 38.1623C394.401 37.8412 394.886 37.7842 395.373 37.8509C395.513 37.88 395.645 37.9232 395.761 37.9786C395.914 38.0381 396.054 38.1427 396.255 38.0589C396.297 38.0383 396.33 38.0123 396.352 37.9828C396.374 37.9533 396.385 37.9212 396.383 37.8888C396.344 37.7119 396.082 37.6936 395.87 37.6995C394.752 37.7327 393.657 37.5336 392.524 37.6391C390.819 37.7387 389.104 37.7557 387.395 37.6902C387.159 37.6902 386.882 37.5851 386.683 37.7569C386.794 37.9671 387.017 37.9696 387.301 37.8964C387.586 37.8233 387.844 37.8241 387.853 38.0598C387.861 38.2537 387.712 38.4583 387.359 38.4328C386.669 38.3826 385.86 38.4652 385.345 38.1321C385.12 37.9806 384.836 37.8649 384.519 37.7951C384.201 37.7254 383.861 37.7038 383.526 37.7323C382.225 37.8373 380.92 37.7812 379.578 37.8416C380.239 38.1042 381.045 38.2001 381.823 38.1087C382.209 38.0981 382.785 38.1087 382.753 38.4379C382.721 38.7672 382.177 38.7272 381.774 38.6872C381.074 38.6188 380.363 38.5996 379.656 38.6302C379.112 38.6523 378.438 38.6795 378.643 38.1142C378.706 37.9441 378.483 37.859 378.247 37.859C376.654 37.859 375.08 37.5638 373.226 37.7408C373.798 37.9255 374.424 38.0411 375.069 38.0811C375.336 38.1091 375.604 38.1504 375.634 38.3465C375.642 38.3921 375.634 38.4382 375.611 38.4819C375.588 38.5255 375.55 38.5658 375.499 38.5999C375.448 38.634 375.386 38.6612 375.316 38.6798C375.246 38.6983 375.171 38.7078 375.095 38.7076C374.542 38.7117 373.989 38.7401 373.443 38.7927C374.213 39.0264 375.092 39.0944 375.934 38.9854C377.982 38.7872 380.034 38.9203 382.081 38.9003C384.242 38.8803 386.414 38.9683 388.566 38.9569C390.796 38.9454 393.035 38.8837 395.273 38.9003C398.844 38.9262 402.416 39.0198 405.986 38.9854C407.319 38.9726 408.753 39.093 410.01 38.6255C410.147 38.5881 410.298 38.5726 410.448 38.5807C410.599 38.5887 410.743 38.62 410.867 38.6715C411.578 38.8831 412.379 38.9585 413.164 38.8875C414.711 38.7174 416.181 39.0151 417.689 39.0577C417.832 39.0732 417.979 39.0635 418.113 39.0296C419.54 38.4162 421.034 38.7374 422.482 38.9488C423.192 39.0526 423.805 38.8786 424.469 38.876C425.616 38.8718 426.766 39.0462 427.916 38.8233C428.399 38.7301 429.258 39.013 428.988 38.3222C428.944 38.2104 429.26 38.1151 429.508 38.144C429.837 38.1819 430.126 38.3069 429.958 38.5141C429.681 38.8569 429.974 38.8799 430.411 38.9143C431.431 38.9956 432.422 39.2278 433.476 38.9386C433.855 38.8344 434.201 38.8709 434.163 38.5C434.133 38.2133 434.677 38.221 435.038 38.2257C438.201 38.2648 441.368 38.238 444.523 38.4192C445.152 38.4668 445.786 38.488 446.42 38.4826C447.114 38.4643 447.691 38.4975 447.811 39.0487C448.365 38.5409 450.939 38.2406 451.544 38.5915C452.179 38.962 451.208 39.0168 451.089 39.2376C451.139 39.2865 451.16 39.338 451.214 39.3563C451.608 39.4911 452.422 39.4056 452.333 39.7676C452.231 40.1853 451.46 39.9943 451.004 39.9803C446.793 39.8561 442.578 39.9186 438.376 40.013C435.686 40.0734 433.01 39.8195 430.339 39.9913C428.897 40.0941 427.438 40.0845 426 39.9628C423.454 39.7297 420.891 40.0347 418.356 39.7548C417.546 39.6726 416.718 39.6784 415.911 39.7718C413.798 40.0083 411.705 39.7153 409.616 39.7476C401.144 39.8795 392.677 39.8399 384.207 39.8361C379.998 39.8361 375.789 39.7153 371.58 39.7187C365.765 39.7238 359.952 39.8633 354.135 39.8544C350.387 39.8484 346.637 39.9369 342.889 40.033C340.704 40.0892 338.512 40.0458 336.323 40.1049C331.817 40.2265 327.306 40.3086 322.797 40.3831C318.178 40.4588 313.558 40.4996 308.939 40.5673C304.024 40.6396 299.106 40.6783 294.197 40.8225C291.49 40.9024 288.781 40.9577 286.078 41.0534C286.004 41.0599 285.928 41.0609 285.854 41.0564C282.677 40.68 279.469 41.0351 276.288 41.0275C272.278 41.0173 268.24 41.0062 264.215 41.1206C262.123 41.1802 259.979 41.1508 257.861 41.1206C255.706 41.0887 253.547 41.0853 251.385 41.1274C249.421 41.1657 247.445 41.1168 245.473 41.1189C243.615 41.1211 241.757 41.1138 239.899 41.1542C239.264 41.1683 238.628 41.19 237.998 41.1781C227.741 40.9901 217.481 41.0777 207.223 41.0649C204.132 41.0611 201.045 40.9658 197.962 40.9637C194.503 40.9611 191.043 40.8539 187.584 40.9118C182.98 40.9888 178.376 40.9437 173.77 40.8892C170.037 40.8467 166.294 41.0934 162.563 41.0322C158.505 40.9654 154.444 41.0424 150.392 41.0194C145.888 40.9939 141.367 40.9654 136.858 41.0781C132.026 41.1989 127.195 41.0509 122.365 41.0781C117.145 41.107 111.952 40.8093 106.745 40.7489C103.804 40.7149 100.868 40.6502 97.9367 40.5549C96.0354 40.4941 94.1369 40.324 92.2505 40.3137C88.2968 40.292 84.3982 39.8671 80.4643 39.8629C76.0242 39.8582 71.599 39.6774 67.173 39.5541C62.3015 39.4179 57.4202 39.4307 52.5445 39.2355C49.1422 39.0994 45.6962 39.1793 42.2678 39.1572C41.6979 39.1216 41.1221 39.1608 40.5797 39.272C40.0374 39.3833 39.5415 39.5639 39.1261 39.8016C38.6281 40.2254 38.2359 40.6909 37.9618 41.1832C37.7338 41.4568 37.3818 41.6859 36.9466 41.8439C36.5115 42.002 36.0109 42.0826 35.5028 42.0764C34.6422 41.9939 34.4396 41.566 34.2115 41.1028C33.968 40.6072 33.6714 40.2308 34.4939 39.7897C34.9324 39.5553 34.4798 39.2495 33.9185 39.1768C32.8944 39.0417 31.8415 39.004 30.798 39.0649C28.459 39.2053 26.1249 39.0475 23.7887 39.0453C20.1464 39.0424 16.5874 39.2189 13.3567 40.3746C12.3683 40.7289 11.3241 40.976 10.246 40.4643C10.0723 40.3818 9.82947 40.3091 9.75604 40.1985C9.37778 39.4421 8.54407 38.7981 7.41844 38.3928C7.38879 38.3839 7.37397 38.3575 7.35349 38.3388C6.84658 37.8794 7.80039 37.6736 7.83216 37.3324C7.8604 37.0253 7.13039 36.6093 8.53817 36.5779C8.20584 36.4482 7.92525 36.2759 7.71652 36.0732C7.50779 35.8705 7.3761 35.6425 7.3309 35.4056C7.25023 35.208 7.27503 35.0002 7.40179 34.8116C7.52855 34.6231 7.7508 34.4634 8.03691 34.3554C8.62714 34.1287 8.62643 33.8756 8.16893 33.5872C7.26595 33.0176 6.86635 32.4005 7.55612 31.6369C7.6153 31.5289 7.63594 31.4146 7.61672 31.3014C7.59749 31.1882 7.53884 31.0788 7.44457 30.9802C7.2419 30.6396 7.2419 30.2672 7.44457 29.9266C7.54916 29.7652 7.57518 29.5892 7.51957 29.4192C7.46395 29.2492 7.32901 29.0924 7.13059 28.967C6.93217 28.8416 6.67849 28.7529 6.39933 28.7113C6.12018 28.6697 5.82713 28.677 5.55458 28.7322C5.33074 28.7782 5.09362 28.796 4.8579 28.7845C4.62217 28.7731 4.39287 28.7326 4.18418 28.6655C3.9755 28.5985 3.79187 28.5064 3.64469 28.3948C3.49751 28.2833 3.3899 28.1548 3.32853 28.0172C2.60628 26.6884 2.2321 25.3409 3.76273 24.0971C4.25694 23.6964 4.30918 23.4127 3.52833 23.1082C2.16997 22.5782 1.9624 21.7224 2.01817 20.8427C2.08908 20.283 1.87109 19.7238 1.39406 19.2417C0.843628 18.7646 0.609793 18.1807 0.738648 17.6049C0.867503 17.0291 1.34971 16.5033 2.09019 16.1311C2.7849 15.7419 2.75525 15.5683 1.94899 15.2676C0.678171 14.7908 -0.13939 14.1289 0.15784 13.1349C0.182648 12.8885 0.145277 12.6412 0.0469982 12.4016C-0.00964982 12.2584 -0.0151575 12.1095 0.0308497 11.9649C0.0768569 11.8203 0.173323 11.6832 0.313863 11.5628C1.69835 10.5458 2.95505 9.4964 4.84716 8.72141C7.1189 7.78375 9.52958 6.97455 12.0485 6.30413C13.8721 5.78349 15.8456 5.48018 17.8603 5.41088C18.4251 5.39982 18.9024 5.38239 18.8826 4.92216C18.8798 4.88734 18.8933 4.85274 18.9215 4.82232C18.9498 4.7919 18.9917 4.76688 19.0424 4.75011C19.0931 4.73334 19.1507 4.7255 19.2084 4.7275C19.2662 4.72949 19.3219 4.74122 19.3691 4.76136C20.5989 5.41811 21.9813 5.00977 23.2874 4.96554C25.2865 4.88113 27.2769 4.73361 29.2504 4.52359C32.1097 4.24329 35.0008 4.15439 37.8637 3.8677C40.5145 3.62418 43.1901 3.49129 45.8713 3.47C47.2775 3.50346 48.6857 3.4533 50.0756 3.32026C51.3534 3.15012 52.74 3.28283 54.0687 3.29134C58.5724 3.32027 63.0767 3.27816 67.579 3.29134C71.4917 3.30368 75.4157 3.25944 79.3291 3.26752C84.197 3.27816 89.0685 3.29219 93.9315 3.41257C97.3987 3.49764 100.85 3.51423 104.316 3.41257C105.98 3.36323 107.668 3.55335 109.329 3.47764C112.192 3.34706 115.055 3.45936 117.918 3.38918C119.844 3.34196 121.79 3.31942 123.707 3.25306C125.994 3.17352 128.282 3.31133 130.58 3.10248C131.906 3.00124 133.243 2.96582 134.578 2.99657C137.667 3.03018 140.746 2.88215 143.827 2.75965C146.022 2.67458 148.219 2.69797 150.417 2.59588C156.507 2.3126 162.625 2.31431 168.709 1.95531C169.667 1.89874 170.63 2.11651 171.598 1.92893C171.67 1.91223 171.747 1.90658 171.824 1.91251C171.9 1.91844 171.973 1.93576 172.035 1.96289C172.097 1.99002 172.147 2.02609 172.181 2.06785C172.214 2.10961 172.23 2.15573 172.226 2.20201C172.234 2.24776 172.225 2.29403 172.201 2.33759C172.176 2.38115 172.136 2.42095 172.083 2.45421C172.031 2.48747 171.966 2.51338 171.895 2.53014C171.824 2.54689 171.748 2.55409 171.672 2.55123C170.571 2.53975 169.543 2.84898 168.396 2.73116C166.984 2.58824 165.58 2.84855 164.174 2.93617C163.213 3.02061 162.236 3.02061 161.275 2.93617C159.974 2.80946 158.639 2.90038 157.418 3.19904C159.383 3.37343 161.178 3.11694 162.985 3.11099C166.857 3.09823 170.735 3.08164 174.598 2.94085C177.813 2.82345 181.033 2.8511 184.253 2.68139C186.611 2.50207 189.003 2.55653 191.333 2.8426C192.821 3.06038 194.365 2.78219 195.89 2.78687C198 2.79325 200.111 2.72859 202.221 2.69116C202.517 2.68563 202.961 2.73115 203.084 2.63545C204.086 1.85875 205.402 2.28411 206.587 2.28155C207.331 2.30165 208.078 2.28743 208.819 2.23902C209.588 2.17763 210.37 2.23153 211.097 2.39597C212.177 2.60864 213.368 2.44064 214.505 2.38449C216.235 2.23544 217.989 2.21173 219.729 2.31388C221.102 2.44148 222.511 2.22115 223.921 2.21903C226.305 2.21562 228.686 2.14926 231.072 2.23859C233.055 2.3126 235.013 2.05655 236.992 2.04379C238.483 2.03443 239.983 1.95317 241.418 2.29899C241.518 2.32819 241.629 2.34125 241.74 2.33685C245.256 1.96935 248.796 2.07398 252.337 2.1012C253.356 2.10886 254.391 2.02847 255.42 1.99699C259.174 1.88257 262.933 1.90554 266.686 1.83621C269.275 1.78857 271.867 1.61587 274.48 1.72348C276.634 1.76883 278.791 1.73787 280.939 1.63076C283.427 1.5559 285.917 1.63672 288.409 1.49848C293.315 1.22582 298.249 1.44574 303.165 1.25348C307.201 1.09524 311.252 1.03824 315.298 0.991875C319.831 0.940407 324.362 0.814511 328.899 0.798773C334.137 0.780057 339.377 0.673291 344.613 0.543558C346.699 0.49209 348.778 0.563975 350.856 0.536327C353.87 0.496769 356.881 0.395959 359.893 0.319821C363.238 0.23475 366.593 0.286211 369.944 0.280256C374.046 0.273025 378.152 0.335562 382.248 0.237731C384.918 0.173927 387.594 0.141598 390.263 0.0301549C391.643 -0.0544194 393.037 0.0394051 394.353 0.30536C394.735 0.390431 395.214 0.482309 395.123 0.793243C395.023 1.13608 394.509 1.07908 394.121 1.02591C392.348 0.783459 390.662 1.26283 388.929 1.24326C387.263 1.29666 385.592 1.26137 383.936 1.13778C382.945 1.03874 381.934 1.03946 380.943 1.13991C379.037 1.29091 377.13 1.47551 375.194 1.16373C374.337 1.02549 373.492 1.35428 372.577 1.3411C370.152 1.30622 367.735 1.69498 365.288 1.31429C364.666 1.21774 363.909 1.42872 363.217 1.50783C361.262 1.73157 359.311 1.44999 357.357 1.49678C355.197 1.54867 353.041 1.75199 350.897 1.76432C348.274 1.77963 345.622 2.09652 343.006 1.6835C342.799 1.63673 342.576 1.62111 342.357 1.63799C340.646 1.90063 338.867 1.96272 337.118 1.82089C336.787 1.78167 336.447 1.78022 336.115 1.81663C334.853 2.01977 333.53 2.04885 332.246 1.90171C330.597 1.73157 328.983 1.94425 327.362 2.04506C324.349 2.23391 321.332 1.97742 318.325 2.09524C316.701 2.22618 315.063 2.2842 313.425 2.26879C310.209 2.10248 307.071 2.61163 303.854 2.49593C300.37 2.37045 296.868 2.59844 293.376 2.66607C290.97 2.71243 288.547 2.70861 286.132 2.72903C280.141 2.7822 274.146 2.75582 268.159 2.88045C266.041 2.92298 263.91 2.9115 261.805 2.90087C259.676 2.89066 257.617 2.84685 255.541 3.21308C254.727 3.27397 253.903 3.24367 253.108 3.12375C251.215 3.0615 249.317 3.10422 247.437 3.25136C246.226 3.30283 245.12 2.97785 243.896 3.07484C241.808 3.24072 239.651 2.92044 237.59 3.37046C237.408 3.39642 237.218 3.39831 237.035 3.37599C234.112 3.18118 231.159 3.26327 228.253 3.14119C225.588 3.02933 223.006 3.31814 220.383 3.24966C219.003 3.19688 217.617 3.26537 216.27 3.45298C215.873 3.5175 215.46 3.5391 215.051 3.51678C211.61 3.31013 208.145 3.29362 204.699 3.46744C201.401 3.601 198.098 3.5372 194.805 3.70224C192.502 3.84618 190.178 3.81976 187.886 3.62355C184.731 3.30921 181.753 3.78901 178.702 3.97617C176.349 4.16254 173.976 4.24258 171.603 4.21564C170.191 4.1731 168.77 4.21564 167.354 4.24116C166.867 4.22701 166.386 4.31196 165.99 4.48233C166.587 4.60166 167.222 4.63517 167.844 4.58016C171.256 4.41343 174.693 4.6461 178.086 4.4415C181.921 4.21011 185.761 4.35048 189.594 4.26541C192.998 4.19012 196.422 4.16672 199.839 4.18033C201.688 4.18756 203.542 4.05272 205.369 4.31602C206.216 4.43937 206.985 4.18204 207.756 4.09101C209.519 3.93393 211.313 3.95593 213.063 4.15608C213.902 4.26634 214.773 4.25175 215.6 4.11356C216.349 3.97165 217.142 3.93656 217.917 4.01105C219.586 4.06648 221.261 4.02517 222.917 3.88769C223.536 3.86345 224.072 4.00211 224.675 3.98084C228.672 3.8409 232.677 3.8796 236.677 3.82814C240.738 3.77582 244.803 3.80687 248.867 3.71542C252.346 3.63673 255.856 3.71543 259.354 3.78731C259.598 3.77297 259.844 3.78895 260.077 3.83424C260.31 3.87953 260.525 3.95317 260.709 4.0506C261.537 4.73117 262.767 4.66609 263.845 4.64609C265.365 4.61589 266.892 4.62695 268.695 4.58569C267.904 4.29683 266.96 4.20225 266.057 4.32155C265.112 4.46139 264.137 4.50851 263.168 4.46107C262.695 4.43725 262.201 4.31942 262.179 4.01572C262.159 3.69628 262.733 3.77497 263.056 3.75285C264.46 3.65757 265.867 3.53634 267.276 3.52528C271.083 3.49508 274.901 3.61036 278.698 3.49552C284.311 3.32537 289.939 3.51253 295.543 3.18416C296.624 3.15226 297.708 3.18259 298.78 3.27475C299.409 3.32861 300.049 3.31174 300.668 3.22498C301.825 3.04809 303.035 3.04066 304.198 3.20329C304.712 3.27989 305.254 3.24775 305.733 3.11227C306.143 2.99604 306.602 2.95918 307.048 3.00678C309.004 3.13233 310.978 3.11906 312.929 2.96722C314.123 2.89321 315.291 3.05782 316.492 2.98169C320.782 2.70613 325.099 2.60665 329.412 2.68393C334.17 2.77326 338.923 2.72648 343.673 2.6631C345.899 2.63332 348.13 2.67841 350.356 2.59717C350.878 2.60703 351.394 2.65925 351.893 2.75242C351.959 2.75663 352.023 2.76895 352.081 2.7886C352.139 2.80824 352.189 2.83481 352.229 2.86668C352.27 2.89854 352.299 2.93503 352.315 2.9739C352.331 3.01276 352.333 3.05319 352.323 3.0927C352.308 3.17275 352.242 3.2463 352.14 3.29814C352.038 3.34999 351.906 3.37617 351.773 3.3713C351.101 3.38704 350.431 3.37854 349.758 3.38535C345.027 3.43256 340.286 3.39556 335.567 3.56187C332.818 3.65885 330.053 3.46914 327.319 3.76434C326.091 3.89705 324.871 3.65331 323.635 3.67926C322.37 3.70733 321.106 3.73584 319.841 3.77795C316.729 3.88089 313.609 3.9013 310.492 3.9281C308.333 3.94682 306.133 3.93235 304.024 4.0557C300.332 4.26838 296.655 4.06422 292.982 4.22373C287.778 4.44959 282.561 4.40109 277.354 4.52147C275.3 4.5691 273.296 4.35899 271.265 4.40492C270.861 4.41428 270.459 4.45426 269.853 4.49339C270.858 4.74337 271.935 4.87185 273.023 4.87153C275.995 4.90343 278.97 5.03742 281.938 4.99319C286.357 4.92768 290.774 4.85281 295.195 4.86557C295.344 4.87702 295.496 4.87018 295.641 4.84548C295.785 4.82077 295.92 4.77871 296.037 4.72181C296.283 4.57918 296.591 4.48161 296.925 4.44049C297.26 4.39937 297.606 4.41639 297.925 4.48957C300.146 4.8894 302.373 4.54613 304.594 4.55252C306.556 4.55804 308.538 4.4985 310.486 4.41215C313.507 4.27817 316.511 4.44958 319.523 4.34963C323.577 4.1675 327.646 4.12488 331.708 4.22201C333.92 4.30155 336.077 3.95192 338.262 4.17523C339.617 4.31347 340.827 3.80857 342.216 3.86089C347.737 4.06846 353.253 3.69075 358.776 3.72435C359.851 3.79725 360.937 3.78882 362.008 3.69926C362.119 3.67898 362.238 3.68539 362.341 3.71714C362.444 3.74889 362.522 3.80348 362.56 3.8694C362.666 4.07187 362.396 4.14205 362.154 4.20968C361.624 4.37908 361.033 4.46841 360.433 4.47C358.116 4.40279 355.844 4.67587 353.553 4.8056C352.272 4.87876 351.03 4.70735 349.758 4.75456C346.863 4.86303 343.959 4.76902 341.065 4.82602C339.371 4.85962 337.657 4.90003 335.967 5.02168C334.099 5.15652 332.244 4.98425 330.381 5.02168C326.33 5.1008 322.279 5.11313 318.227 5.23436C316.112 5.30707 313.992 5.29287 311.881 5.19183C309.834 5.08422 307.802 5.35644 305.753 5.38706C302.975 5.4296 300.192 5.49212 297.423 5.65035C295.382 5.74078 293.333 5.71958 291.299 5.58698C290.444 5.53385 289.58 5.59425 288.768 5.76392C287.726 5.98766 286.592 5.82518 285.552 5.74989C283.778 5.62228 282.061 5.86176 280.312 5.83709C275.293 5.76733 270.257 6.00724 265.26 5.55296C263.734 5.34951 262.157 5.32667 260.617 5.48574C259.972 5.5037 259.34 5.37649 258.843 5.12887C256.843 4.43555 254.852 4.87025 252.874 5.09484C252.309 5.15864 251.84 5.33091 251.344 5.03274C251.139 4.90939 250.861 4.9583 250.599 4.96298C249.219 4.98765 247.838 5.00041 246.459 5.01955C245.736 5.02933 244.962 4.90344 244.488 5.42194C244.314 5.61165 243.884 5.54954 243.549 5.51296C243.008 5.45469 242.467 5.39514 241.87 5.33006C241.941 5.41981 241.958 5.47425 242.004 5.48701C242.409 5.60016 243.163 5.50743 243.09 5.91237C243.012 6.34623 242.355 6.29265 241.761 6.28797C240.682 6.27989 239.602 6.34581 238.522 6.36836C238.24 6.37431 237.845 6.39516 237.801 6.16164C237.763 5.95874 238.16 5.98426 238.366 5.90642C239.093 5.63845 239.929 5.66524 240.736 5.53551C239.653 5.24205 238.431 5.19225 237.292 5.39515C236.999 5.46063 236.684 5.47995 236.375 5.45129C236.066 5.42263 235.774 5.34694 235.527 5.23138C234.839 4.87877 234.097 5.20076 233.381 5.21352C233.275 5.21565 233.13 5.3726 233.087 5.47128C233.016 5.62313 233.236 5.66907 233.424 5.66057C234.087 5.63037 234.678 5.94301 235.392 5.76563C235.774 5.67035 236.331 5.74138 236.374 6.03275C236.417 6.32412 235.857 6.31263 235.515 6.32752C232.885 6.40029 230.249 6.30303 227.654 6.03743C226.981 5.98 226.939 5.89409 227.071 5.51042C227.098 5.45356 227.088 5.39243 227.041 5.34028C226.974 5.30155 226.888 5.27626 226.796 5.26789C226.704 5.25951 226.61 5.26846 226.527 5.29348C224.154 5.7886 221.815 5.50871 219.488 5.1595C219.162 5.11058 218.907 5.07783 218.686 5.23691C218.601 5.29774 218.513 5.41769 218.556 5.47044C218.689 5.62952 218.988 5.63079 219.241 5.64525C220.54 5.72054 221.848 5.69034 223.152 5.74393C223.793 5.84306 224.45 5.90432 225.111 5.92684C224.659 6.17602 224.075 6.32016 223.462 6.33348C220.457 6.63123 217.444 6.26032 214.436 6.43812C212.408 6.55807 210.353 6.5168 208.309 6.53084C206.444 6.5436 204.578 6.53382 202.711 6.61591C203.582 6.78704 204.503 6.84773 205.415 6.79414C205.785 6.76471 206.156 6.74922 206.529 6.74777C209.089 6.76223 211.648 6.70906 214.207 6.68141C215.901 6.6627 217.625 6.68482 219.335 6.72395C221.045 6.76309 222.746 6.64612 224.468 6.6878C226.803 6.7448 229.149 6.73033 231.493 6.71374C234.912 6.68737 238.333 6.61548 241.751 6.64611C245.587 6.68056 249.422 6.61293 253.259 6.68865C255.634 6.77637 258.017 6.76415 260.39 6.65207C261.803 6.53461 263.242 6.62659 264.583 6.92004C265.225 7.04586 265.909 7.07678 266.576 7.01022C269.695 6.82519 272.826 6.95067 275.947 6.87793C277.924 6.83199 279.892 6.76776 281.869 6.7567C282.935 6.75032 284.083 7.14845 285.068 6.56232C285.108 6.54614 285.154 6.53529 285.201 6.5305C285.249 6.52571 285.298 6.52708 285.345 6.53452C285.391 6.54197 285.435 6.5553 285.472 6.57366C285.51 6.59202 285.541 6.61498 285.562 6.64101C286.034 7.28287 287.028 7.10506 287.81 7.11527C289.553 7.16779 291.3 7.13407 293.034 7.01446C295.421 6.82034 297.827 6.72329 300.235 6.72395C301.347 6.71842 302.461 6.67461 303.572 6.69588C306.997 6.76181 310.412 6.584 313.828 6.55976C316.208 6.54317 318.588 6.49852 320.967 6.4747C325.062 6.43003 329.157 6.38197 333.248 6.28244C335.013 6.2399 336.833 6.29689 338.596 6.26456C340.867 6.22203 343.131 6.32667 345.397 6.3071C348.8 6.27733 352.216 6.02255 355.642 6.36666C356.813 6.49148 358.012 6.48225 359.177 6.33944C360.417 6.19007 361.686 6.15237 362.944 6.22757C364.577 6.31264 366.202 6.22756 367.831 6.27009C372.208 6.38281 376.585 6.43641 380.963 6.36283C382.538 6.33646 384.089 6.48703 385.658 6.49043C388.117 6.49894 390.569 6.49639 393.027 6.39261C395.331 6.2952 397.62 6.54402 399.914 6.64994C402.713 6.77754 405.573 6.92939 408.386 6.64994C409.422 6.5757 410.469 6.57984 411.503 6.66227C414.816 6.82475 418.147 6.62527 421.444 6.83496C425.758 7.10889 430.101 6.88856 434.409 7.18589C434.877 7.24702 435.362 7.24903 435.832 7.19178C436.302 7.13453 436.747 7.01927 437.139 6.85325C437.452 6.74494 437.808 6.69153 438.169 6.69904C438.529 6.70656 438.879 6.77472 439.178 6.89579C440.764 7.46917 442.426 7.38793 444.102 7.15824C444.312 7.11751 444.538 7.11264 444.752 7.14417C444.967 7.17569 445.164 7.2424 445.32 7.33689C445.565 7.47598 445.817 7.63464 445.719 7.86093C445.608 8.11316 445.221 8.12379 444.893 8.10593C443.058 8.00597 441.168 8.16633 439.414 7.64825C438.864 7.48576 438.214 7.3505 437.711 7.78224C437.642 7.83442 437.554 7.87644 437.455 7.90511C437.355 7.93379 437.245 7.94835 437.135 7.94769C435.871 7.82349 434.599 7.96216 433.355 7.91154C430.802 7.80775 428.251 7.7414 425.695 7.72311C422.414 7.69929 419.129 7.78606 415.856 7.53935C414.964 7.47794 414.062 7.50133 413.183 7.60868C411.536 7.80477 409.93 7.44918 408.317 7.54531C406.852 7.6609 405.371 7.68939 403.897 7.63038C400.867 7.45513 397.839 7.75161 394.802 7.75203C392.797 7.75203 390.79 7.70312 388.787 7.7329C387.239 7.75629 385.726 8.06126 384.141 7.91834C381.573 7.68737 378.987 8.02043 376.408 7.88049C375.812 7.85747 375.213 7.89559 374.637 7.99321C372.836 8.27607 371.047 7.96939 369.254 7.99321C368.619 7.97545 367.983 8.01457 367.367 8.10933C366.512 8.28583 365.585 8.28927 364.726 8.11911C363.862 7.94897 362.978 8.2212 362.087 8.06765C361.761 8.0115 361.078 8.04297 361.127 8.44493C361.17 8.78947 361.705 8.80947 362.152 8.84732C362.524 8.87922 362.764 8.7078 363.061 8.62146C364.114 8.31648 365.214 8.48236 365.577 9.09402C365.782 9.44026 366.081 9.46919 366.542 9.49939C368.921 9.61103 371.309 9.63234 373.693 9.56319C375.778 9.54149 377.867 9.59212 379.953 9.62827C383.342 9.68697 386.731 9.95323 390.104 9.95153C393.331 9.95153 396.573 9.79884 399.81 9.74354C401.858 9.70866 403.911 9.6908 405.952 9.758C407.24 9.80054 408.51 10.1498 409.816 9.97281C412.69 9.58361 415.599 9.795 418.491 9.74609C421.283 9.69887 424.081 9.68952 426.87 9.7563C430.253 9.83669 433.648 9.92133 437.018 9.89496C439.694 9.91644 442.366 10.0383 445.017 10.2599C448.278 10.4785 451.56 10.4824 454.806 10.7248C458.04 10.966 461.287 11.0651 464.524 11.2514C467.405 11.4186 470.263 11.7193 473.137 11.9528C473.764 12.003 474.402 11.9992 475.033 12.0328C475.386 12.0515 475.903 12.0035 475.909 12.3089C475.915 12.6219 475.401 12.5709 475.045 12.5828C473.068 12.6094 471.09 12.554 469.126 12.4169C465.371 12.234 461.615 12.0654 457.858 11.9112C456.59 11.9029 455.33 11.7871 454.116 11.567C453.365 11.4028 452.644 11.6653 451.902 11.6385C448.888 11.5292 445.873 11.4296 442.865 11.305C440.709 11.2153 438.562 11.0957 436.391 11.1C435.326 11.1312 434.259 11.1191 433.197 11.0638C430.858 10.8758 428.511 11.1187 426.175 10.9558C425.468 10.9765 424.76 10.9178 424.088 10.7827C423.957 10.7381 423.804 10.723 423.656 10.7401C421.36 11.1906 419.077 10.7593 416.79 10.7099C415.595 10.684 414.406 10.7759 413.222 10.7878C410.68 10.8133 408.13 10.7219 405.587 10.6376C404.846 10.6122 404.104 10.6179 403.365 10.6546C400.301 10.8074 397.233 10.9771 394.161 11.0187C392.221 11.0303 390.282 11.104 388.354 11.2395C386.519 11.3816 384.631 11.2268 382.768 11.2489C378.673 11.2978 374.578 11.3841 370.483 11.4382C368.713 11.4611 366.941 11.442 365.16 11.5436C365.414 11.6901 365.719 11.8009 366.052 11.8682C366.386 11.9355 366.74 11.9575 367.089 11.9328C370.256 11.4628 373.478 11.6904 376.675 11.6096C377.719 11.6225 378.764 11.594 379.803 11.5245C381.087 11.3901 382.274 11.7563 383.539 11.8112C386.704 11.8989 389.873 11.8902 393.036 11.7852C396.169 11.7308 399.308 11.7623 402.444 11.755C407.325 11.744 412.206 11.7316 417.088 11.718C417.511 11.718 417.989 11.6917 418.027 12.0302C418.064 12.3688 417.628 12.3705 417.179 12.4088C415.355 12.5636 413.522 12.4148 411.699 12.4939C411.624 12.4969 411.511 12.482 411.481 12.5054C410.705 13.1149 409.885 12.6717 409.17 12.4913C408.003 12.1966 406.884 12.4637 405.746 12.473C405.673 12.4729 405.601 12.4819 405.535 12.4995C405.468 12.517 405.408 12.5428 405.359 12.5751C405.163 12.767 405.234 13.1213 404.626 13.0524C403.948 12.9754 403.156 13.1102 402.624 12.7402C402.317 12.5275 402.26 12.6011 402.015 12.7908C401.95 12.8606 401.854 12.9185 401.738 12.9581C401.622 12.9978 401.491 13.0177 401.358 13.0159C401.225 13.0141 401.095 12.9905 400.982 12.9477C400.87 12.9049 400.778 12.8445 400.718 12.7729C400.619 12.6914 400.482 12.6298 400.324 12.5959C400.166 12.5621 399.995 12.5577 399.833 12.5832C398.928 12.6308 398.068 13.0047 397.119 12.7202C396.102 13.4314 394.723 12.8576 393.541 13.0779C393.094 13.1654 392.619 13.1859 392.157 13.1374C391.694 13.0889 391.258 12.973 390.887 12.7997C390.215 12.4986 389.404 12.6189 388.553 12.7146C387.005 12.889 385.495 13.4186 383.804 12.9605C383.011 12.7457 382.064 12.8729 381.197 12.8486C379.47 12.8001 377.787 13.388 376.056 12.9337C375.466 12.7789 374.904 13.0515 374.315 13.0298C374.208 13.285 374.821 13.5326 374.261 13.7185C373.735 13.8937 373.442 13.6874 373.18 13.4399C373.104 13.3735 372.996 13.3227 372.871 13.2946C372.745 13.2664 372.609 13.2622 372.479 13.2825C371.092 13.482 369.722 13.1974 368.346 13.1859C366.872 13.1723 365.392 13.1387 363.912 13.1817C363.065 13.2064 362.144 13.0349 361.604 13.6742C361.418 13.8941 360.808 13.855 360.456 13.7593C359.713 13.6168 358.957 13.5011 358.192 13.4131C357.733 13.328 357.365 13.2429 357.046 13.5658C356.787 13.8274 356.468 13.6866 356.232 13.5211C355.961 13.348 355.624 13.2169 355.251 13.139C354.877 13.061 354.478 13.0386 354.087 13.0736C353.572 13.0936 352.597 12.9958 352.842 13.6849C352.86 13.7237 352.863 13.7643 352.851 13.8039C352.84 13.8434 352.814 13.881 352.775 13.9138C352.737 13.9467 352.687 13.9741 352.629 13.9941C352.571 14.0141 352.507 14.0261 352.441 14.0294C352.294 14.0526 352.138 14.0445 352.001 14.0066C351.863 13.9687 351.751 13.9033 351.684 13.8214C351.498 13.6151 351.516 13.2944 350.967 13.2893C349.933 13.2799 348.906 13.0396 347.864 13.2765C347.422 13.3773 347.496 13.4892 347.723 13.6713C347.966 13.8631 348.844 13.9316 348.418 14.2102C348.201 14.3788 347.909 14.5067 347.575 14.5789C347.242 14.651 346.882 14.6645 346.536 14.6177C345.09 14.3722 345.026 14.2349 346.162 13.3059C345.305 13.3576 344.443 13.3817 343.581 13.3782C341.59 13.3084 339.62 13.5568 337.592 13.2991C335.294 13.0069 332.922 13.331 330.585 13.402C327.061 13.5092 323.543 13.6738 320.025 13.8512C316.918 14.0081 313.812 14.3459 310.665 14.2242C310.28 14.2093 309.861 14.1936 309.799 14.5016C309.74 14.6338 309.767 14.7746 309.876 14.8949C309.984 15.0152 310.166 15.1057 310.382 15.1477C311.32 15.2876 312.296 15.3032 313.245 15.1936C313.044 15.1511 312.842 15.117 312.646 15.0707C312.297 14.9882 312.055 14.8508 312.199 14.6075C312.225 14.5586 312.267 14.5134 312.322 14.4745C312.377 14.4357 312.445 14.4039 312.522 14.3811C312.598 14.3583 312.681 14.345 312.766 14.342C312.851 14.3389 312.936 14.3462 313.016 14.3633C313.477 14.4318 313.998 14.4369 314.307 14.7129C314.695 15.0596 314.962 14.9682 315.275 14.653C315.753 14.1719 316.617 14.3225 317.177 14.4497C317.977 14.63 317.056 14.7751 316.946 14.9894C317.602 15.089 318.229 15.2281 318.239 14.5879C318.239 14.4395 318.325 14.3135 318.576 14.2778C318.827 14.2421 318.99 14.3374 319.082 14.4769C319.339 14.8648 319.556 14.8248 319.821 14.4696C319.972 14.268 320.382 14.1936 320.481 14.4309C320.778 15.1443 321.696 14.7933 322.347 14.9452C322.358 14.9136 322.359 14.8808 322.348 14.8491C322.338 14.8173 322.317 14.7871 322.287 14.7603C322.257 14.7335 322.218 14.7106 322.173 14.6932C322.128 14.6757 322.077 14.6639 322.024 14.6585C321.728 14.5896 321.106 14.7436 321.252 14.3701C321.355 14.1085 321.916 14.1574 322.235 14.2246C323.414 14.4722 324.711 14.1613 325.861 14.5224C325.947 14.5433 326.039 14.5517 326.13 14.5471C326.222 14.5424 326.311 14.5248 326.389 14.4956C327.476 13.9184 328.78 14.3735 329.951 14.2127C330.076 14.1957 330.333 14.2366 330.357 14.2829C330.796 15.123 331.28 14.5488 331.869 14.345C332.458 14.1413 333.258 14.3765 333.916 14.1694C333.95 14.1583 334.148 14.2727 334.187 14.345C334.254 14.4726 334.064 14.536 333.925 14.6126C333.558 14.8417 333.093 15.0058 332.582 15.087C332.07 15.1682 331.532 15.1634 331.024 15.0732L331.056 15.2536C331.77 15.3267 332.491 15.3729 333.214 15.3918C336.674 15.3616 340.133 15.3016 343.581 15.3323C347.04 15.3633 350.5 15.1256 353.959 15.3616C354.704 15.3695 355.448 15.3423 356.185 15.2804C359.16 15.1953 362.133 15.3557 365.114 15.3089C367.243 15.2757 369.329 15.8044 371.508 15.741C371.658 15.7422 371.806 15.7634 371.94 15.8032C372.074 15.843 372.192 15.9004 372.285 15.9711C373.349 17.0498 374.968 16.5169 376.407 16.5569C376.501 17.1 376.336 17.28 375.471 17.2919C373.792 17.3165 372.111 17.297 370.431 17.2919C370.224 17.3063 370.016 17.2769 369.841 17.2088C369.666 17.1406 369.536 17.038 369.474 16.9184C369.46 16.8734 369.428 16.8311 369.382 16.7948C369.336 16.7586 369.276 16.7294 369.208 16.7097C369.139 16.6901 369.064 16.6805 368.988 16.6817C368.912 16.6829 368.838 16.6949 368.771 16.7168C368.206 16.8465 368.802 16.932 368.812 17.0405C368.844 17.3757 368.403 17.3055 368.113 17.3085C366.919 17.3204 365.723 17.3268 364.529 17.3085C359.618 17.2323 354.715 17.3808 349.806 17.4361C344.817 17.4928 339.826 17.5468 334.834 17.5981C334.302 17.5631 333.766 17.6328 333.305 17.7968C336.015 17.8584 338.437 17.824 340.859 17.8482C343.06 17.8704 345.229 17.5284 347.466 17.7802C348.384 17.8835 349.545 17.7419 350.474 17.7946C352.078 17.8852 353.614 17.6917 355.183 17.7121C357.584 17.7432 359.969 17.767 362.364 17.918C363.673 18.0001 365.047 17.8916 366.371 17.9788C368.934 18.1468 371.499 18.0077 374.06 18.0469C377.1 18.0941 380.159 18.2064 383.197 18.0979C386.133 17.9929 389.066 18.0643 392.001 17.9992C396.092 17.9091 400.196 18.0316 404.286 17.9337C407.031 17.8682 409.792 18.0673 412.525 17.7487C412.666 17.7317 412.87 17.7062 412.962 17.7487C414.205 18.3195 415.611 17.9061 416.93 17.9924C417.375 18.0214 417.793 18.0465 417.823 18.3663C417.855 18.7092 417.47 18.7491 416.992 18.7262C415.768 18.6662 414.646 19.0205 413.397 19.0303C412.432 19.038 411.421 19.1341 410.438 19.1052C408.652 19.0533 406.872 18.8674 405.088 18.855C403.888 18.847 402.726 19.1979 401.491 19.1987C401.091 19.1987 401.131 19.4433 400.964 19.5748C400.828 19.6985 400.621 19.7882 400.384 19.8273C400.146 19.8664 399.893 19.8522 399.671 19.7874C399.161 19.6356 399.627 19.4046 399.665 19.2443C397.17 18.7891 394.661 19.1303 392.158 19.1485C391.637 19.1524 391.116 19.1307 390.596 19.1337C389.708 19.1392 388.842 19.1217 388.119 19.5662C387.545 19.9193 387.092 19.8121 386.886 19.3612C386.767 19.0996 386.4 19.1992 386.143 19.1975C384.69 19.1868 383.264 19.4255 381.802 19.3178C381.726 19.5977 382.417 19.6853 382.096 19.944C381.961 20.0421 381.77 20.1062 381.561 20.1236C381.352 20.1409 381.14 20.1102 380.966 20.0375C379.653 19.6377 378.534 20.1596 377.334 20.2757C376.915 20.3674 376.485 20.4386 376.047 20.4884C373.977 20.4676 371.893 20.7683 369.834 20.3948C369.005 20.2732 368.136 20.2937 367.326 20.454C366.053 20.652 364.719 20.6558 363.443 20.465C361.386 20.14 359.388 20.3536 357.371 20.5901C356.326 20.7599 355.239 20.8133 354.162 20.7479C352.687 20.6409 351.195 20.6507 349.724 20.7772C349.75 20.9869 349.981 20.9559 350.133 20.9512C352.772 20.8717 355.408 21.0244 358.061 20.8687C360.152 20.7462 362.302 21.0388 364.412 20.907C367.471 20.7177 370.518 21.0256 373.565 20.9006C374.861 20.8474 376.141 20.6658 377.435 20.5786C378.039 20.536 379.125 20.4148 379.147 20.7062C379.18 21.1494 378.213 20.8712 377.694 20.9435C377 21.0476 376.331 21.2048 375.704 21.4114C376.494 21.5229 376.924 21.7942 377.487 21.417C377.601 21.3404 377.832 21.2421 377.949 21.2651C379.219 21.5203 380.434 21.1311 381.708 21.1698C384.93 21.2685 388.162 21.2 391.391 21.1384C392.91 21.1094 394.435 21.1856 395.956 21.2192C396.126 21.2202 396.293 21.2455 396.443 21.293C396.593 21.3405 396.722 21.4088 396.82 21.4922C397.04 21.6786 397.583 21.8091 397.293 22.1039C397.026 22.3753 396.567 22.2017 396.173 22.2043C394.99 22.2193 393.826 22.026 392.824 21.6479C392.567 21.7675 392.702 21.8738 392.753 21.9759C392.813 22.1035 392.971 22.2498 392.728 22.3421C392.484 22.4344 392.225 22.3421 392.009 22.2468C391.388 21.967 390.639 21.8102 389.864 21.7981C389.089 21.786 388.327 21.9191 387.683 22.1792C387.31 22.3251 387.042 22.2247 386.786 22.0882C386.572 21.9969 386.33 21.9328 386.074 21.9001C385.818 21.8673 385.553 21.8665 385.297 21.8976C384.914 21.9078 384.496 21.9202 384.661 22.2753C384.708 22.3761 384.639 22.5088 384.493 22.4701C383.289 22.1524 382.212 23.4289 380.852 22.2919C381.346 23.3191 382.687 23.4965 383.808 23.1388C385.194 22.7307 386.757 22.5937 388.279 22.747C389.18 22.821 389.98 23.0044 390.954 22.7539C391.153 22.6985 391.371 22.6708 391.59 22.6727C391.809 22.6747 392.025 22.7063 392.222 22.7652C392.418 22.8241 392.59 22.9088 392.725 23.0131C392.86 23.1173 392.955 23.2385 393.001 23.3676C393.072 23.4952 393.132 23.7079 393.336 23.6862C394.438 23.5782 395.555 23.8564 396.642 23.6305C396.946 23.5676 397.006 23.4684 396.825 23.2702C396.486 22.8976 396.867 22.8023 397.421 22.7879C399.257 22.7373 401.097 22.6709 402.934 22.6216C404.014 22.5932 405.095 22.5761 406.176 22.5701C406.555 22.568 406.98 22.6169 406.995 22.9104C407.009 23.1703 406.612 23.2013 406.284 23.2541C405.557 23.3596 404.81 23.4038 404.064 23.3855C403.821 23.3491 403.567 23.348 403.323 23.3824C403.079 23.4168 402.853 23.4857 402.662 23.5833C404.27 23.662 405.888 23.5996 407.466 23.3983C408.994 22.183 411.121 22.6564 413.095 22.6586C414.022 22.6586 414.95 22.5846 415.876 22.531C416.201 22.5131 416.452 22.4182 416.425 22.1869C416.397 21.9555 416.135 21.8891 415.801 21.8938C415.283 21.8443 414.751 21.8994 414.29 22.0507C413.88 22.2332 413.448 22.4102 413.193 21.9333C413.178 21.9059 413.149 21.882 413.11 21.8645C413.072 21.847 413.026 21.8368 412.978 21.8351C412.93 21.8334 412.882 21.8403 412.841 21.855C412.799 21.8697 412.766 21.8915 412.745 21.9176C411.957 22.665 410.915 22.2915 409.992 22.1065C409.563 22.0247 409.101 22.0342 408.683 22.1333C406.958 22.4317 405.129 22.4341 403.402 22.1401C402.864 22.0448 402.393 21.824 401.873 22.1401C401.803 22.1826 401.618 22.2187 401.568 22.1954C400.58 21.7245 399.309 22.0116 398.25 21.7496C397.98 21.6832 397.627 21.6347 397.665 21.4055C397.696 21.2187 398.012 21.169 398.261 21.1503C400.152 21.0464 402.058 21.1015 403.924 21.314C404.118 21.3323 404.316 21.5458 404.498 21.4033C405.08 20.9503 405.58 21.0065 406.092 21.4348C406.118 21.4497 406.15 21.4603 406.185 21.4657C406.22 21.471 406.257 21.4709 406.291 21.4654C407.931 20.8789 409.701 21.1851 411.433 21.1715C413.18 21.1579 414.917 21.1048 416.675 21.1605C418.559 21.2204 420.462 21.1277 422.357 21.203C422.822 21.2213 423.448 21.1264 423.563 21.5122C423.677 21.8912 423.017 21.9682 422.612 22.0699C422.284 22.1542 421.93 22.1956 421.573 22.1912C421.217 22.1868 420.866 22.1367 420.544 22.0444C419.922 21.8842 419.232 21.8477 418.573 21.9402C418.324 21.9665 417.979 22.0159 417.978 22.1928C417.978 22.4144 418.37 22.4663 418.641 22.4714C419.347 22.485 420.053 22.4331 420.759 22.4425C423.617 22.4804 426.474 22.5633 429.332 22.5701C431.999 22.5748 434.654 22.7037 437.339 22.5701C440.829 22.4 444.328 22.7168 447.821 22.8559C451.242 22.9925 454.669 23.0733 458.084 23.2562C463.581 23.5505 469.093 23.7151 474.592 23.998C478.635 24.206 482.67 24.4982 486.73 24.6186C488.582 24.6735 490.42 24.8998 492.267 25.0346C495.816 25.2936 499.369 25.5344 502.916 25.8002C503.911 25.8755 504.888 26.0384 505.881 26.1269C506.581 26.196 507.296 26.1792 507.984 26.0776C507.515 25.9678 507.021 25.8996 506.519 25.8751C504.999 25.9346 503.61 25.4923 502.108 25.5076C501.695 25.5073 501.286 25.4615 500.9 25.3723C498.204 24.7653 495.34 24.8079 492.559 24.5378C491.015 24.3876 489.201 24.534 487.995 23.6654C487.927 23.6036 487.868 23.5386 487.818 23.471C488.585 23.3411 489.401 23.3654 490.143 23.5403C492.473 23.8627 494.88 23.8096 497.213 24.1299C499.681 24.4701 502.182 24.7211 504.672 24.9993C505.548 25.1052 506.432 25.1833 507.321 25.2332C510.351 25.4244 513.36 25.7158 516.336 26.1061C519.682 26.4889 523.104 26.6433 526.379 27.2486C526.709 27.2861 527.046 27.2994 527.381 27.2881C528.763 27.3273 529.019 27.5991 528.334 28.3175C528.712 28.4578 529.03 28.1822 529.401 28.2647C529.699 28.3311 529.983 28.414 529.966 28.6254C529.963 28.6715 529.941 28.7164 529.903 28.7564C529.865 28.7964 529.811 28.8303 529.747 28.8553C529.682 28.8803 529.609 28.8957 529.533 28.9001C529.457 28.9045 529.38 28.8978 529.309 28.8806C528.171 28.6846 526.901 28.8351 525.856 28.4157C525.383 28.2813 524.859 28.2252 524.338 28.2532C524.019 28.2362 523.554 28.2715 523.578 27.9891C523.605 27.6816 524.107 27.6811 524.449 27.7254C525.295 27.8829 526.165 27.9874 527.046 28.0372C527.187 28.0372 527.328 28.0495 527.568 28.0606C526.827 27.5667 525.839 27.6863 525.022 27.5501C523.956 27.4207 522.873 27.3483 521.786 27.3336C521.678 27.3277 521.525 27.323 521.463 27.36C520.027 28.2145 518.378 27.631 516.831 27.5931C513.305 27.508 509.826 27.1299 506.327 26.8819C502.303 26.5965 498.283 26.2745 494.255 25.9955C493.22 25.9236 492.167 25.9529 491.123 25.9363C490.472 25.9266 490.407 26.1116 490.742 26.3885C491.179 26.7505 491.721 27.0601 492.127 27.4434C492.443 27.7411 492.662 27.5446 492.768 27.3094C493.203 26.3443 493.748 26.1439 495.388 26.32C496.173 26.4614 496.976 26.5653 497.788 26.6309C497.921 26.6223 498.054 26.6422 498.165 26.6871C498.275 26.732 498.356 26.7991 498.392 26.8764C498.47 27.0937 498.181 27.1316 497.922 27.1741C497.746 27.2026 497.509 27.2022 497.481 27.3387C497.446 27.5089 497.72 27.5331 497.905 27.6008C498.246 27.7714 498.626 27.911 499.034 28.0151C499.334 28.0576 500.31 28.4744 499.926 27.6909C499.831 27.4982 500.149 27.4327 500.335 27.534C501.177 27.9925 502.28 28.075 503.268 28.323C503.644 28.4179 504.126 28.5599 503.978 28.8445C503.817 29.1529 503.262 29.0827 502.919 28.9776C502.008 28.7003 501.076 28.9513 500.157 28.8815C497.241 28.6599 494.298 28.5357 491.403 28.2558C489.507 28.0725 487.605 27.913 485.707 27.739C484.614 27.6386 483.567 27.884 482.487 27.896C482.266 27.8985 482.029 27.9785 481.829 27.9487C478.1 27.3987 474.229 27.8743 470.484 27.3532C469.085 27.2248 467.671 27.1636 466.256 27.1703C465.638 27.1461 464.961 27.2311 464.553 26.8194C464.457 26.7215 464.2 26.6407 464.071 26.7245C463.244 27.2566 462.632 26.8713 461.941 26.5969C461.636 26.5152 461.302 26.4787 460.968 26.4906C457.882 26.3685 454.797 26.1907 451.708 26.1584C449.864 26.1828 448.02 26.1363 446.186 26.0193L446.131 26.2243C447.137 26.3481 448.134 26.5106 449.15 26.588C451.569 26.7717 454.013 26.8394 456.432 26.9759C458.463 27.0903 460.514 27.1384 462.544 27.2422C465.709 27.4034 468.876 27.6016 472.052 27.6905C472.964 27.716 473.792 27.9559 474.689 27.9691C477.135 28.0048 479.572 28.1184 482.009 28.2392C483.398 28.3633 484.769 28.5508 486.111 28.8003C487.074 28.9274 487.576 29.326 487.004 30.0232ZM323.549 29.984C325.143 29.916 326.73 30.1967 328.332 29.9968C328.721 29.9483 329.249 29.9815 329.272 30.3128C329.295 30.6442 328.788 30.6591 328.378 30.6773C327.592 30.6333 326.804 30.7421 326.128 30.9879C329.118 30.9096 331.8 30.6931 334.575 30.785C334.302 30.5893 333.771 30.6548 333.752 30.3651C333.733 30.064 334.273 30.0755 334.599 29.8938C333.991 29.8755 333.535 29.8249 333.24 30.1771C333.202 30.237 333.135 30.2889 333.049 30.3265C332.963 30.364 332.86 30.3857 332.754 30.3887C332.647 30.3918 332.542 30.3761 332.45 30.3437C332.358 30.3113 332.283 30.2635 332.236 30.2061C332.015 30.0375 331.718 29.9109 331.381 29.8414C331.044 29.7719 330.68 29.7625 330.335 29.8143C328.956 29.8841 327.581 29.8079 326.204 29.8539C325.32 29.8836 324.414 29.7739 323.555 29.9895C323.332 29.981 323.107 29.984 322.888 29.9623C322.519 29.9253 322.061 29.887 322.082 29.602C322.107 29.2618 322.576 29.3626 322.939 29.3724C323.205 29.3796 323.534 29.4863 323.695 29.2447C322.498 28.9977 321.202 28.9841 319.992 29.206C321.101 30.2175 322.148 30.4468 323.549 29.984ZM401.699 25.4119C401.104 25.4119 400.732 25.4025 400.358 25.4119C398.555 25.5154 396.745 25.564 394.934 25.5574C393.14 25.5008 391.363 25.6526 389.578 25.5825C389.391 25.5752 389.166 25.5931 389.166 25.7403C389.166 25.8742 389.378 25.9104 389.566 25.9227C389.754 25.9351 389.939 25.9329 390.124 25.9419C390.529 25.961 391.051 25.9321 391.085 26.2622C391.118 26.5922 390.59 26.6369 390.194 26.6395C388.855 26.648 387.515 26.6386 386.175 26.6114C385.657 26.6003 384.877 26.7815 384.724 26.354C384.589 25.9789 385.449 25.9887 385.811 25.7862C385.888 25.7313 385.955 25.672 386.013 25.6092C373.176 25.7705 360.398 25.7794 347.642 26.2792C348.656 26.3415 349.674 26.3656 350.692 26.3515C351.528 26.3481 352.411 26.1733 353.055 26.6994C353.312 26.9091 353.63 26.8036 353.91 26.6407C354.721 26.1682 355.783 26.2941 356.761 26.2447C356.846 26.237 356.933 26.2408 357.015 26.2559C357.098 26.2709 357.173 26.2968 357.237 26.3316C357.301 26.3664 357.351 26.4094 357.384 26.4573C357.417 26.5053 357.432 26.557 357.428 26.6088C357.41 26.8594 357.039 26.9113 356.71 26.9619C356.133 27.0504 355.675 26.7917 354.934 26.6782C355.39 27.0801 355.87 27.3532 356.386 27.2537C357.426 27.0529 358.444 27.272 359.465 27.1814C362.223 26.9363 365.015 26.8508 367.8 26.9261C370.817 27.0082 373.817 26.8215 376.819 26.9142C378.753 26.9742 380.646 26.6752 382.608 26.8334C384.882 27.0168 387.255 27.2298 389.484 27.0282C392.238 26.779 394.949 27.035 397.667 26.887C398.002 26.885 398.337 26.901 398.667 26.9346C400.726 27.0469 402.785 27.386 404.987 26.9006C403.224 26.9118 401.467 26.7658 399.774 26.4672C400.887 26.4408 400.901 25.7696 401.699 25.4119ZM421.496 24.6964C441.238 24.742 460.916 25.4791 480.57 26.625C480.134 26.4091 479.611 26.2666 479.053 26.212C476.522 26.121 474.017 25.8891 471.499 25.722C468.136 25.4987 464.728 25.5378 461.354 25.3579C455.121 25.0257 448.872 24.8117 442.627 24.7717C438.914 24.7479 435.214 24.6539 431.512 24.5403C428.172 24.4137 424.82 24.4659 421.496 24.6964ZM276.411 10.4956C285.007 10.5066 293.603 10.5198 302.192 10.2118C299.673 10.2484 297.168 9.88433 294.656 10.0621C292.994 10.2237 291.289 10.0817 289.761 9.65464C289.461 9.53865 289.122 9.46271 288.769 9.4319C288.416 9.40109 288.056 9.41612 287.713 9.476C287.478 9.52916 287.123 9.54916 287.323 9.77885C287.668 10.1732 287.148 10.1225 286.813 10.1523C286.48 10.1471 286.146 10.1655 285.819 10.2072C284.96 10.4271 284.319 10.4432 283.74 9.87837C283.34 9.4879 282.752 9.60445 282.527 10.0553C282.413 10.2859 282.087 10.2825 281.801 10.2795C281.019 10.2714 280.234 10.2646 279.458 10.2148C278.421 10.1759 277.383 10.2716 276.413 10.4956H276.411ZM423.831 25.5595C423.831 25.6348 423.836 25.7101 423.839 25.7853C426.384 25.6458 428.806 26.1622 431.367 26.1435C435.599 26.0663 439.835 26.2029 444.03 26.5518C444.308 26.5937 444.601 26.5857 444.872 26.5289C445.143 26.4721 445.38 26.3689 445.555 26.232C444.678 26.2226 444.002 26.4102 443.453 26.1686C441.998 25.5246 440.318 25.6765 438.71 25.6905C435.886 25.7152 433.068 25.6692 430.246 25.5735C428.116 25.5012 425.972 25.5595 423.834 25.5595H423.831ZM341.068 9.75886H354.308C354.133 9.47472 353.524 9.4611 353.701 9.16335C353.848 8.91537 354.227 8.86093 354.597 8.82307C355.205 8.77991 355.784 8.64501 356.281 8.4309C355.062 8.51305 353.836 8.54687 352.61 8.53214C352.384 8.51891 352.158 8.5544 351.971 8.63228C351.785 8.71017 351.65 8.82541 351.591 8.95749C351.577 9.04864 351.525 9.13613 351.439 9.21169C351.353 9.28726 351.237 9.34842 351.101 9.38937C350.965 9.43033 350.814 9.44973 350.662 9.44576C350.511 9.44179 350.363 9.41457 350.233 9.36667C350.022 9.31648 349.802 9.22716 349.598 9.30287C348.868 9.57127 348.701 9.25183 348.525 8.9443C348.42 8.76183 348.449 8.53597 347.953 8.53767C345.888 8.5449 343.823 8.54064 341.758 8.54064C342.887 8.68143 344.059 8.5768 345.147 8.87284C345.365 8.90094 345.592 8.87733 345.782 8.80691C346.629 8.53299 347.076 8.7967 347.509 9.22035C345.346 9.52023 343.199 9.47727 341.068 9.75886ZM307.256 9.02214C306.753 10.2518 304.813 9.81542 303.467 10.4216C309.1 10.0387 314.457 10.3263 319.783 10.0039C318.647 9.66894 317.365 9.55551 316.117 9.67931C315.866 9.72678 315.598 9.73283 315.341 9.69685C315.085 9.66087 314.849 9.58417 314.658 9.47471C314.008 9.05191 313.239 8.98343 312.611 9.41814C312.422 9.57132 312.166 9.68942 311.871 9.75892C311.576 9.82843 311.255 9.84653 310.943 9.81117C310.169 9.7458 309.387 9.72359 308.606 9.74481C307.894 9.74609 307.103 9.80989 307.256 9.02214ZM489.725 25.9691C478.595 25.1209 467.457 24.4574 456.03 24.1652C458.372 24.6394 460.572 24.4408 462.729 24.5607C464.319 24.6488 465.906 24.7773 467.502 24.8015C471.522 24.8303 475.527 25.0997 479.458 25.6058C480.036 25.6971 480.634 25.7318 481.229 25.7088C483.26 25.5561 485.322 25.6663 487.276 26.0321C488.087 26.1457 488.933 26.1239 489.725 25.9691ZM340.018 9.6657C339.167 9.5466 338.315 9.42622 337.464 9.30797C337.198 9.27139 336.936 9.21993 336.917 9.02767C336.902 8.86731 337.129 8.81499 337.334 8.74992C337.508 8.69377 337.794 8.74395 337.87 8.54914C336.341 8.45174 334.876 8.66612 333.121 8.71078C333.739 8.8945 334.448 8.93565 335.113 8.82648C335.216 8.81944 335.321 8.82517 335.421 8.84331C335.521 8.86146 335.613 8.89164 335.693 8.93202C335.773 8.97241 335.838 9.02216 335.885 9.07824C335.932 9.13431 335.959 9.19555 335.966 9.25822C336.036 9.58957 335.589 9.59849 335.222 9.61976C334.188 9.7024 333.144 9.7276 332.102 9.69505C330.716 9.56932 329.3 9.64695 327.974 9.92134C331.994 9.9721 336.014 9.88674 340.018 9.6657ZM357.226 32.7348C358.029 32.8871 359.03 32.6378 359.519 33.2401C359.755 33.5306 359.174 33.5655 358.937 33.7246C360.729 33.9218 362.568 33.892 364.34 33.637C364.18 33.5125 363.957 33.4226 363.705 33.3806C363.453 33.3387 363.186 33.347 362.942 33.4043C362.647 33.4587 362.273 33.4158 362.255 33.1878C362.235 32.9245 362.636 32.9394 362.916 32.9751C363.607 33.029 364.309 32.9488 364.919 32.7463C362.229 32.5068 359.726 32.8658 357.226 32.7348ZM273.539 9.62104C272.191 10.5143 271.737 10.6419 270.339 10.4718C269.878 10.3914 269.397 10.3636 268.92 10.3896C268.386 10.4415 267.791 10.5079 267.575 10.0362C267.553 9.99805 267.516 9.96379 267.466 9.93651C267.417 9.90923 267.357 9.8898 267.292 9.87996C267.227 9.87012 267.159 9.87018 267.095 9.88015C267.03 9.89013 266.97 9.90969 266.921 9.93707C266.365 10.3199 265.664 10.3016 264.921 10.3309C264.67 10.3474 264.429 10.399 264.218 10.4818C264.006 10.5645 263.83 10.676 263.704 10.8074C267.346 10.6176 270.984 10.8252 274.859 10.6342C274.162 10.2974 273.522 10.1259 273.539 9.62104ZM332.42 26.3889L332.409 26.6288C333.272 26.6288 334.137 26.6195 335.001 26.6335C335.359 26.6395 335.878 26.6301 335.892 26.91C335.909 27.2388 335.364 27.1333 335.028 27.1588C334.1 27.2298 333.135 27.0431 332.109 27.2732C333.841 27.6263 336.048 27.5948 339.063 27.2009C338.707 26.8964 338.66 26.9619 336.969 26.5204C335.404 26.1133 333.93 26.3838 332.417 26.3889H332.42ZM341.603 11.972C346.855 11.7495 352.127 12.1732 357.368 11.6317C352.109 11.7282 346.843 11.5015 341.599 11.972H341.603ZM355.422 9.47217L355.397 9.6338C358.544 9.77318 361.706 9.73929 364.843 9.53257C364.206 9.3355 363.473 9.28455 362.779 9.38922C361.931 9.46184 361.075 9.49172 360.219 9.47854C359.883 9.47429 359.513 9.47301 359.336 9.26289C359.134 9.02639 359.446 8.89879 359.689 8.75885C359.988 8.5887 360.248 8.40155 360.066 8.15995C359.068 8.55298 357.606 8.56063 357.156 9.40794C357.126 9.46408 356.744 9.46408 356.521 9.46961C356.155 9.47897 355.786 9.47217 355.418 9.47217H355.422ZM317.317 18.1056H307.085L307.096 18.3446C310.508 18.3829 313.92 18.3031 317.317 18.1056ZM295.661 19.0082C297.263 19.0522 298.868 18.9808 300.442 18.7955C300.776 18.753 301.355 18.8746 301.36 18.5854C301.365 18.2961 300.79 18.4033 300.451 18.3774C299.22 18.2838 298.021 18.6845 296.75 18.4169C296.143 18.291 295.92 18.6785 295.661 19.0082Z" fill="white"/>
</svg>
